<svg width="30" height="30" viewBox="0 0 30 30" xmlns="http://www.w3.org/2000/svg"><path d="M10.862 25A14.69 14.69 0 013 22.732c.401.046.81.07 1.224.07 2.403 0 4.614-.807 6.37-2.161-2.245-.041-4.14-1.5-4.792-3.507a5.2 5.2 0 002.317-.086c-2.347-.464-4.115-2.505-4.115-4.951v-.063a5.17 5.17 0 002.324.631 5.027 5.027 0 01-2.282-4.202c0-.926.253-1.793.694-2.539A14.639 14.639 0 0015.312 11.2a4.993 4.993 0 01-.133-1.151C15.18 7.26 17.476 5 20.31 5a5.16 5.16 0 013.743 1.594A10.37 10.37 0 0027.31 5.37a5.08 5.08 0 01-2.255 2.794A10.382 10.382 0 0028 7.368a10.336 10.336 0 01-2.56 2.613c.01.217.015.434.015.653C25.455 17.306 20.297 25 10.862 25" fill="#E0E6F0" fill-rule="evenodd"/></svg>