<svg width="30" height="30" viewBox="0 0 30 30" xmlns="http://www.w3.org/2000/svg"><path d="M9.262 5.157c-.023-1.05.389-1.863 1.02-2.08.631-.217 1.767-.063 2.596 1.595.552 1.106 1.493 3.583 2.823 7.432a1515.34 1515.34 0 012.506-6.557c.497-1.28 1.657-2.249 2.623-1.98.967.268 1.545 1.716 1.212 3-.221.857-.906 2.953-2.055 6.29-1.899-.357-3.199-.579-3.9-.667-1.956-.248-2.538-.172-2.909-.086-.37.086-.639.373-.836.618-.135.167-.296.485-.483.955-1.716-4.98-2.581-7.82-2.597-8.52zm4.808 11.608c.43.135.856.242 1.28.32.422.08.994.119 1.715.119-.58.39-.978.686-1.196.884-.217.2-.5.517-.848.954-.124-.433-.26-.843-.408-1.232a4.773 4.773 0 00-.543-1.045zm-.81-3.585c.663-.356 2.65-.12 4.352.14 1.703.26 3.75.417 4.546 1.466.797 1.05.539 5.045-.712 7.672-1.251 2.626-5.28 5.172-9.587 4.402-4.308-.771-6.417-4.061-6.232-6.857.185-2.797 1.634-3.062 2.565-2.8.931.263 1.735 1.396 2.294 2.11.56.714 1.6 1.874 1.5 2.509-.101.634-1.489 1.294-2.576 0-.725-.863-1.131-1.458-1.218-1.784-.114.098-.174.287-.18.566-.011.419.41 1.29.903 1.854.494.562 1.735 1.494 2.666 1.102.931-.393 1.198-1.072 1.22-1.333.015-.175-.028-.428-.128-.76.156.104.352.144.587.118.236-.025.405-.098.508-.217-.018.468.032.966.15 1.493.177.79.723 1.378.985 1.506.175.085.324.128.446.128.071-.268.015-.619-.17-1.052-.276-.65-.68-1.425.17-3.045.85-1.62 2.263-2.497 2.858-2.73.396-.154.827-.348 1.292-.582-.007-.37-.14-.579-.399-.624-.388-.068-4.395.05-5.56-.725s-.942-2.202-.28-2.557zm-3.013-.047c.82 0 1.998 2.417 2.308 2.96.31.542 1.592 2.755 1.592 3.439 0 .685-.416 1.2-1.166 1.072-.75-.127-1.65-1.137-3.187-3.138-.669-.87-1.514-1.944-1.5-2.68.02-1.05.805-1.653 1.953-1.653z" fill="#E0E6F0" fill-rule="evenodd"/></svg>