<svg width="100" height="100" viewBox="0 0 100 100" xmlns="http://www.w3.org/2000/svg" xmlns:xlink="http://www.w3.org/1999/xlink"><defs><path d="M50 100C22.386 100 0 77.614 0 50S22.386 0 50 0s50 22.386 50 50-22.386 50-50 50z" id="a"/></defs><g fill="none" fill-rule="evenodd"><g opacity=".197"><use fill="#000" xlink:href="#a"/><path stroke="#000" stroke-width="4" d="M50 98c26.51 0 48-21.49 48-48S76.51 2 50 2 2 23.49 2 50s21.49 48 48 48z"/></g><path d="M50 84c-18.778 0-34-15.222-34-34s15.222-34 34-34 34 15.222 34 34-15.222 34-34 34z" fill="#F5F9FF"/><path d="M59.286 40.91c-.282-.316-.698-.656-1.246-1.02a14.199 14.199 0 00-1.904-1.044c-.721-.333-1.37-.668-2.232-.905-.862-.238-1.254-.4-1.904-.4v9.825l-.002.19c1.693.41 3.22.87 4.584 1.376 1.364.506 2.516 1.123 3.456 1.851a7.52 7.52 0 012.186 2.682c.517 1.06.776 2.35.776 3.868 0 1.677-.298 3.11-.893 4.296a8.354 8.354 0 01-2.469 2.966c-1.05.792-2.272 1.385-3.667 1.78-1.395.396-2.372.61-3.971.641V72h-4v-5.079c-2.257-.158-3.368-.609-5.405-1.352A20.234 20.234 0 0137 62.459l2.398-4.556c.345.38.846.791 1.504 1.234.659.443 1.427.87 2.304 1.282.878.41 1.842.775 2.892 1.091 1.05.317.78.368 1.908.494L48 52.35l.006-.382c-1.982-.586-3.37-1.036-4.165-1.351-1.238-.49-2.265-1.084-3.08-1.78a6.98 6.98 0 01-1.857-2.444c-.423-.934-.635-2.065-.635-3.394 0-1.55.267-2.927.8-4.13a9.043 9.043 0 012.256-3.108 10.714 10.714 0 013.41-2.041c1.3-.49 1.747-.659 3.265-.926V28h4v4.794c2.037.127 3.399.538 5.123 1.234 1.724.696 3.244 1.535 4.56 2.516l-2.397 4.366zm-1.928 16.993c0-1.392-.548-2.445-1.646-3.157-1.097-.711-1.737-1.352-3.712-1.922v9.398c2.006-.031 2.655-.411 3.736-1.139 1.081-.728 1.622-1.788 1.622-3.18zM43.77 42.145c0 1.329.608 2.344 1.2 3.025.593.68 1.15 1.215 3.03 1.721v-9.35c-1.912.094-2.328.598-3.03 1.305-.7.707-1.2 1.938-1.2 3.299z" fill="#D3E0EB"/></g></svg>