<svg width="100" height="100" viewBox="0 0 100 100" xmlns="http://www.w3.org/2000/svg" xmlns:xlink="http://www.w3.org/1999/xlink"><defs><path d="M50 100C22.386 100 0 77.614 0 50S22.386 0 50 0s50 22.386 50 50-22.386 50-50 50z" id="a"/><path d="M52.102 0C61.988 0 68.4 6.412 68.4 16.298v35.804c0 9.886-6.413 16.298-16.298 16.298H16.298C6.413 68.4 0 61.987 0 52.102V16.298C0 6.413 6.412 0 16.298 0h35.804z" id="b"/></defs><g fill="none" fill-rule="evenodd"><g opacity=".197"><use fill="#000" xlink:href="#a"/><path stroke="#000" stroke-width="4" d="M50 98c26.51 0 48-21.49 48-48S76.51 2 50 2 2 23.49 2 50s21.49 48 48 48z"/></g><g transform="translate(15.8 15.8)"><mask id="c" fill="#fff"><use xlink:href="#b"/></mask><use fill="#DBE8FB" xlink:href="#b"/><path fill="#EDF3FD" mask="url(#c)" d="M34.2 34.2l38-38v76h-76z"/><path fill="#F5F9FF" mask="url(#c)" d="M34.2 34.2l38-38v76z"/></g></g></svg>