<svg width="100" height="100" viewBox="0 0 100 100" xmlns="http://www.w3.org/2000/svg" xmlns:xlink="http://www.w3.org/1999/xlink"><defs><path d="M50 100C22.386 100 0 77.614 0 50S22.386 0 50 0s50 22.386 50 50-22.386 50-50 50z" id="a"/></defs><g fill="none" fill-rule="evenodd"><g opacity=".197"><use fill="#000" xlink:href="#a"/><path stroke="#000" stroke-width="4" d="M50 98c26.51 0 48-21.49 48-48S76.51 2 50 2 2 23.49 2 50s21.49 48 48 48z"/></g><path d="M26 26h44a8 8 0 018 8v40H26V26z" fill="#D3E0EB"/><rect fill="#F5F9FF" x="54" y="54" width="16" height="12" rx="2"/><path d="M40 54a6 6 0 016 6v14H34V60a6 6 0 016-6z" fill="#EDF3FD" opacity=".4"/><path d="M26 26h49.528a4 4 0 013.578 2.211L86 42H36.472a4 4 0 01-3.578-2.211L26 26z" fill="#F5F9FF"/></g></svg>