<svg width="100" height="100" viewBox="0 0 100 100" xmlns="http://www.w3.org/2000/svg" xmlns:xlink="http://www.w3.org/1999/xlink"><defs><path d="M50 100C22.386 100 0 77.614 0 50S22.386 0 50 0s50 22.386 50 50-22.386 50-50 50z" id="a"/></defs><g fill="none" fill-rule="evenodd"><g opacity=".197"><use fill="#000" xlink:href="#a"/><path stroke="#000" stroke-width="4" d="M50 98c26.51 0 48-21.49 48-48S76.51 2 50 2 2 23.49 2 50s21.49 48 48 48z"/></g><path fill="#D3E0EC" d="M20 47h15v30H20z"/><path fill="#DBE8FB" d="M35 33h15v44H35z"/><path fill="#EDF3FD" d="M50 18h15v59H50z"/><path fill="#F5F9FF" d="M65 33h15v44H65z"/></g></svg>