<svg width="275" height="30" viewBox="0 0 275 30" xmlns="http://www.w3.org/2000/svg"><g fill="none" fill-rule="evenodd"><path d="M73.147 14.173l10.703 11.44c.156.155.054.387-.154.387h-4.98l-8.062-8.788c-.092-.13-.286-.124-.378-.026L68 19.439V26h-4V4h4v9.21L77.583 4h5.05c.209 0 .291.175.135.331l-9.62 9.842zM86 13.11V26h4V11.74l-3.596.845a.55.55 0 00-.404.524zm-.784-4.821l2.029 1.474c.19.104.416.139.606.052l1.786-.711a.338.338 0 00.208-.225l.762-2.532c.052-.156-.017-.312-.156-.399l-2.097-1.266c-.156-.07-.33-.104-.503-.07l-1.75.469a.353.353 0 00-.243.225l-.815 2.55c-.017.173.035.346.173.433zM103.972 26l.028-8.416c0-2.376-.912-4.249-3.425-4.197-2.028.035-3.575 1.856-3.575 4.11V26h-3.983V11.376c0-.243.156-.451.399-.503l.97-.243 2.288-.52.07 2.08c1.595-1.56 2.825-2.358 4.801-2.358 3.693 0 6.455 2.775 6.455 7.7V26h-4.028zM116 9.876l6.065-1.034c-.231.608-.4 1.187-.509 1.738-.078.399-.155.809-.231 1.23a.697.697 0 01-.573.564l-4.752.78v5.629c0 1.467.31 3.724 1.993 3.76.446.01.944-.1 1.405-.264.272-.096.53.054.642.313.095.219.36.783.562 1.127.576.98.859 1.326.859 1.326-1.134.655-2.326.937-3.725.932-3.816-.015-5.736-3.354-5.736-7.194v-4.947l-3 .512v-3.279l3-.511V6.934c0-.238.301-.444.54-.498L116 5.64v4.236zm22.67 8.072c0 4.526-3.086 8.185-8.183 8.185-5.096 0-8.147-3.659-8.147-8.185 0-4.491 3.12-8.185 8.113-8.185 5.01.017 8.216 3.711 8.216 8.185zm-12.256 0c0 2.393 1.265 4.786 4.09 4.786 2.826 0 4.091-2.393 4.091-4.786 0-2.358-1.473-4.82-4.09-4.82-2.809 0-4.091 2.479-4.091 4.82zM156 26v-9.249L146.182 18c-.122.017-.182.121-.182.243V26h-4V4h4v10.15l9.847-1.211c.104-.018.153-.159.153-.28V4h4v22h-4zm11-14.538v6.85c0 2.376.457 4.145 3.265 4.197 1.785.034 3.735-1.856 3.735-4.11V11.08c0-.243.148-.45.373-.503L178 10.11V26h-3.47c-.192 0-.348-.318-.348-.509l-.069-1.803c-1.439 1.595-2.773 2.358-4.958 2.358-3.761 0-6.136-2.826-6.136-7.7V12.4a.52.52 0 01.399-.503l3.582-.434zM185 4v8.052c1.005-1.37 3.397-2.289 5.043-2.272 3.727.035 7.853 2.74 7.853 8.15 0 5.15-3.484 8.584-8.078 8.203-1.82-.156-3.71-1.3-4.715-2.515l-.087 1.839c-.017.19-.156.543-.346.543H181V4.842c0-.243.17-.448.478-.48L185 4zm.38 13.913c0 2.827 1.925 4.786 4.369 4.786 2.704 0 4.195-2.393 4.195-4.82 0-2.48-1.716-4.717-4.195-4.717-2.444 0-4.369 2.029-4.369 4.751z" fill="#FFF" fill-rule="nonzero"/><path d="M45.78 8.879c-5.46-2.272-10.054-1.232-13.833.97 1.717 3.434 2.202 7.405 4.109 10.006 2.565 3.486 7.315 6.347 10.972 6.295 2.982-.034 4.611-1.977 4.94-2.514.018-.018.018-.035.035-.052v-.018a5.76 5.76 0 00.66-1.803c.883-4.474-1.578-10.682-6.883-12.884z" fill="#1EC4E9"/><path d="M11.267 25.231c4.629-.537 8.061-2.098 13.92-8.566 1.993-2.185 3.744-5.047 6.76-6.815C30.023 6 27.337 2.428 21.841.97 14.873-.867 9.933.14 5.166 4.405 1.837 7.387.64 10.855.329 12.208c-.866 3.78.572 7.283 1.872 9.52.208.347 2.86 4.232 9.066 3.503z" fill="#A295EE"/><path d="M37.234 29.566c.07 0 .14-.017.226-.017.121-.017.225-.017.33-.035 2.114-.19 4.142-.468 5.945-.884l.26-.052c.052-.017.087-.017.139-.035 2.062-.503 3.727-1.196 5.061-2.08.018-.018.052-.035.07-.053.052-.034.086-.069.138-.104.035-.017.052-.034.087-.052.07-.052.121-.086.19-.138a9.092 9.092 0 001.838-1.804.24.24 0 00.052-.07c.017-.017.017-.034.035-.051a7 7 0 00.381-.59c-.33.538-1.681 2.064-4.663 2.098-3.657.052-8.078-2.687-10.643-6.19-1.907-2.601-3-6.26-4.715-9.694-3 1.769-5.495 4.266-7.489 6.468-5.859 6.451-8.892 7.925-13.52 8.463-6.206.728-8.547-2.706-8.755-3.035 0 .017.018.017.018.035.173.294 1.092 1.734 2.53 3.104.677.624 1.37 1.144 1.994 1.56 2.791 1.7 6.657 3.365 20.593 3.434 3.78.035 7.056-.052 9.898-.278z" fill="#7A68E8"/><path d="M211.24 25V5.12h7.056c1.605 0 3.01.261 4.214.784 1.204.523 2.212 1.232 3.024 2.128a8.918 8.918 0 011.834 3.15c.41 1.204.616 2.487.616 3.85 0 1.512-.229 2.88-.686 4.102-.457 1.223-1.106 2.268-1.946 3.136-.84.868-1.857 1.54-3.052 2.016s-2.53.714-4.004.714h-7.056zm13.552-9.968c0-1.045-.145-2.007-.434-2.884-.29-.877-.714-1.629-1.274-2.254a5.913 5.913 0 00-2.044-1.47c-.803-.355-1.717-.532-2.744-.532h-3.92v14.336h3.92c1.045 0 1.974-.182 2.786-.546a5.733 5.733 0 002.044-1.512 6.512 6.512 0 001.246-2.282c.28-.877.42-1.83.42-2.856zm12.684 10.248c-1.157 0-2.198-.205-3.122-.616a7.289 7.289 0 01-2.366-1.652 7.28 7.28 0 01-1.512-2.422 8.018 8.018 0 01-.532-2.898 8.01 8.01 0 01.532-2.898 7.167 7.167 0 011.526-2.422 7.451 7.451 0 012.38-1.652c.924-.41 1.955-.616 3.094-.616 1.139 0 2.17.205 3.094.616.924.41 1.717.961 2.38 1.652a7.167 7.167 0 011.526 2.422 8.01 8.01 0 01.532 2.898 8.018 8.018 0 01-.532 2.898 7.167 7.167 0 01-1.526 2.422 7.451 7.451 0 01-2.38 1.652c-.924.41-1.955.616-3.094.616zm-4.368-7.56c0 .71.112 1.363.336 1.96a4.88 4.88 0 00.924 1.554c.392.439.854.784 1.386 1.036a3.971 3.971 0 001.722.378c.616 0 1.19-.126 1.722-.378a4.231 4.231 0 001.386-1.05c.392-.448.7-.97.924-1.568a5.54 5.54 0 00.336-1.96c0-.69-.112-1.34-.336-1.946a5.01 5.01 0 00-.924-1.582 4.231 4.231 0 00-1.386-1.05 3.971 3.971 0 00-1.722-.378c-.597 0-1.162.13-1.694.392a4.406 4.406 0 00-1.386 1.064 5.224 5.224 0 00-.938 1.582 5.374 5.374 0 00-.35 1.946zm13.692-.056c0-1.027.177-1.997.532-2.912a7.199 7.199 0 011.526-2.408 7.233 7.233 0 012.394-1.638c.933-.401 1.979-.602 3.136-.602 1.512 0 2.814.331 3.906.994s1.909 1.545 2.45 2.646l-2.996.952a3.851 3.851 0 00-1.428-1.442 3.9 3.9 0 00-1.988-.518 4.1 4.1 0 00-3.108 1.386 4.88 4.88 0 00-.924 1.554 5.623 5.623 0 00-.336 1.988c0 .71.117 1.367.35 1.974.233.607.55 1.134.952 1.582a4.38 4.38 0 001.4 1.05 3.908 3.908 0 001.694.378c.373 0 .747-.051 1.12-.154a4.013 4.013 0 001.834-1.078c.233-.243.406-.504.518-.784l3.024.896c-.485 1.101-1.297 2.002-2.436 2.702-1.139.7-2.483 1.05-4.032 1.05-1.139 0-2.175-.205-3.108-.616a7.304 7.304 0 01-2.394-1.666 7.546 7.546 0 01-1.54-2.422 7.802 7.802 0 01-.546-2.912zm21.924 7.616c-1.176 0-2.347-.191-3.514-.574-1.167-.383-2.17-.929-3.01-1.638l1.232-1.96c.877.635 1.745 1.115 2.604 1.442a7.34 7.34 0 002.632.49c.915 0 1.638-.177 2.17-.532.532-.355.798-.859.798-1.512 0-.616-.299-1.064-.896-1.344s-1.53-.588-2.8-.924a35.224 35.224 0 01-2.352-.7c-.653-.224-1.185-.485-1.596-.784-.41-.299-.71-.644-.896-1.036-.187-.392-.28-.868-.28-1.428 0-.747.145-1.41.434-1.988a4.26 4.26 0 011.204-1.47 5.394 5.394 0 011.806-.91 7.828 7.828 0 012.24-.308 9.19 9.19 0 013.08.504 8.015 8.015 0 012.548 1.456l-1.316 1.848c-1.363-1.083-2.81-1.624-4.34-1.624-.784 0-1.442.163-1.974.49-.532.327-.798.845-.798 1.554 0 .299.056.55.168.756.112.205.294.383.546.532.252.15.579.285.98.406.401.121.9.257 1.498.406.99.243 1.843.485 2.562.728.719.243 1.311.527 1.778.854.467.327.812.71 1.036 1.148.224.439.336.966.336 1.582 0 1.4-.527 2.506-1.582 3.318-1.055.812-2.487 1.218-4.298 1.218z" fill="#A2B0BD" fill-rule="nonzero"/></g></svg>