<?xml version="1.0" encoding="UTF-8"?>
<svg width="30px" height="30px" viewBox="0 0 30 30" version="1.1" xmlns="http://www.w3.org/2000/svg" xmlns:xlink="http://www.w3.org/1999/xlink">
    <!-- Generator: Sketch 46.2 (44496) - http://www.bohemiancoding.com/sketch -->
    <title>footer-socials-linkedin</title>
    <desc>Created with Sketch.</desc>
    <defs></defs>
    <g id="Symbols" stroke="none" stroke-width="1" fill="none" fill-rule="evenodd">
        <g id="footer/3-quarters-and-half" transform="translate(-345.000000, -120.000000)" fill="#E0E6F0">
            <g id="socials">
                <g transform="translate(225.000000, 120.000000)">
                    <path d="M125,7 L125,7 C125,5.8954305 125.895431,5 127,5 L127,5 L143,5 C144.104569,5 145,5.8954305 145,7 L145,7 L145,23 C145,24.1045695 144.104569,25 143,25 L127,25 C125.895431,25 125,24.1045695 125,23 L125,7 Z M131.167037,9.47429842 C131.167037,8.52533111 130.396204,7.7542836 129.44787,7.7542836 C128.497037,7.7542836 127.728426,8.52533111 127.728426,9.47429842 C127.728426,10.4242845 128.497037,11.195332 129.44787,11.195332 C130.396204,11.195332 131.167037,10.4242845 131.167037,9.47429842 Z M127.963889,22.0476058 L130.931574,22.0476058 L130.931574,12.500602 L127.963889,12.500602 L127.963889,22.0476058 Z M135.63787,12.500602 L132.792037,12.500602 L132.792037,22.0476058 L135.757593,22.0476058 L135.757593,17.3247198 C135.757593,16.0794665 135.993056,14.8732981 137.536667,14.8732981 C139.056852,14.8732981 139.078611,16.2973048 139.078611,17.4051125 L139.078611,22.0476058 L142.041574,22.0476058 L142.041574,16.810966 C142.041574,14.2394184 141.48713,12.2625729 138.485463,12.2625729 C137.042315,12.2625729 136.074444,13.0541817 135.678333,13.8045753 L135.63787,13.8045753 L135.63787,12.500602 Z" id="linkedin"></path>
                </g>
            </g>
        </g>
    </g>
</svg>