<?xml version="1.0" encoding="UTF-8"?>
<svg width="30px" height="30px" viewBox="0 0 30 30" version="1.1" xmlns="http://www.w3.org/2000/svg" xmlns:xlink="http://www.w3.org/1999/xlink">
    <!-- Generator: Sketch 46.2 (44496) - http://www.bohemiancoding.com/sketch -->
    <title>footer-socials-github</title>
    <desc>Created with Sketch.</desc>
    <defs></defs>
    <g id="Symbols" stroke="none" stroke-width="1" fill="none" fill-rule="evenodd">
        <g id="footer/3-quarters-and-half" transform="translate(-305.000000, -120.000000)" fill="#E0E6F0">
            <g id="socials">
                <g transform="translate(225.000000, 120.000000)">
                    <path d="M94.998895,3 C88.3732773,3 83,8.5085046 83,15.3040642 C83,20.7400586 86.4380429,25.3512503 91.2065134,26.9781965 C91.8069002,27.0914936 92.0256914,26.7115707 92.0256914,26.385275 C92.0256914,26.0937239 92.015378,25.3195271 92.0094846,24.2930554 C88.671629,25.0362843 87.9673716,22.6434498 87.9673716,22.6434498 C87.4214985,21.2219489 86.634734,20.8435366 86.634734,20.8435366 C85.5451978,20.0806696 86.7172412,20.0957758 86.7172412,20.0957758 C87.921698,20.1826369 88.555235,21.3639479 88.555235,21.3639479 C89.6256177,23.2439244 91.364161,22.7008536 92.0477915,22.3858877 C92.1568188,21.5912974 92.4669572,21.048982 92.8095092,20.7415693 C90.1449707,20.4311352 87.3434114,19.3752063 87.3434114,14.6605367 C87.3434114,13.3175885 87.8111974,12.2186067 88.5788084,11.3590594 C88.4550477,11.0478701 88.0432487,9.79631488 88.6966758,8.10290101 C88.6966758,8.10290101 89.7037048,7.7720735 91.9962246,9.3642753 C92.95316,9.09085165 93.9800792,8.95489514 95.0003683,8.94960794 C96.0199208,8.95489514 97.0461033,9.09085165 98.0045121,9.3642753 C100.295558,7.7720735 101.301114,8.10290101 101.301114,8.10290101 C101.956015,9.79631488 101.544216,11.0478701 101.421192,11.3590594 C102.190276,12.2186067 102.654379,13.3175885 102.654379,14.6605367 C102.654379,19.3872913 99.8483993,20.4273587 97.1757574,20.7317502 C97.6059732,21.1116731 97.9897787,21.8624551 97.9897787,23.0105323 C97.9897787,24.6548508 97.9750453,25.9819374 97.9750453,26.385275 C97.9750453,26.7145919 98.1916265,27.0975361 98.8001166,26.9774412 C103.564904,25.3467184 107,20.738548 107,15.3040642 C107,8.5085046 101.626723,3 94.998895,3" id="github"></path>
                </g>
            </g>
        </g>
    </g>
</svg>