<?xml version="1.0" encoding="UTF-8"?>
<svg width="30px" height="30px" viewBox="0 0 30 30" version="1.1" xmlns="http://www.w3.org/2000/svg" xmlns:xlink="http://www.w3.org/1999/xlink">
    <!-- Generator: Sketch 46.2 (44496) - http://www.bohemiancoding.com/sketch -->
    <title>footer-socials-angellist</title>
    <desc>Created with Sketch.</desc>
    <defs></defs>
    <g id="Symbols" stroke="none" stroke-width="1" fill="none" fill-rule="evenodd">
        <g id="footer/3-quarters-and-half" transform="translate(-385.000000, -120.000000)" fill="#E0E6F0">
            <g id="socials">
                <g transform="translate(225.000000, 120.000000)">
                    <path d="M169.262276,5.15678661 C169.239067,4.10684175 169.65085,3.29400118 170.282125,3.07722964 C170.913399,2.86045811 172.049422,3.01391072 172.877863,4.67248334 C173.430157,5.77819842 174.371312,8.25522253 175.701327,12.1035557 C177.040236,8.58597319 177.875391,6.40038135 178.206792,5.54678017 C178.703893,4.26637839 179.8639,3.29816986 180.830246,3.56654293 C181.796592,3.834916 182.375137,5.28297654 182.042431,6.56776958 C181.820628,7.42429827 181.135574,9.52039486 179.987271,12.8560593 C178.088078,12.5002739 176.788031,12.2780944 176.087129,12.1895207 C174.130624,11.9422751 173.549303,12.0175907 173.178402,12.1035557 C172.807502,12.1895207 172.539186,12.4767655 172.341567,12.7219855 C172.207283,12.8886159 172.046338,13.2068066 171.858733,13.6765576 C170.143235,8.69667352 169.277749,5.85674985 169.262276,5.15678661 Z M174.069557,16.7651049 C174.499589,16.9003757 174.926142,17.0072768 175.349216,17.0858082 C175.77229,17.1643396 176.344081,17.2036054 177.064587,17.2036054 C176.485065,17.594748 176.08658,17.8896918 175.869132,18.0884366 C175.651685,18.2871814 175.368834,18.6049777 175.02058,19.0418257 C174.896872,18.6092591 174.761145,18.1985123 174.613401,17.8095854 C174.465657,17.4206586 174.284376,17.0724984 174.069557,16.7651049 Z M173.260086,13.179752 C173.922512,12.8242309 175.910186,13.0605502 177.612473,13.3205859 C179.314761,13.5806216 181.36164,13.7372852 182.158084,14.7863287 C182.954528,15.8353722 182.69652,19.8311115 181.445746,22.4576073 C180.194972,25.0841031 176.166046,27.6304626 171.858733,26.8596497 C167.551419,26.0888367 165.442261,22.798628 165.627075,20.0025471 C165.81189,17.2064662 167.260897,16.9408693 168.192094,17.2036054 C169.123291,17.4663414 169.926773,18.5990403 170.486109,19.3131244 C171.045445,20.0272086 172.086489,21.1871166 171.985539,21.8216578 C171.88459,22.456199 170.497319,23.115865 169.409631,21.8216578 C168.684506,20.958853 168.27866,20.3641772 168.192094,20.0376303 C168.078338,20.1364394 168.018042,20.3253258 168.011207,20.6042896 C168.000954,21.0227353 168.422329,21.8948914 168.915473,22.4576073 C169.408617,23.0203232 170.65004,23.9523056 171.581008,23.5598297 C172.511976,23.1673538 172.779279,22.4882528 172.801306,22.2266961 C172.81599,22.0523249 172.773176,21.799237 172.672865,21.4674324 C172.828796,21.571349 173.024537,21.6105572 173.260086,21.5850568 C173.495635,21.5595565 173.665031,21.4870552 173.768271,21.367553 C173.750357,21.8359102 173.800344,22.3336172 173.918231,22.8606739 C174.095062,23.6512591 174.640709,24.2392688 174.903336,24.366977 C175.078421,24.4521157 175.227047,24.4946851 175.349216,24.4946851 C175.420234,24.2266876 175.363675,23.8760675 175.179539,23.4428249 C174.903336,22.792961 174.498974,22.0178676 175.349216,20.3982778 C176.199459,18.778688 177.612079,17.9010675 178.206792,17.6688606 C178.603268,17.5140559 179.034163,17.3197052 179.499478,17.0858082 C179.491967,16.7152461 179.358832,16.507225 179.100073,16.4617451 C178.711935,16.3935251 174.704591,16.5113749 173.539895,15.7365068 C172.375199,14.9616387 172.59766,13.5352731 173.260086,13.179752 Z M170.24686,13.1328824 C171.066345,13.1328824 172.244617,15.5497048 172.554621,16.0923096 C172.864625,16.6349144 174.146678,18.847505 174.146678,19.5320403 C174.146678,20.2165757 173.730654,20.7313781 172.980517,20.6042896 C172.230379,20.4772011 171.331663,19.4673257 169.793601,17.4663414 C169.125034,16.5965513 168.279805,15.5217143 168.294071,14.7863287 C168.314464,13.7351445 169.098783,13.1328824 170.24686,13.1328824 Z" id="angellist"></path>
                </g>
            </g>
        </g>
    </g>
</svg>