<?xml version="1.0" encoding="UTF-8"?>
<svg width="100px" height="100px" viewBox="0 0 100 100" version="1.1" xmlns="http://www.w3.org/2000/svg" xmlns:xlink="http://www.w3.org/1999/xlink">
    <!-- Generator: Sketch 48.2 (47327) - http://www.bohemiancoding.com/sketch -->
    <title>help-center-getting-started</title>
    <desc>Created with Sketch.</desc>
    <defs>
        <path d="M50,100 C22.3857625,100 0,77.6142375 0,50 C0,22.3857625 22.3857625,0 50,0 C77.6142375,0 100,22.3857625 100,50 C100,77.6142375 77.6142375,100 50,100 Z" id="path-1"></path>
    </defs>
    <g id="Page-1" stroke="none" stroke-width="1" fill="none" fill-rule="evenodd">
        <g id="help-center-getting-started">
            <g id="Combined-Shape" opacity="0.197067482">
                <use fill="#000000" fill-rule="evenodd" xlink:href="#path-1"></use>
                <path stroke="#000000" stroke-width="4" d="M50,98 C76.509668,98 98,76.509668 98,50 C98,23.490332 76.509668,2 50,2 C23.490332,2 2,23.490332 2,50 C2,76.509668 23.490332,98 50,98 Z"></path>
            </g>
            <g id="rocket" transform="translate(49.616978, 49.678606) rotate(40.000000) translate(-49.616978, -49.678606) translate(26.116978, 10.678606)">
                <path d="M23.4418605,66.8571429 C32.6894191,66.8571429 41.3023256,56.3478045 40.1860465,35.6571429 C39.0697674,14.9664812 25.9917446,0 23.4418605,0 C20.8919763,6.23426248e-16 7.81395349,14.9664812 6.69767442,35.6571429 C5.58139535,56.3478045 14.1943019,66.8571429 23.4418605,66.8571429 Z" id="Oval-4" fill="#F5F9FF"></path>
                <ellipse id="Oval-5" fill="#D3E0EB" cx="23.4418605" cy="35.6571429" rx="11.1627907" ry="11.1428571"></ellipse>
                <path d="M17.5924395,39.0969799 C16.6600086,37.9482297 16.1013984,36.4847828 16.1013984,34.8910984 C16.1013984,31.1986804 19.1000494,28.2053841 22.7990729,28.2053841 C24.8196476,28.2053841 26.6312424,29.0985361 27.8592585,30.5109105 C27.465517,30.4588144 27.0638033,30.4319273 26.6557985,30.4319273 C21.7767002,30.4319273 17.7972494,34.2768979 17.5924395,39.0969799 Z" id="Combined-Shape" fill="#EDF3FD"></path>
                <path d="M23.4418605,78 C25.0250545,78 26.7906977,73.0111729 27.9069767,66.8571429 C29.0232558,60.7031128 28.3738917,53.4857143 23.4418605,53.4857143 C18.5098292,53.4857143 17.8604651,60.7031128 18.9767442,66.8571429 C20.0930233,73.0111729 21.8586664,78 23.4418605,78 Z" id="Oval-6" fill="#DBE8FB"></path>
                <path d="M6.69767442,70.2 C8.16413972,70.2 6.69767442,67.4397444 11.1627907,61.2857143 C15.627907,55.1316842 12.629256,46.8 8.93023256,45.6857143 C5.23120912,44.5714286 0,50.6745414 0,56.8285714 C0,62.9826015 5.23120912,70.2 6.69767442,70.2 Z" id="Oval-7" fill="#DBE8FB"></path>
                <path d="M40.1860465,70.2 C41.6525118,70.2 40.1860465,67.4397444 44.6511628,61.2857143 C49.1162791,55.1316842 46.1176281,46.8 42.4186047,45.6857143 C38.7195812,44.5714286 33.4883721,50.6745414 33.4883721,56.8285714 C33.4883721,62.9826015 38.7195812,70.2 40.1860465,70.2 Z" id="Oval-7-Copy" fill="#DBE8FB" transform="translate(40.187828, 57.876594) scale(-1, 1) translate(-40.187828, -57.876594) "></path>
            </g>
        </g>
    </g>
</svg>