<svg height="40" viewBox="0 0 370 40" width="370" xmlns="http://www.w3.org/2000/svg"><g fill="none" fill-rule="evenodd" transform=""><path d="m227.564 9.12v19.88h-3.164v-8.764h-10.024v8.764h-3.136v-19.88h3.136v8.316h10.024v-8.316zm10.724 20.16c-1.138672 0-2.174662-.2006647-3.108-.602s-1.73133-.9473299-2.394-1.638-1.175998-1.4933288-1.54-2.408-.546-1.8853282-.546-2.912.181998-2.0019954.546-2.926.87733-1.7359965 1.54-2.436 1.460662-1.2506647 2.394-1.652 1.978661-.602 3.136-.602c1.138672 0 2.169995.2053313 3.094.616s1.712663.9566633 2.366 1.638 1.152665 1.4746621 1.498 2.38.518 1.8526617.518 2.842c0 .2240011-.009333.433999-.028.63s-.037333.3593327-.056.49h-11.732c.056.6533366.209999 1.2413307.462 1.764s.578665.9753314.98 1.358.858664.6766656 1.372.882 1.049997.308 1.61.308c.410669 0 .816665-.0513328 1.218-.154s.769998-.251999 1.106-.448.634665-.4339986.896-.714.466666-.5879983.616-.924l2.632.756c-.504003 1.1013388-1.339328 2.0019965-2.506 2.702s-2.524659 1.05-4.074 1.05zm4.452-8.708c-.056-.6160031-.209999-1.1853307-.462-1.708s-.573998-.9659982-.966-1.33-.849331-.6486656-1.372-.854-1.07333-.308-1.652-.308-1.124664.1026656-1.638.308-.965998.4899982-1.358.854-.709332.8073307-.952 1.33-.392 1.0919969-.448 1.708zm5.6-12.012h3.08v16.212c0 .541336.139999.9659985.42 1.274s.671997.462 1.176.462c.205334 0 .443332-.037333.714-.112s.527332-.1586662.77-.252l.448 2.408c-.448002.2053344-.979997.3686661-1.596.49s-1.166664.182-1.652.182c-1.064005 0-1.889997-.2893304-2.478-.868s-.882-1.3999947-.882-2.464zm16.716 20.72c-1.176006 0-2.211996-.2799972-3.108-.84s-1.605331-1.2879955-2.128-2.184v8.708h-3.08v-20.608h2.716v2.632c.560003-.8773377 1.283329-1.5773307 2.17-2.1s1.889994-.784 3.01-.784c1.008005 0 1.931996.2053313 2.772.616s1.567997.9613299 2.184 1.652 1.096665 1.4933288 1.442 2.408.518 1.875995.518 2.884c0 1.0640053-.158665 2.0579954-.476 2.982s-.76533 1.7266633-1.344 2.408-1.264663 1.2226647-2.058 1.624-1.665995.602-2.618.602zm-1.008-2.632c.653337 0 1.245997-.1399986 1.778-.42s.989331-.653331 1.372-1.12.676666-.9986637.882-1.596.308-1.2133302.308-1.848c0-.6720034-.116666-1.3066637-.35-1.904-.233335-.5973363-.550665-1.1199978-.952-1.568s-.881997-.8026654-1.442-1.064-1.166663-.392-1.82-.392c-.392002 0-.802665.0746659-1.232.224s-.830665.3546654-1.204.616-.699999.5646649-.98.91-.475999.7233313-.588 1.134v3.836c.186668.4480022.429332.867998.728 1.26s.629998.7279986.994 1.008.760665.5039992 1.19.672.867998.252 1.316.252zm16.324-7.728c0-1.1946726.214665-2.3846607.644-3.57s1.059329-2.2493286 1.89-3.192 1.843327-1.7033304 3.038-2.282c1.194673-.57866956 2.547992-.868 4.06-.868 1.810676 0 3.359994.40132932 4.648 1.204 1.288006.8026707 2.258663 1.8479936 2.912 3.136l-2.464 1.652c-.280001-.5973363-.615998-1.1013313-1.008-1.512s-.821331-.7373321-1.288-.98-.951997-.4153328-1.456-.518-.989331-.154-1.456-.154c-1.045339 0-1.959996.2099979-2.744.63s-1.441997.9753299-1.974 1.666-.933332 1.465329-1.204 2.324-.406 1.717329-.406 2.576c0 .9706715.158665 1.8946623.476 2.772s.760664 1.6519966 1.33 2.324 1.245996 1.2086647 2.03 1.61 1.642662.602 2.576.602c.485336 0 .984664-.0606661 1.498-.182s1.007998-.317332 1.484-.588.914665-.6113313 1.316-1.022.732665-.9053304.994-1.484l2.604 1.484c-.317335.7466704-.76533 1.4046638-1.344 1.974s-1.231996 1.049998-1.96 1.442-1.497996.6906656-2.31.896-1.609996.308-2.394.308c-1.400007 0-2.678661-.2986637-3.836-.896s-2.155996-1.3766619-2.996-2.338-1.493331-2.0533272-1.96-3.276-.7-2.4686603-.7-3.738zm26.656 10.36c-1.138672 0-2.174662-.2006647-3.108-.602s-1.73133-.9473299-2.394-1.638-1.175998-1.4933288-1.54-2.408-.546-1.8853282-.546-2.912.181998-2.0019954.546-2.926.87733-1.7359965 1.54-2.436 1.460662-1.2506647 2.394-1.652 1.978661-.602 3.136-.602c1.138672 0 2.169995.2053313 3.094.616s1.712663.9566633 2.366 1.638 1.152665 1.4746621 1.498 2.38.518 1.8526617.518 2.842c0 .2240011-.009333.433999-.028.63s-.037333.3593327-.056.49h-11.732c.056.6533366.209999 1.2413307.462 1.764s.578665.9753314.98 1.358.858664.6766656 1.372.882 1.049997.308 1.61.308c.410669 0 .816665-.0513328 1.218-.154s.769998-.251999 1.106-.448.634665-.4339986.896-.714.466666-.5879983.616-.924l2.632.756c-.504003 1.1013388-1.339328 2.0019965-2.506 2.702-1.166673.7000035-2.524659 1.05-4.074 1.05zm4.452-8.708c-.056-.6160031-.209999-1.1853307-.462-1.708s-.573998-.9659982-.966-1.33-.849331-.6486656-1.372-.854-1.07333-.308-1.652-.308-1.124664.1026656-1.638.308-.965998.4899982-1.358.854-.709332.8073307-.952 1.33-.392 1.0919969-.448 1.708zm18.704 8.428h-3.08v-8.204c0-1.3813402-.219331-2.3846635-.658-3.01s-1.087329-.938-1.946-.938c-.448002 0-.895998.0839992-1.344.252s-.867998.4059985-1.26.714-.741998.6719979-1.05 1.092-.545999.8819975-.714 1.386v8.708h-3.08v-14.644h2.8v2.94c.560003-.9893383 1.371995-1.7686638 2.436-2.338s2.239994-.854 3.528-.854c.877338 0 1.595997.1586651 2.156.476s1.003332.7513306 1.33 1.302.555333 1.1853297.686 1.904.196 1.4793293.196 2.282zm11.732-.756c-.392002.1866676-.93333.3966655-1.624.63s-1.427996.35-2.212.35c-.485336 0-.942665-.0653327-1.372-.196s-.807332-.3266654-1.134-.588-.583332-.6019979-.77-1.022-.28-.9286637-.28-1.526v-9.156h-1.932v-2.38h1.932v-4.816h3.08v4.816h3.192v2.38h-3.192v8.176c.037334.5226693.200665.9006655.49 1.134s.648665.35 1.078.35.839998-.0746659 1.232-.224.681332-.2706662.868-.364zm8.764 1.036c-1.138672 0-2.174662-.2006647-3.108-.602s-1.73133-.9473299-2.394-1.638-1.175998-1.4933288-1.54-2.408-.546-1.8853282-.546-2.912.181998-2.0019954.546-2.926.87733-1.7359965 1.54-2.436 1.460662-1.2506647 2.394-1.652 1.978661-.602 3.136-.602c1.138672 0 2.169995.2053313 3.094.616s1.712663.9566633 2.366 1.638 1.152665 1.4746621 1.498 2.38.518 1.8526617.518 2.842c0 .2240011-.009333.433999-.028.63s-.037333.3593327-.056.49h-11.732c.056.6533366.209999 1.2413307.462 1.764s.578665.9753314.98 1.358.858664.6766656 1.372.882 1.049997.308 1.61.308c.410669 0 .816665-.0513328 1.218-.154s.769998-.251999 1.106-.448.634665-.4339986.896-.714.466666-.5879983.616-.924l2.632.756c-.504003 1.1013388-1.339327 2.0019965-2.506 2.702-1.166672.7000035-2.524659 1.05-4.074 1.05zm4.452-8.708c-.056-.6160031-.209999-1.1853307-.462-1.708s-.573998-.9659982-.966-1.33-.849331-.6486656-1.372-.854-1.07333-.308-1.652-.308-1.124664.1026656-1.638.308-.965998.4899982-1.358.854-.709332.8073307-.952 1.33-.392 1.0919969-.448 1.708zm13.804-3.556c-1.194673.0373335-2.253995.3126641-3.178.826s-1.581998 1.2459952-1.974 2.198v8.96h-3.08v-14.644h2.856v3.276c.504003-1.008005 1.161996-1.8153303 1.974-2.422s1.684662-.9379997 2.618-.994h.462c.121334 0 .228666.0093332.322.028z" fill="#a2b0bd"/><g fill="#fff" fill-rule="nonzero" transform="translate(63.484321 7.815029)"><path d="m9.66277417 10.3579447 10.70263673 11.439148c.1560104.1560693.0540833.3878784-.1539307.3878784h-4.97986l-8.06204061-8.7878418c-.09237671-.1307373-.28614807-.1243439-.37791443-.0263519l-2.27598572 2.2535001v6.5606936h-4v-22h4v9.21008301l9.58276366-9.21008301h5.0507729c.208014 0 .2905403.1752905.1345298.33135986z"/><path d="m22.5156794 9.29440713v12.89056397h4v-14.26011561l-3.5963745.84467982c-.2253484.05202312-.4036255.28209726-.4036255.52487182z"/><path d="m21.7320557 4.47398844 2.0281359 1.47398844c.1906795.10404624.4160279.13872832.6067074.05202312l1.7854529-.71098266c.104007-.03468208.173345-.12138728.208014-.22543352l.7627177-2.53179191c.0520035-.15606937-.0173345-.31213873-.1560104-.39884393l-2.0974739-1.26589596c-.1560104-.06936416-.3293554-.10404624-.5027003-.06936416l-1.750784.46820809c-.1213415.03468208-.208014.12138729-.2426829.22543353l-.8147213 2.54913295c-.0173345.1734104.034669.34682081.1733449.43352601z"/><path d="m40.4879791 22.1849711.0277003-8.416185c0-2.3757225-.9117595-4.24855489-3.4252613-4.19653176-2.0281359.03468208-3.5747387 1.85549136-3.5747387 4.10982656v8.5028902h-3.983101v-13.16763006-1.4566474c0-.24277456.1560105-.45086705.3986934-.50289017l.9707317-.24277457 2.2881533-.52023121.069338 2.08092485c1.5947735-1.56069364 2.8255226-2.3583815 4.801655-2.3583815 3.6922474 0 6.4545296 2.77456647 6.4545296 7.69942196v8.4682081z"/><path d="m52.5181185 1.82080925v4.36416185h4.1602787l-.4742412 3.72268677c-.0173345.15606933-.1498006.27694703-.3058111.27694703h-3.3826655v5.0408286c0 1.4913295.3317945 3.398844 1.995906 3.433526.4333623.0173411.9360627-.1040462 1.3867595-.2601156.2600175-.1040462.5200349.0520232.6413764.3121388.0866724.2254335.3640243.7976878.5547038 1.1445086.5720383 1.0057804.8493902 1.3526012.8493902 1.3526012-1.1267421.6589595-2.3054878.9537572-3.6922474.9537572-3.7789198-.017341-5.7358885-3.0346821-5.7358885-6.9364162v-5.0408286h-3l-.0006968-3.9996338h3.0006968v-3.04624278c0-.24277456.2755227-.45086705.5008711-.50289017z"/><path d="m75.1847699 14.132948c0 4.5260115-3.0855401 8.1849711-8.1818816 8.1849711-5.0963414 0-8.1472125-3.6589596-8.1472125-8.1849711 0-4.4913295 3.120209-8.18497112 8.1125435-8.18497112 5.009669.01734104 8.2165506 3.71098266 8.2165506 8.18497112zm-12.2554878 0c0 2.3930636 1.2654181 4.7861271 4.0909407 4.7861271 2.8255227 0 4.0909408-2.3930635 4.0909408-4.7861271 0-2.3583815-1.4734321-4.82080927-4.0909408-4.82080927-2.8081881 0-4.0909407 2.47976877-4.0909407 4.82080927z"/><path d="m92.5156794 22.1849711v-9.2485549l-9.8182055 1.2485549c-.1213415.017341-.1817945.1213873-.1817945.2427746v7.7572254h-4v-22h4v10.150289l9.8474122-1.21162933c.1040069-.01734104.1525878-.15831285.1525878-.27970013v-8.65895954h4v22z"/><path d="m103.515679 7.64739884v6.84971096c0 2.3757226.456621 4.1445087 3.264809 4.1965318 1.785453.0346821 3.735191-1.8554913 3.735191-4.1098266v-5.6705202-1.64739885c0-.24277456.147736-.45086705.373084-.50289017l3.626916-.46820809v15.89017341h-3.470905c-.19068 0-.34669-.3179191-.34669-.5086705l-.069338-1.8034682c-1.438763 1.5953757-2.77352 2.3583815-4.957666 2.3583815-3.761585 0-6.136411-2.8265896-6.136411-7.699422v-5.47976878-.46820809c0-.24277457.1733449-.45086705.3986934-.50289017z"/><path d="m121.515679.1849711v8.05202312c1.005401-1.3699422 3.39669-2.28901734 5.043467-2.2716763 3.726917.03468208 7.852526 2.73988439 7.852526 8.15028898 0 5.1502891-3.484233 8.5838151-8.077874 8.2023122-1.820122-.1560694-3.709582-1.3005781-4.714983-2.5144509l-.086672 1.8381503c-.017335.1907514-.156011.5433526-.34669.5433526h-3.669774v-21.15838623c0-.24277457.170105-.44714356.478028-.47967529zm.380488 13.9132948c0 2.8265896 1.924129 4.7861272 4.368293 4.7861272 2.704181 0 4.194948-2.3930636 4.194948-4.8208093 0-2.4797688-1.716115-4.71676299-4.194948-4.71676299-2.444164 0-4.368293 2.02890169-4.368293 4.75144509z"/></g><g transform="translate(.006329 4)"><path d="m45.7804007 8.87861272c-5.4603659-2.2716763-10.054007-1.23121388-13.8329268.97109826 1.716115 3.43352602 2.2014808 7.40462432 4.1082752 10.00578032 2.5655053 3.4855492 7.3151568 6.3468208 10.9727352 6.2947977 2.9815331-.0346821 4.6109756-1.9768786 4.940331-2.5144508.0173345-.0173411.0173345-.0346821.034669-.0520232 0 0 0 0 0-.017341.3120209-.5549133.5373694-1.1445087.6587108-1.8034682.8840593-4.4739885-1.577439-10.6820809-6.8817944-12.88439308z" fill="#ffdb18"/><path d="m11.2674216 25.2312139c4.6283101-.5375723 8.0605401-2.0982659 13.9195993-8.566474 1.9934669-2.1849711 3.7442509-5.0462428 6.760453-6.81502892-1.924129-3.84971098-4.6109756-7.42196532-10.1060105-8.87861271-6.9684669-1.83815029-11.90879789-.83236995-16.67578396 3.43352601-3.32822299 2.98265896-4.52430313 6.45086702-4.83632404 7.80346822-.86672474 3.7803468.57203833 7.283237 1.87212544 9.5202312.20801393.3468208 2.86019163 4.2312139 9.06594076 3.5028902z" fill="#1ec4e9"/><path d="m37.2344948 29.566474c.069338 0 .1386759-.0173411.2253484-.0173411.1213415-.017341.2253484-.017341.3293554-.034682 2.1148084-.1907515 4.1429443-.4682081 5.9457317-.8843931.0866725-.017341.173345-.0346821.2600174-.0520231.0520035-.0173411.0866725-.0173411.138676-.0346821 2.0628049-.5028902 3.7269164-1.1965318 5.0616725-2.0809249.0173345-.017341.0520035-.034682.0693379-.0520231.0520035-.0346821.0866725-.0693641.138676-.1040462.034669-.0173411.0520035-.0346821.0866725-.0520231.069338-.0520232.1213414-.0867052.1906794-.1387284.7453833-.5549133 1.3694251-1.1791907 1.8374565-1.8034682.0173345-.017341.034669-.0346821.0520035-.0693641.0173344-.0173411.0173344-.0346821.0346689-.0520232.138676-.1907514.2600175-.3815028.3813589-.5895953-.3293554.5375722-1.681446 2.0635838-4.6629791 2.0982659-3.6575784.0520231-8.0778745-2.6878613-10.6433798-6.1907515-1.9067944-2.601156-2.9988676-6.2601156-4.7149825-9.6936416-2.9988676 1.7687861-5.4950349 4.265896-7.4885018 6.4682081-5.8590592 6.450867-8.8925958 7.9248555-13.5209059 8.4624277-6.20574913.7283237-8.54590593-2.7052023-8.75391986-3.034682 0 .017341.01733449.017341.01733449.034682.17334495.2947977 1.09207317 1.7341041 2.53083624 3.1040463.67604529.6242774 1.36942509 1.1445087 1.9934669 1.5606936 2.79085366 1.699422 6.65644603 3.3641619 20.59337983 3.433526 3.7789198.0346821 7.0551393-.0520231 9.8979965-.2774566z" fill="#00bc98"/></g></g></svg>