<svg height="40" viewBox="0 0 280 40" width="280" xmlns="http://www.w3.org/2000/svg"><g fill="none" fill-rule="evenodd" transform=""><path d="m211.24 29v-19.88h7.056c1.605341 0 3.009994.26133072 4.214.784 1.204006.5226693 2.211996 1.2319955 3.024 2.128s1.423331 1.945994 1.834 3.15.616 2.4873265.616 3.85c0 1.5120076-.228664 2.8793272-.686 4.102s-1.105996 2.2679957-1.946 3.136-1.857327 1.5399976-3.052 2.016-2.529326.714-4.004.714zm13.552-9.968c0-1.0453386-.144665-2.0066623-.434-2.884s-.713997-1.6286635-1.274-2.254-1.241329-1.1153316-2.044-1.47-1.717328-.532-2.744-.532h-3.92v14.336h3.92c1.045339 0 1.973996-.1819982 2.786-.546s1.493331-.8679968 2.044-1.512.965999-1.4046623 1.246-2.282.42-1.8293282.42-2.856zm12.684 10.248c-1.157339 0-2.197995-.2053313-3.122-.616s-1.712663-.9613299-2.366-1.652-1.157332-1.4979954-1.512-2.422-.532-1.889995-.532-2.898.177332-1.9739954.532-2.898.86333-1.7313299 1.526-2.422 1.455995-1.2413313 2.38-1.652 1.955328-.616 3.094-.616 2.169995.2053313 3.094.616 1.71733.9613299 2.38 1.652 1.171332 1.4979954 1.526 2.422.532 1.889995.532 2.898-.177332 1.9739954-.532 2.898-.86333 1.7313299-1.526 2.422-1.455995 1.2413313-2.38 1.652-1.955328.616-3.094.616zm-4.368-7.56c0 .7093369.111999 1.3626637.336 1.96s.531998 1.1153311.924 1.554.853997.7839987 1.386 1.036 1.105997.378 1.722.378 1.189997-.1259987 1.722-.378.993998-.6019978 1.386-1.05.699999-.9706637.924-1.568.336-1.2506631.336-1.96c0-.6906701-.111999-1.3393303-.336-1.946s-.531998-1.1339978-.924-1.582-.853997-.7979987-1.386-1.05-1.105997-.378-1.722-.378c-.597336 0-1.161997.1306654-1.694.392s-.993998.6159978-1.386 1.064-.704665.9753303-.938 1.582c-.233334.6066697-.35 1.2553299-.35 1.946zm13.692-.056c0-1.0266718.177332-1.9973288.532-2.912s.86333-1.7173299 1.526-2.408 1.460662-1.2366647 2.394-1.638 1.978661-.602 3.136-.602c1.512008 0 2.813995.33133 3.906.994s1.908664 1.5446612 2.45 2.646l-2.996.952c-.354668-.6160031-.830664-1.0966649-1.428-1.442s-1.259996-.518-1.988-.518c-.616003 0-1.189997.1213321-1.722.364s-.993998.5833311-1.386 1.022-.699999.9566637-.924 1.554-.336 1.2599964-.336 1.988c0 .7093369.116666 1.3673303.35 1.974.233335.6066697.550665 1.1339978.952 1.582s.867997.7979987 1.4 1.05 1.096664.378 1.694.378c.373335 0 .746665-.0513328 1.12-.154s.713998-.2473324 1.022-.434.578666-.4013321.812-.644c.233335-.2426679.405999-.5039986.518-.784l3.024.896c-.485336 1.1013388-1.297328 2.0019965-2.436 2.702s-2.482659 1.05-4.032 1.05c-1.138672 0-2.174662-.2053313-3.108-.616s-1.73133-.9659965-2.394-1.666-1.175998-1.5073288-1.54-2.422-.546-1.8853282-.546-2.912zm21.924 7.616c-1.176006 0-2.347327-.1913314-3.514-.574-1.166672-.3826686-2.169996-.9286631-3.01-1.638l1.232-1.96c.877338.6346698 1.745329 1.1153317 2.604 1.442s1.735996.49 2.632.49c.914671 0 1.637997-.1773316 2.17-.532s.798-.8586634.798-1.512c0-.6160031-.298664-1.0639986-.896-1.344s-1.53066-.5879983-2.8-.924c-.914671-.2426679-1.698663-.4759989-2.352-.7s-1.185331-.4853318-1.596-.784-.709332-.643998-.896-1.036-.28-.8679972-.28-1.428c0-.7466704.144665-1.4093304.434-1.988s.690664-1.0686647 1.204-1.47 1.11533-.7046656 1.806-.91 1.437329-.308 2.24-.308c1.101339 0 2.127995.1679983 3.08.504s1.80133.8213302 2.548 1.456l-1.316 1.848c-1.362673-1.0826721-2.809326-1.624-4.34-1.624-.784004 0-1.441997.1633317-1.974.49s-.798.8446631-.798 1.554c0 .2986682.055999.5506656.168.756s.293999.3826659.546.532.578665.2846661.98.406.900664.2566659 1.498.406c.989338.2426679 1.84333.4853321 2.562.728s1.311331.5273317 1.778.854.811999.7093311 1.036 1.148.336.9659969.336 1.582c0 1.400007-.527328 2.5059959-1.582 3.318s-2.487324 1.218-4.298 1.218z" fill="#a2b0bd"/><g fill="#fff" fill-rule="nonzero" transform="translate(63.484321 7.815029)"><path d="m9.66277417 10.3579447 10.70263673 11.439148c.1560104.1560693.0540833.3878784-.1539307.3878784h-4.97986l-8.06204061-8.7878418c-.09237671-.1307373-.28614807-.1243439-.37791443-.0263519l-2.27598572 2.2535001v6.5606936h-4v-22h4v9.21008301l9.58276366-9.21008301h5.0507729c.208014 0 .2905403.1752905.1345298.33135986z"/><path d="m22.5156794 9.29440713v12.89056397h4v-14.26011561l-3.5963745.84467982c-.2253484.05202312-.4036255.28209726-.4036255.52487182z"/><path d="m21.7320557 4.47398844 2.0281359 1.47398844c.1906795.10404624.4160279.13872832.6067074.05202312l1.7854529-.71098266c.104007-.03468208.173345-.12138728.208014-.22543352l.7627177-2.53179191c.0520035-.15606937-.0173345-.31213873-.1560104-.39884393l-2.0974739-1.26589596c-.1560104-.06936416-.3293554-.10404624-.5027003-.06936416l-1.750784.46820809c-.1213415.03468208-.208014.12138729-.2426829.22543353l-.8147213 2.54913295c-.0173345.1734104.034669.34682081.1733449.43352601z"/><path d="m40.4879791 22.1849711.0277003-8.416185c0-2.3757225-.9117595-4.24855489-3.4252613-4.19653176-2.0281359.03468208-3.5747387 1.85549136-3.5747387 4.10982656v8.5028902h-3.983101v-13.16763006-1.4566474c0-.24277456.1560105-.45086705.3986934-.50289017l.9707317-.24277457 2.2881533-.52023121.069338 2.08092485c1.5947735-1.56069364 2.8255226-2.3583815 4.801655-2.3583815 3.6922474 0 6.4545296 2.77456647 6.4545296 7.69942196v8.4682081z"/><path d="m52.5181185 1.82080925v4.36416185h4.1602787l-.4742412 3.72268677c-.0173345.15606933-.1498006.27694703-.3058111.27694703h-3.3826655v5.0408286c0 1.4913295.3317945 3.398844 1.995906 3.433526.4333623.0173411.9360627-.1040462 1.3867595-.2601156.2600175-.1040462.5200349.0520232.6413764.3121388.0866724.2254335.3640243.7976878.5547038 1.1445086.5720383 1.0057804.8493902 1.3526012.8493902 1.3526012-1.1267421.6589595-2.3054878.9537572-3.6922474.9537572-3.7789198-.017341-5.7358885-3.0346821-5.7358885-6.9364162v-5.0408286h-3l-.0006968-3.9996338h3.0006968v-3.04624278c0-.24277456.2755227-.45086705.5008711-.50289017z"/><path d="m75.1847699 14.132948c0 4.5260115-3.0855401 8.1849711-8.1818816 8.1849711-5.0963414 0-8.1472125-3.6589596-8.1472125-8.1849711 0-4.4913295 3.120209-8.18497112 8.1125435-8.18497112 5.009669.01734104 8.2165506 3.71098266 8.2165506 8.18497112zm-12.2554878 0c0 2.3930636 1.2654181 4.7861271 4.0909407 4.7861271 2.8255227 0 4.0909408-2.3930635 4.0909408-4.7861271 0-2.3583815-1.4734321-4.82080927-4.0909408-4.82080927-2.8081881 0-4.0909407 2.47976877-4.0909407 4.82080927z"/><path d="m92.5156794 22.1849711v-9.2485549l-9.8182055 1.2485549c-.1213415.017341-.1817945.1213873-.1817945.2427746v7.7572254h-4v-22h4v10.150289l9.8474122-1.21162933c.1040069-.01734104.1525878-.15831285.1525878-.27970013v-8.65895954h4v22z"/><path d="m103.515679 7.64739884v6.84971096c0 2.3757226.456621 4.1445087 3.264809 4.1965318 1.785453.0346821 3.735191-1.8554913 3.735191-4.1098266v-5.6705202-1.64739885c0-.24277456.147736-.45086705.373084-.50289017l3.626916-.46820809v15.89017341h-3.470905c-.19068 0-.34669-.3179191-.34669-.5086705l-.069338-1.8034682c-1.438763 1.5953757-2.77352 2.3583815-4.957666 2.3583815-3.761585 0-6.136411-2.8265896-6.136411-7.699422v-5.47976878-.46820809c0-.24277457.1733449-.45086705.3986934-.50289017z"/><path d="m121.515679.1849711v8.05202312c1.005401-1.3699422 3.39669-2.28901734 5.043467-2.2716763 3.726917.03468208 7.852526 2.73988439 7.852526 8.15028898 0 5.1502891-3.484233 8.5838151-8.077874 8.2023122-1.820122-.1560694-3.709582-1.3005781-4.714983-2.5144509l-.086672 1.8381503c-.017335.1907514-.156011.5433526-.34669.5433526h-3.669774v-21.15838623c0-.24277457.170105-.44714356.478028-.47967529zm.380488 13.9132948c0 2.8265896 1.924129 4.7861272 4.368293 4.7861272 2.704181 0 4.194948-2.3930636 4.194948-4.8208093 0-2.4797688-1.716115-4.71676299-4.194948-4.71676299-2.444164 0-4.368293 2.02890169-4.368293 4.75144509z"/></g><g transform="translate(.006329 4)"><path d="m45.7804007 8.87861272c-5.4603659-2.2716763-10.054007-1.23121388-13.8329268.97109826 1.716115 3.43352602 2.2014808 7.40462432 4.1082752 10.00578032 2.5655053 3.4855492 7.3151568 6.3468208 10.9727352 6.2947977 2.9815331-.0346821 4.6109756-1.9768786 4.940331-2.5144508.0173345-.0173411.0173345-.0346821.034669-.0520232 0 0 0 0 0-.017341.3120209-.5549133.5373694-1.1445087.6587108-1.8034682.8840593-4.4739885-1.577439-10.6820809-6.8817944-12.88439308z" fill="#ffdb18"/><path d="m11.2674216 25.2312139c4.6283101-.5375723 8.0605401-2.0982659 13.9195993-8.566474 1.9934669-2.1849711 3.7442509-5.0462428 6.760453-6.81502892-1.924129-3.84971098-4.6109756-7.42196532-10.1060105-8.87861271-6.9684669-1.83815029-11.90879789-.83236995-16.67578396 3.43352601-3.32822299 2.98265896-4.52430313 6.45086702-4.83632404 7.80346822-.86672474 3.7803468.57203833 7.283237 1.87212544 9.5202312.20801393.3468208 2.86019163 4.2312139 9.06594076 3.5028902z" fill="#1ec4e9"/><path d="m37.2344948 29.566474c.069338 0 .1386759-.0173411.2253484-.0173411.1213415-.017341.2253484-.017341.3293554-.034682 2.1148084-.1907515 4.1429443-.4682081 5.9457317-.8843931.0866725-.017341.173345-.0346821.2600174-.0520231.0520035-.0173411.0866725-.0173411.138676-.0346821 2.0628049-.5028902 3.7269164-1.1965318 5.0616725-2.0809249.0173345-.017341.0520035-.034682.0693379-.0520231.0520035-.0346821.0866725-.0693641.138676-.1040462.034669-.0173411.0520035-.0346821.0866725-.0520231.069338-.0520232.1213414-.0867052.1906794-.1387284.7453833-.5549133 1.3694251-1.1791907 1.8374565-1.8034682.0173345-.017341.034669-.0346821.0520035-.0693641.0173344-.0173411.0173344-.0346821.0346689-.0520232.138676-.1907514.2600175-.3815028.3813589-.5895953-.3293554.5375722-1.681446 2.0635838-4.6629791 2.0982659-3.6575784.0520231-8.0778745-2.6878613-10.6433798-6.1907515-1.9067944-2.601156-2.9988676-6.2601156-4.7149825-9.6936416-2.9988676 1.7687861-5.4950349 4.265896-7.4885018 6.4682081-5.8590592 6.450867-8.8925958 7.9248555-13.5209059 8.4624277-6.20574913.7283237-8.54590593-2.7052023-8.75391986-3.034682 0 .017341.01733449.017341.01733449.034682.17334495.2947977 1.09207317 1.7341041 2.53083624 3.1040463.67604529.6242774 1.36942509 1.1445087 1.9934669 1.5606936 2.79085366 1.699422 6.65644603 3.3641619 20.59337983 3.433526 3.7789198.0346821 7.0551393-.0520231 9.8979965-.2774566z" fill="#00bc98"/></g></g></svg>