<?xml version="1.0" encoding="UTF-8"?>
<svg width="275px" height="30px" viewBox="0 0 275 30" version="1.1" xmlns="http://www.w3.org/2000/svg" xmlns:xlink="http://www.w3.org/1999/xlink">
    <!-- Generator: Sketch 55.2 (78181) - https://sketchapp.com -->
    <title>kintohub-title-text</title>
    <desc>Created with Sketch.</desc>
    <g id="Page-1" stroke="none" stroke-width="1" fill="none" fill-rule="evenodd">
        <g id="kintohub-title-text">
            <g id="logo/full-color-horizontal">
                <g id="Wordmark" transform="translate(63.484321, 3.815029)" fill="#FFFFFF" fill-rule="nonzero">
                    <path d="M9.66277417,10.3579447 L20.3654109,21.7970927 C20.5214213,21.953162 20.4194942,22.1849711 20.2114802,22.1849711 L15.2316202,22.1849711 L7.16957959,13.3971293 C7.07720288,13.266392 6.88343152,13.2727854 6.79166516,13.3707774 L4.51567944,15.6242775 L4.51567944,22.1849711 L0.515679443,22.1849711 L0.515679443,0.184971098 L4.51567944,0.184971098 L4.51567944,9.39505411 L14.0984431,0.184971098 L19.149216,0.184971098 C19.35723,0.184971098 19.4397563,0.360261597 19.2837458,0.516330962 L9.66277417,10.3579447 Z" id="Shape"></path>
                    <path d="M22.5156794,9.29440713 L22.5156794,22.1849711 L26.5156794,22.1849711 L26.5156794,7.92485549 L22.9193049,8.76953531 C22.6939565,8.82155843 22.5156794,9.05163257 22.5156794,9.29440713 Z" id="Shape"></path>
                    <path d="M21.7320557,4.47398844 L23.7601916,5.94797688 C23.9508711,6.05202312 24.1762195,6.0867052 24.366899,6 L26.1523519,5.28901734 C26.2563589,5.25433526 26.3256969,5.16763006 26.3603659,5.06358382 L27.1230836,2.53179191 C27.1750871,2.37572254 27.1057491,2.21965318 26.9670732,2.13294798 L24.8695993,0.867052023 C24.7135889,0.797687861 24.5402439,0.76300578 24.366899,0.797687861 L22.616115,1.26589595 C22.4947735,1.30057803 22.408101,1.38728324 22.3734321,1.49132948 L21.5587108,4.04046243 C21.5413763,4.21387283 21.5933798,4.38728324 21.7320557,4.47398844 Z" id="Shape"></path>
                    <path d="M40.4879791,22.1849711 L40.5156794,13.7687861 C40.5156794,11.3930636 39.6039199,9.52023121 37.0904181,9.57225434 C35.0622822,9.60693642 33.5156794,11.4277457 33.5156794,13.6820809 L33.5156794,22.1849711 L29.5325784,22.1849711 L29.5325784,9.01734104 L29.5325784,7.56069364 C29.5325784,7.31791908 29.6885889,7.10982659 29.9312718,7.05780347 L30.9020035,6.8150289 L33.1901568,6.29479769 L33.2594948,8.37572254 C34.8542683,6.8150289 36.0850174,6.01734104 38.0611498,6.01734104 C41.7533972,6.01734104 44.5156794,8.79190751 44.5156794,13.716763 L44.5156794,22.1849711 L40.4879791,22.1849711 Z" id="Shape"></path>
                    <path d="M52.5156794,6.06061429 L58.5801956,5.02685216 C58.3495086,5.63504434 58.1800423,6.21434078 58.0717964,6.76474149 C57.9933347,7.16369839 57.9162783,7.57374106 57.8406275,7.99486949 C57.7883938,8.28534203 57.5588522,8.51143177 57.2676131,8.55920644 L52.5156794,9.33871038 L52.5156794,14.9679823 C52.5156794,16.4351796 52.82581,18.6916551 54.508758,18.7277267 C54.954811,18.7372551 55.4527226,18.6278491 55.9140178,18.4643356 C56.1855741,18.3682013 56.4439905,18.5181028 56.5559418,18.7767297 C56.6508989,18.9957119 56.9164984,19.5604373 57.1181508,19.9039687 C57.6936749,20.8841987 57.976619,21.2297719 57.976619,21.2297719 C56.8429154,21.8848467 55.6508711,22.1674646 54.2515679,22.1619317 C50.4354142,22.1465363 48.5156794,18.8079113 48.5156794,14.9679823 L48.5156794,10.0208809 L45.5156794,10.5325088 L45.5156794,7.25441274 L48.5156794,6.74278484 L48.5156794,3.11912654 C48.5156794,2.881428 48.8167523,2.67520707 49.055021,2.62126974 L52.5156794,1.8249711 L52.5156794,6.06061429 Z" id="Fill-5-Copy"></path>
                    <path d="M75.1847699,14.132948 C75.1847699,18.6589595 72.0992298,22.3179191 67.0028883,22.3179191 C61.9065469,22.3179191 58.8556758,18.6589595 58.8556758,14.132948 C58.8556758,9.6416185 61.9758848,5.94797688 66.9682193,5.94797688 C71.9778883,5.96531792 75.1847699,9.65895954 75.1847699,14.132948 Z M62.9292821,14.132948 C62.9292821,16.5260116 64.1947002,18.9190751 67.0202228,18.9190751 C69.8457455,18.9190751 71.1111636,16.5260116 71.1111636,14.132948 C71.1111636,11.7745665 69.6377315,9.31213873 67.0202228,9.31213873 C64.2120347,9.31213873 62.9292821,11.7919075 62.9292821,14.132948 Z" id="Shape"></path>
                    <path d="M92.5156794,22.1849711 L92.5156794,12.9364162 L82.6974739,14.1849711 C82.5761324,14.2023121 82.5156794,14.3063584 82.5156794,14.4277457 L82.5156794,22.1849711 L78.5156794,22.1849711 L78.5156794,0.184971098 L82.5156794,0.184971098 L82.5156794,10.3352601 L92.3630916,9.12363077 C92.4670985,9.10628973 92.5156794,8.96531792 92.5156794,8.84393064 L92.5156794,0.184971098 L96.5156794,0.184971098 L96.5156794,22.1849711 L92.5156794,22.1849711 Z" id="Shape"></path>
                    <path d="M103.515679,7.64739884 L103.515679,14.4971098 C103.515679,16.8728324 103.9723,18.6416185 106.780488,18.6936416 C108.565941,18.7283237 110.515679,16.8381503 110.515679,14.583815 L110.515679,8.9132948 L110.515679,7.26589595 C110.515679,7.02312139 110.663415,6.8150289 110.888763,6.76300578 L114.515679,6.29479769 L114.515679,22.1849711 L111.044774,22.1849711 C110.854094,22.1849711 110.698084,21.867052 110.698084,21.6763006 L110.628746,19.8728324 C109.189983,21.4682081 107.855226,22.2312139 105.67108,22.2312139 C101.909495,22.2312139 99.534669,19.4046243 99.534669,14.5317919 L99.534669,9.05202312 L99.534669,8.58381503 C99.534669,8.34104046 99.7080139,8.13294798 99.9333624,8.08092486 L103.515679,7.64739884 Z" id="Shape"></path>
                    <path d="M121.515679,0.184971098 L121.515679,8.23699422 C122.52108,6.86705202 124.912369,5.94797688 126.559146,5.96531792 C130.286063,6 134.411672,8.70520231 134.411672,14.1156069 C134.411672,19.265896 130.927439,22.699422 126.333798,22.3179191 C124.513676,22.1618497 122.624216,21.017341 121.618815,19.8034682 L121.532143,21.6416185 C121.514808,21.8323699 121.376132,22.1849711 121.185453,22.1849711 L117.515679,22.1849711 L117.515679,1.02658487 C117.515679,0.783810301 117.685784,0.579441313 117.993707,0.546909575 L121.515679,0.184971098 Z M121.896167,14.0982659 C121.896167,16.9248555 123.820296,18.8843931 126.26446,18.8843931 C128.968641,18.8843931 130.459408,16.4913295 130.459408,14.0635838 C130.459408,11.583815 128.743293,9.34682081 126.26446,9.34682081 C123.820296,9.34682081 121.896167,11.3757225 121.896167,14.0982659 Z" id="Shape"></path>
                </g>
                <g id="Mark">
                    <path d="M45.7804007,8.87861272 C40.3200348,6.60693642 35.7263937,7.64739884 31.9474739,9.84971098 C33.6635889,13.283237 34.1489547,17.2543353 36.0557491,19.8554913 C38.6212544,23.3410405 43.3709059,26.2023121 47.0284843,26.150289 C50.0100174,26.1156069 51.6394599,24.1734104 51.9688153,23.6358382 C51.9861498,23.6184971 51.9861498,23.6011561 52.0034843,23.583815 C52.0034843,23.583815 52.0034843,23.583815 52.0034843,23.566474 C52.3155052,23.0115607 52.5408537,22.4219653 52.6621951,21.7630058 C53.5462544,17.2890173 51.0847561,11.0809249 45.7804007,8.87861272 Z" id="Shape" fill="#1EC4E9"></path>
                    <path d="M11.2674216,25.2312139 C15.8957317,24.6936416 19.3279617,23.132948 25.1870209,16.6647399 C27.1804878,14.4797688 28.9312718,11.6184971 31.9474739,9.84971098 C30.0233449,6 27.3364983,2.42774566 21.8414634,0.971098266 C14.8729965,-0.867052023 9.93266551,0.138728324 5.16567944,4.40462428 C1.83745645,7.38728324 0.641376307,10.8554913 0.329355401,12.2080925 C-0.537369338,15.9884393 0.901393728,19.4913295 2.20148084,21.7283237 C2.40949477,22.0751445 5.06167247,25.9595376 11.2674216,25.2312139 Z" id="Shape" fill="#A295EE"></path>
                    <path d="M37.2344948,29.566474 C37.3038328,29.566474 37.3731707,29.5491329 37.4598432,29.5491329 C37.5811847,29.5317919 37.6851916,29.5317919 37.7891986,29.5144509 C39.904007,29.3236994 41.9321429,29.0462428 43.7349303,28.6300578 C43.8216028,28.6127168 43.9082753,28.5953757 43.9949477,28.5780347 C44.0469512,28.5606936 44.0816202,28.5606936 44.1336237,28.5433526 C46.1964286,28.0404624 47.8605401,27.3468208 49.1952962,26.4624277 C49.2126307,26.4450867 49.2472997,26.4277457 49.2646341,26.4104046 C49.3166376,26.3757225 49.3513066,26.3410405 49.4033101,26.3063584 C49.4379791,26.2890173 49.4553136,26.2716763 49.4899826,26.2543353 C49.5593206,26.2023121 49.611324,26.1676301 49.680662,26.1156069 C49.680662,26.1156069 49.680662,26.1156069 49.680662,26.1156069 C50.4260453,25.5606936 51.0500871,24.9364162 51.5181185,24.3121387 C51.535453,24.2947977 51.5527875,24.2774566 51.570122,24.2427746 C51.5874564,24.2254335 51.5874564,24.2080925 51.6047909,24.1907514 C51.7434669,24 51.8648084,23.8092486 51.9861498,23.6011561 C51.6567944,24.1387283 50.3047038,25.6647399 47.3231707,25.699422 C43.6655923,25.7514451 39.2452962,23.0115607 36.6797909,19.5086705 C34.7729965,16.9075145 33.6809233,13.2485549 31.9648084,9.8150289 C28.9659408,11.583815 26.4697735,14.0809249 24.4763066,16.283237 C18.6172474,22.734104 15.5837108,24.2080925 10.9554007,24.7456647 C4.74965157,25.4739884 2.40949477,22.0404624 2.20148084,21.7109827 C2.20148084,21.7283237 2.21881533,21.7283237 2.21881533,21.7456647 C2.39216028,22.0404624 3.3108885,23.4797688 4.74965157,24.849711 C5.42569686,25.4739884 6.11907666,25.9942197 6.74311847,26.4104046 C9.53397213,28.1098266 13.3995645,29.7745665 27.3364983,29.8439306 C31.1154181,29.8786127 34.3916376,29.7919075 37.2344948,29.566474 Z" id="Shape" fill="#7A68E8"></path>
                </g>
            </g>
            <path d="M211.24,25 L211.24,5.12 L218.296,5.12 C219.901341,5.12 221.305994,5.38133072 222.51,5.904 C223.714006,6.4266693 224.721996,7.1359955 225.534,8.032 C226.346004,8.9280045 226.957331,9.977994 227.368,11.182 C227.778669,12.386006 227.984,13.6693265 227.984,15.032 C227.984,16.5440076 227.755336,17.9113272 227.298,19.134 C226.840664,20.3566728 226.192004,21.4019957 225.352,22.27 C224.511996,23.1380043 223.494673,23.8099976 222.3,24.286 C221.105327,24.7620024 219.770674,25 218.296,25 L211.24,25 Z M224.792,15.032 C224.792,13.9866614 224.647335,13.0253377 224.358,12.148 C224.068665,11.2706623 223.644003,10.5193365 223.084,9.894 C222.523997,9.2686635 221.842671,8.7786684 221.04,8.424 C220.237329,8.0693316 219.322672,7.892 218.296,7.892 L214.376,7.892 L214.376,22.228 L218.296,22.228 C219.341339,22.228 220.269996,22.0460018 221.082,21.682 C221.894004,21.3179982 222.575331,20.8140032 223.126,20.17 C223.676669,19.5259968 224.091999,18.7653377 224.372,17.888 C224.652001,17.0106623 224.792,16.0586718 224.792,15.032 L224.792,15.032 Z M237.476,25.28 C236.318661,25.28 235.278005,25.0746687 234.354,24.664 C233.429995,24.2533313 232.641337,23.7026701 231.988,23.012 C231.334663,22.3213299 230.830668,21.5140046 230.476,20.59 C230.121332,19.6659954 229.944,18.700005 229.944,17.692 C229.944,16.683995 230.121332,15.7180046 230.476,14.794 C230.830668,13.8699954 231.33933,13.0626701 232.002,12.372 C232.66467,11.6813299 233.457995,11.1306687 234.382,10.72 C235.306005,10.3093313 236.337328,10.104 237.476,10.104 C238.614672,10.104 239.645995,10.3093313 240.57,10.72 C241.494005,11.1306687 242.28733,11.6813299 242.95,12.372 C243.61267,13.0626701 244.121332,13.8699954 244.476,14.794 C244.830668,15.7180046 245.008,16.683995 245.008,17.692 C245.008,18.700005 244.830668,19.6659954 244.476,20.59 C244.121332,21.5140046 243.61267,22.3213299 242.95,23.012 C242.28733,23.7026701 241.494005,24.2533313 240.57,24.664 C239.645995,25.0746687 238.614672,25.28 237.476,25.28 L237.476,25.28 Z M233.108,17.72 C233.108,18.4293369 233.219999,19.0826637 233.444,19.68 C233.668001,20.2773363 233.975998,20.7953311 234.368,21.234 C234.760002,21.6726689 235.221997,22.0179987 235.754,22.27 C236.286003,22.5220013 236.859997,22.648 237.476,22.648 C238.092003,22.648 238.665997,22.5220013 239.198,22.27 C239.730003,22.0179987 240.191998,21.6680022 240.584,21.22 C240.976002,20.7719978 241.283999,20.2493363 241.508,19.652 C241.732001,19.0546637 241.844,18.4013369 241.844,17.692 C241.844,17.0013299 241.732001,16.3526697 241.508,15.746 C241.283999,15.1393303 240.976002,14.6120022 240.584,14.164 C240.191998,13.7159978 239.730003,13.3660013 239.198,13.114 C238.665997,12.8619987 238.092003,12.736 237.476,12.736 C236.878664,12.736 236.314003,12.8666654 235.782,13.128 C235.249997,13.3893346 234.788002,13.7439978 234.396,14.192 C234.003998,14.6400022 233.691335,15.1673303 233.458,15.774 C233.224666,16.3806697 233.108,17.0293299 233.108,17.72 L233.108,17.72 Z M246.8,17.664 C246.8,16.6373282 246.977332,15.6666712 247.332,14.752 C247.686668,13.8373288 248.19533,13.0346701 248.858,12.344 C249.52067,11.6533299 250.318662,11.1073353 251.252,10.706 C252.185338,10.3046647 253.230661,10.104 254.388,10.104 C255.900008,10.104 257.201995,10.43533 258.294,11.098 C259.386005,11.76067 260.202664,12.6426612 260.744,13.744 L257.748,14.696 C257.393332,14.0799969 256.917336,13.5993351 256.32,13.254 C255.722664,12.9086649 255.060004,12.736 254.332,12.736 C253.715997,12.736 253.142003,12.8573321 252.61,13.1 C252.077997,13.3426679 251.616002,13.6833311 251.224,14.122 C250.831998,14.5606689 250.524001,15.0786637 250.3,15.676 C250.075999,16.2733363 249.964,16.9359964 249.964,17.664 C249.964,18.3733369 250.080666,19.0313303 250.314,19.638 C250.547335,20.2446697 250.864665,20.7719978 251.266,21.22 C251.667335,21.6680022 252.133997,22.0179987 252.666,22.27 C253.198003,22.5220013 253.762664,22.648 254.36,22.648 C254.733335,22.648 255.106665,22.5966672 255.48,22.494 C255.853335,22.3913328 256.193998,22.2466676 256.502,22.06 C256.810002,21.8733324 257.080666,21.6586679 257.314,21.416 C257.547335,21.1733321 257.719999,20.9120014 257.832,20.632 L260.856,21.528 C260.370664,22.6293388 259.558672,23.5299965 258.42,24.23 C257.281328,24.9300035 255.937341,25.28 254.388,25.28 C253.249328,25.28 252.213338,25.0746687 251.28,24.664 C250.346662,24.2533313 249.54867,23.6980035 248.886,22.998 C248.22333,22.2979965 247.710002,21.4906712 247.346,20.576 C246.981998,19.6613288 246.8,18.6906718 246.8,17.664 L246.8,17.664 Z M268.724,25.28 C267.547994,25.28 266.376673,25.0886686 265.21,24.706 C264.043328,24.3233314 263.040004,23.7773369 262.2,23.068 L263.432,21.108 C264.309338,21.7426698 265.177329,22.2233317 266.036,22.55 C266.894671,22.8766683 267.771996,23.04 268.668,23.04 C269.582671,23.04 270.305997,22.8626684 270.838,22.508 C271.370003,22.1533316 271.636,21.6493366 271.636,20.996 C271.636,20.3799969 271.337336,19.9320014 270.74,19.652 C270.142664,19.3719986 269.20934,19.0640017 267.94,18.728 C267.025329,18.4853321 266.241337,18.2520011 265.588,18.028 C264.934663,17.8039989 264.402669,17.5426682 263.992,17.244 C263.581331,16.9453318 263.282668,16.600002 263.096,16.208 C262.909332,15.815998 262.816,15.3400028 262.816,14.78 C262.816,14.0333296 262.960665,13.3706696 263.25,12.792 C263.539335,12.2133304 263.940664,11.7233353 264.454,11.322 C264.967336,10.9206647 265.56933,10.6173344 266.26,10.412 C266.95067,10.2066656 267.697329,10.104 268.5,10.104 C269.601339,10.104 270.627995,10.2719983 271.58,10.608 C272.532005,10.9440017 273.38133,11.4293302 274.128,12.064 L272.812,13.912 C271.449327,12.8293279 270.002674,12.288 268.472,12.288 C267.687996,12.288 267.030003,12.4513317 266.498,12.778 C265.965997,13.1046683 265.7,13.6226631 265.7,14.332 C265.7,14.6306682 265.755999,14.8826656 265.868,15.088 C265.980001,15.2933344 266.161999,15.4706659 266.414,15.62 C266.666001,15.7693341 266.992665,15.9046661 267.394,16.026 C267.795335,16.1473339 268.294664,16.2826659 268.892,16.432 C269.881338,16.6746679 270.73533,16.9173321 271.454,17.16 C272.17267,17.4026679 272.765331,17.6873317 273.232,18.014 C273.698669,18.3406683 274.043999,18.7233311 274.268,19.162 C274.492001,19.6006689 274.604,20.1279969 274.604,20.744 C274.604,22.144007 274.076672,23.2499959 273.022,24.062 C271.967328,24.8740041 270.534676,25.28 268.724,25.28 L268.724,25.28 Z" id="Shape" fill="#A2B0BD" fill-rule="nonzero"></path>
        </g>
    </g>
</svg>