<svg height="30" viewBox="0 0 54 30" width="54" xmlns="http://www.w3.org/2000/svg"><g fill="none" fill-rule="evenodd"><path d="m45.7804007 8.87861272c-5.4603659-2.2716763-10.054007-1.23121388-13.8329268.97109826 1.716115 3.43352602 2.2014808 7.40462432 4.1082752 10.00578032 2.5655053 3.4855492 7.3151568 6.3468208 10.9727352 6.2947977 2.9815331-.0346821 4.6109756-1.9768786 4.940331-2.5144508.0173345-.0173411.0173345-.0346821.034669-.0520232 0 0 0 0 0-.017341.3120209-.5549133.5373694-1.1445087.6587108-1.8034682.8840593-4.4739885-1.577439-10.6820809-6.8817944-12.88439308z" fill="#1ec4e9"/><path d="m11.2674216 25.2312139c4.6283101-.5375723 8.0605401-2.0982659 13.9195993-8.566474 1.9934669-2.1849711 3.7442509-5.0462428 6.760453-6.81502892-1.924129-3.84971098-4.6109756-7.42196532-10.1060105-8.87861271-6.9684669-1.83815029-11.90879789-.83236995-16.67578396 3.43352601-3.32822299 2.98265896-4.52430313 6.45086702-4.83632404 7.80346822-.86672474 3.7803468.57203833 7.283237 1.87212544 9.5202312.20801393.3468208 2.86019163 4.2312139 9.06594076 3.5028902z" fill="#a295ee"/><path d="m37.2344948 29.566474c.069338 0 .1386759-.0173411.2253484-.0173411.1213415-.017341.2253484-.017341.3293554-.034682 2.1148084-.1907515 4.1429443-.4682081 5.9457317-.8843931.0866725-.017341.173345-.0346821.2600174-.0520231.0520035-.0173411.0866725-.0173411.138676-.0346821 2.0628049-.5028902 3.7269164-1.1965318 5.0616725-2.0809249.0173345-.017341.0520035-.034682.0693379-.0520231.0520035-.0346821.0866725-.0693641.138676-.1040462.034669-.0173411.0520035-.0346821.0866725-.0520231.069338-.0520232.1213414-.0867052.1906794-.1387284.7453833-.5549133 1.3694251-1.1791907 1.8374565-1.8034682.0173345-.017341.034669-.0346821.0520035-.0693641.0173344-.0173411.0173344-.0346821.0346689-.0520232.138676-.1907514.2600175-.3815028.3813589-.5895953-.3293554.5375722-1.681446 2.0635838-4.6629791 2.0982659-3.6575784.0520231-8.0778745-2.6878613-10.6433798-6.1907515-1.9067944-2.601156-2.9988676-6.2601156-4.7149825-9.6936416-2.9988676 1.7687861-5.4950349 4.265896-7.4885018 6.4682081-5.8590592 6.450867-8.8925958 7.9248555-13.5209059 8.4624277-6.20574913.7283237-8.54590593-2.7052023-8.75391986-3.034682 0 .017341.01733449.017341.01733449.034682.17334495.2947977 1.09207317 1.7341041 2.53083624 3.1040463.67604529.6242774 1.36942509 1.1445087 1.9934669 1.5606936 2.79085366 1.699422 6.65644603 3.3641619 20.59337983 3.433526 3.7789198.0346821 7.0551393-.0520231 9.8979965-.2774566z" fill="#7a68e8"/></g></svg>