<?xml version="1.0" encoding="UTF-8"?>
<svg width="200px" height="30px" viewBox="0 0 200 30" version="1.1" xmlns="http://www.w3.org/2000/svg" xmlns:xlink="http://www.w3.org/1999/xlink">
    <!-- Generator: Sketch 46.2 (44496) - http://www.bohemiancoding.com/sketch -->
    <title>logo/logo-full-color-horizontal</title>
    <desc>Created with Sketch.</desc>
    <defs></defs>
    <g id="Symbols" stroke="none" stroke-width="1" fill="none" fill-rule="evenodd">
        <g id="logo/logo-full-color-horizontal">
            <g id="logo/full-color-horizontal">
                <g id="Wordmark" transform="translate(63.484321, 3.815029)" fill-rule="nonzero" fill="#083A45">
                    <path d="M9.66277417,10.3579447 L20.3654109,21.7970927 C20.5214213,21.953162 20.4194942,22.1849711 20.2114802,22.1849711 L15.2316202,22.1849711 L7.16957959,13.3971293 C7.07720288,13.266392 6.88343152,13.2727854 6.79166516,13.3707774 L4.51567944,15.6242775 L4.51567944,22.1849711 L0.515679443,22.1849711 L0.515679443,0.184971098 L4.51567944,0.184971098 L4.51567944,9.39505411 L14.0984431,0.184971098 L19.149216,0.184971098 C19.35723,0.184971098 19.4397563,0.360261597 19.2837458,0.516330962 L9.66277417,10.3579447 Z" id="Shape"></path>
                    <path d="M22.5156794,9.29440713 L22.5156794,22.1849711 L26.5156794,22.1849711 L26.5156794,7.92485549 L22.9193049,8.76953531 C22.6939565,8.82155843 22.5156794,9.05163257 22.5156794,9.29440713 Z" id="Shape"></path>
                    <path d="M21.7320557,4.47398844 L23.7601916,5.94797688 C23.9508711,6.05202312 24.1762195,6.0867052 24.366899,6 L26.1523519,5.28901734 C26.2563589,5.25433526 26.3256969,5.16763006 26.3603659,5.06358382 L27.1230836,2.53179191 C27.1750871,2.37572254 27.1057491,2.21965318 26.9670732,2.13294798 L24.8695993,0.867052023 C24.7135889,0.797687861 24.5402439,0.76300578 24.366899,0.797687861 L22.616115,1.26589595 C22.4947735,1.30057803 22.408101,1.38728324 22.3734321,1.49132948 L21.5587108,4.04046243 C21.5413763,4.21387283 21.5933798,4.38728324 21.7320557,4.47398844 Z" id="Shape"></path>
                    <path d="M40.4879791,22.1849711 L40.5156794,13.7687861 C40.5156794,11.3930636 39.6039199,9.52023121 37.0904181,9.57225434 C35.0622822,9.60693642 33.5156794,11.4277457 33.5156794,13.6820809 L33.5156794,22.1849711 L29.5325784,22.1849711 L29.5325784,9.01734104 L29.5325784,7.56069364 C29.5325784,7.31791908 29.6885889,7.10982659 29.9312718,7.05780347 L30.9020035,6.8150289 L33.1901568,6.29479769 L33.2594948,8.37572254 C34.8542683,6.8150289 36.0850174,6.01734104 38.0611498,6.01734104 C41.7533972,6.01734104 44.5156794,8.79190751 44.5156794,13.716763 L44.5156794,22.1849711 L40.4879791,22.1849711 Z" id="Shape"></path>
                    <path d="M52.5181185,1.82080925 L52.5181185,6.1849711 L56.6783972,6.1849711 L56.204156,9.90765787 C56.1868215,10.0637272 56.0543554,10.1846049 55.8983449,10.1846049 L52.5156794,10.1846049 L52.5156794,15.2254335 C52.5156794,16.716763 52.8474739,18.6242775 54.5115854,18.6589595 C54.9449477,18.6763006 55.4476481,18.5549133 55.8983449,18.3988439 C56.1583624,18.2947977 56.4183798,18.4508671 56.5397213,18.7109827 C56.6263937,18.9364162 56.9037456,19.5086705 57.0944251,19.8554913 C57.6664634,20.8612717 57.9438153,21.2080925 57.9438153,21.2080925 C56.8170732,21.867052 55.6383275,22.1618497 54.2515679,22.1618497 C50.4726481,22.1445087 48.5156794,19.1271676 48.5156794,15.2254335 L48.5156794,10.1846049 L45.5156794,10.1846049 L45.5149826,6.1849711 L48.5156794,6.1849711 L48.5156794,3.13872832 C48.5156794,2.89595376 48.7912021,2.68786127 49.0165505,2.63583815 L52.5181185,1.82080925 Z" id="Shape"></path>
                    <path d="M75.1847699,14.132948 C75.1847699,18.6589595 72.0992298,22.3179191 67.0028883,22.3179191 C61.9065469,22.3179191 58.8556758,18.6589595 58.8556758,14.132948 C58.8556758,9.6416185 61.9758848,5.94797688 66.9682193,5.94797688 C71.9778883,5.96531792 75.1847699,9.65895954 75.1847699,14.132948 Z M62.9292821,14.132948 C62.9292821,16.5260116 64.1947002,18.9190751 67.0202228,18.9190751 C69.8457455,18.9190751 71.1111636,16.5260116 71.1111636,14.132948 C71.1111636,11.7745665 69.6377315,9.31213873 67.0202228,9.31213873 C64.2120347,9.31213873 62.9292821,11.7919075 62.9292821,14.132948 Z" id="Shape"></path>
                    <path d="M92.5156794,22.1849711 L92.5156794,12.9364162 L82.6974739,14.1849711 C82.5761324,14.2023121 82.5156794,14.3063584 82.5156794,14.4277457 L82.5156794,22.1849711 L78.5156794,22.1849711 L78.5156794,0.184971098 L82.5156794,0.184971098 L82.5156794,10.3352601 L92.3630916,9.12363077 C92.4670985,9.10628973 92.5156794,8.96531792 92.5156794,8.84393064 L92.5156794,0.184971098 L96.5156794,0.184971098 L96.5156794,22.1849711 L92.5156794,22.1849711 Z" id="Shape"></path>
                    <path d="M103.515679,7.64739884 L103.515679,14.4971098 C103.515679,16.8728324 103.9723,18.6416185 106.780488,18.6936416 C108.565941,18.7283237 110.515679,16.8381503 110.515679,14.583815 L110.515679,8.9132948 L110.515679,7.26589595 C110.515679,7.02312139 110.663415,6.8150289 110.888763,6.76300578 L114.515679,6.29479769 L114.515679,22.1849711 L111.044774,22.1849711 C110.854094,22.1849711 110.698084,21.867052 110.698084,21.6763006 L110.628746,19.8728324 C109.189983,21.4682081 107.855226,22.2312139 105.67108,22.2312139 C101.909495,22.2312139 99.534669,19.4046243 99.534669,14.5317919 L99.534669,9.05202312 L99.534669,8.58381503 C99.534669,8.34104046 99.7080139,8.13294798 99.9333624,8.08092486 L103.515679,7.64739884 Z" id="Shape"></path>
                    <path d="M121.515679,0.184971098 L121.515679,8.23699422 C122.52108,6.86705202 124.912369,5.94797688 126.559146,5.96531792 C130.286063,6 134.411672,8.70520231 134.411672,14.1156069 C134.411672,19.265896 130.927439,22.699422 126.333798,22.3179191 C124.513676,22.1618497 122.624216,21.017341 121.618815,19.8034682 L121.532143,21.6416185 C121.514808,21.8323699 121.376132,22.1849711 121.185453,22.1849711 L117.515679,22.1849711 L117.515679,1.02658487 C117.515679,0.783810301 117.685784,0.579441313 117.993707,0.546909575 L121.515679,0.184971098 Z M121.896167,14.0982659 C121.896167,16.9248555 123.820296,18.8843931 126.26446,18.8843931 C128.968641,18.8843931 130.459408,16.4913295 130.459408,14.0635838 C130.459408,11.583815 128.743293,9.34682081 126.26446,9.34682081 C123.820296,9.34682081 121.896167,11.3757225 121.896167,14.0982659 Z" id="Shape"></path>
                </g>
                <g id="Mark">
                    <path d="M45.7804007,8.87861272 C40.3200348,6.60693642 35.7263937,7.64739884 31.9474739,9.84971098 C33.6635889,13.283237 34.1489547,17.2543353 36.0557491,19.8554913 C38.6212544,23.3410405 43.3709059,26.2023121 47.0284843,26.150289 C50.0100174,26.1156069 51.6394599,24.1734104 51.9688153,23.6358382 C51.9861498,23.6184971 51.9861498,23.6011561 52.0034843,23.583815 C52.0034843,23.583815 52.0034843,23.583815 52.0034843,23.566474 C52.3155052,23.0115607 52.5408537,22.4219653 52.6621951,21.7630058 C53.5462544,17.2890173 51.0847561,11.0809249 45.7804007,8.87861272 Z" id="Shape" fill="#FFDB18"></path>
                    <path d="M11.2674216,25.2312139 C15.8957317,24.6936416 19.3279617,23.132948 25.1870209,16.6647399 C27.1804878,14.4797688 28.9312718,11.6184971 31.9474739,9.84971098 C30.0233449,6 27.3364983,2.42774566 21.8414634,0.971098266 C14.8729965,-0.867052023 9.93266551,0.138728324 5.16567944,4.40462428 C1.83745645,7.38728324 0.641376307,10.8554913 0.329355401,12.2080925 C-0.537369338,15.9884393 0.901393728,19.4913295 2.20148084,21.7283237 C2.40949477,22.0751445 5.06167247,25.9595376 11.2674216,25.2312139 Z" id="Shape" fill="#1EC4E9"></path>
                    <path d="M37.2344948,29.566474 C37.3038328,29.566474 37.3731707,29.5491329 37.4598432,29.5491329 C37.5811847,29.5317919 37.6851916,29.5317919 37.7891986,29.5144509 C39.904007,29.3236994 41.9321429,29.0462428 43.7349303,28.6300578 C43.8216028,28.6127168 43.9082753,28.5953757 43.9949477,28.5780347 C44.0469512,28.5606936 44.0816202,28.5606936 44.1336237,28.5433526 C46.1964286,28.0404624 47.8605401,27.3468208 49.1952962,26.4624277 C49.2126307,26.4450867 49.2472997,26.4277457 49.2646341,26.4104046 C49.3166376,26.3757225 49.3513066,26.3410405 49.4033101,26.3063584 C49.4379791,26.2890173 49.4553136,26.2716763 49.4899826,26.2543353 C49.5593206,26.2023121 49.611324,26.1676301 49.680662,26.1156069 C49.680662,26.1156069 49.680662,26.1156069 49.680662,26.1156069 C50.4260453,25.5606936 51.0500871,24.9364162 51.5181185,24.3121387 C51.535453,24.2947977 51.5527875,24.2774566 51.570122,24.2427746 C51.5874564,24.2254335 51.5874564,24.2080925 51.6047909,24.1907514 C51.7434669,24 51.8648084,23.8092486 51.9861498,23.6011561 C51.6567944,24.1387283 50.3047038,25.6647399 47.3231707,25.699422 C43.6655923,25.7514451 39.2452962,23.0115607 36.6797909,19.5086705 C34.7729965,16.9075145 33.6809233,13.2485549 31.9648084,9.8150289 C28.9659408,11.583815 26.4697735,14.0809249 24.4763066,16.283237 C18.6172474,22.734104 15.5837108,24.2080925 10.9554007,24.7456647 C4.74965157,25.4739884 2.40949477,22.0404624 2.20148084,21.7109827 C2.20148084,21.7283237 2.21881533,21.7283237 2.21881533,21.7456647 C2.39216028,22.0404624 3.3108885,23.4797688 4.74965157,24.849711 C5.42569686,25.4739884 6.11907666,25.9942197 6.74311847,26.4104046 C9.53397213,28.1098266 13.3995645,29.7745665 27.3364983,29.8439306 C31.1154181,29.8786127 34.3916376,29.7919075 37.2344948,29.566474 Z" id="Shape" fill="#00BC98"></path>
                </g>
            </g>
        </g>
    </g>
</svg>