<?xml version="1.0" encoding="UTF-8"?>
<svg width="650px" height="150px" viewBox="50 75 650 150" version="1.1" xmlns="http://www.w3.org/2000/svg" xmlns:xlink="http://www.w3.org/1999/xlink">
    <!-- Generator: Sketch 52.2 (67145) - http://www.bohemiancoding.com/sketch -->
    <title>popup-basics</title>
    <desc>Created with Sketch.</desc>
    <defs>
        <path d="M37.1917626,1.37457621 L67.1917626,18.6159555 C68.681528,19.4721425 69.6,21.0593509 69.6,22.7776225 L69.6,57.2223775 C69.6,58.9406491 68.681528,60.5278575 67.1917626,61.3840445 L37.1917626,78.6254238 C35.7108299,79.4765345 33.8891701,79.4765345 32.4082374,78.6254238 L2.4082374,61.3840445 C0.918471998,60.5278575 4.85606403e-14,58.9406491 4.83502127e-14,57.2223775 L5.1014748e-14,22.7776225 C5.08043204e-14,21.0593509 0.918471998,19.4721425 2.4082374,18.6159555 L32.4082374,1.37457621 C33.8891701,0.523465451 35.7108299,0.523465451 37.1917626,1.37457621 Z" id="path-1"></path>
        <linearGradient x1="100%" y1="131.88326%" x2="100%" y2="0%" id="linearGradient-3">
            <stop stop-color="#007089" stop-opacity="0" offset="0%"></stop>
            <stop stop-color="#006E87" offset="100%"></stop>
        </linearGradient>
        <linearGradient x1="100%" y1="50%" x2="50%" y2="0%" id="linearGradient-4">
            <stop stop-color="#0C4E5D" offset="0%"></stop>
            <stop stop-color="#0C4E5D" stop-opacity="0" offset="100%"></stop>
        </linearGradient>
        <linearGradient x1="50%" y1="2.18783454%" x2="50%" y2="98.0149872%" id="linearGradient-5">
            <stop stop-color="#5CF9DB" stop-opacity="0.595476676" offset="0%"></stop>
            <stop stop-color="#65FFE2" offset="100%"></stop>
        </linearGradient>
        <path d="M18.296911,0.515466078 L33.896911,9.48098332 C34.455573,9.80205345 34.8,10.3972566 34.8,11.0416084 L34.8,28.9583916 C34.8,29.6027434 34.455573,30.1979466 33.896911,30.5190167 L18.296911,39.4845339 C17.7415612,39.8037005 17.0584388,39.8037005 16.503089,39.4845339 L0.903089023,30.5190167 C0.344426999,30.1979466 5.49027924e-14,29.6027434 5.36792832e-14,28.9583916 L5.25690602e-14,11.0416084 C5.19178505e-14,10.3972566 0.344426999,9.80205345 0.903089023,9.48098332 L16.503089,0.515466078 C17.0584388,0.196299544 17.7415612,0.196299544 18.296911,0.515466078 Z" id="path-6"></path>
        <linearGradient x1="100%" y1="131.88326%" x2="100%" y2="0%" id="linearGradient-8">
            <stop stop-color="#A21414" stop-opacity="0" offset="0%"></stop>
            <stop stop-color="#A21414" offset="100%"></stop>
        </linearGradient>
        <linearGradient x1="50%" y1="2.18783454%" x2="50%" y2="98.0149872%" id="linearGradient-9">
            <stop stop-color="#FFF4B8" stop-opacity="0.763332201" offset="0%"></stop>
            <stop stop-color="#FFF4B8" offset="100%"></stop>
        </linearGradient>
        <rect id="path-10" x="0" y="0" width="66" height="66" rx="3"></rect>
        <filter x="-5.3%" y="-3.8%" width="110.6%" height="110.6%" filterUnits="objectBoundingBox" id="filter-11">
            <feMorphology radius="0.5" operator="dilate" in="SourceAlpha" result="shadowSpreadOuter1"></feMorphology>
            <feOffset dx="0" dy="1" in="shadowSpreadOuter1" result="shadowOffsetOuter1"></feOffset>
            <feGaussianBlur stdDeviation="0.5" in="shadowOffsetOuter1" result="shadowBlurOuter1"></feGaussianBlur>
            <feColorMatrix values="0 0 0 0 0.25869511   0 0 0 0 0.461476445   0 0 0 0 0.570764243  0 0 0 0.198567708 0" type="matrix" in="shadowBlurOuter1"></feColorMatrix>
        </filter>
        <linearGradient x1="50%" y1="0%" x2="50%" y2="100%" id="linearGradient-12">
            <stop stop-color="#63E3F1" offset="0%"></stop>
            <stop stop-color="#1EC4E9" offset="100%"></stop>
        </linearGradient>
        <linearGradient x1="50%" y1="0%" x2="50%" y2="100%" id="linearGradient-13">
            <stop stop-color="#8AE6EE" offset="0%"></stop>
            <stop stop-color="#47D3E6" offset="100%"></stop>
        </linearGradient>
        <path d="M7.43835252,0.274915242 L13.4383525,3.7231911 C13.7363056,3.89442851 13.92,4.21187018 13.92,4.55552449 L13.92,11.4444755 C13.92,11.7881298 13.7363056,12.1055715 13.4383525,12.2768089 L7.43835252,15.7250848 C7.14216598,15.8953069 6.77783402,15.8953069 6.48164748,15.7250848 L0.481647479,12.2768089 C0.1836944,12.1055715 5.54423844e-14,11.7881298 5.60107516e-14,11.4444755 L5.54556401e-14,4.55552449 C5.54135546e-14,4.21187018 0.1836944,3.89442851 0.481647479,3.7231911 L6.48164748,0.274915242 C6.77783402,0.10469309 7.14216598,0.10469309 7.43835252,0.274915242 Z" id="path-14"></path>
        <path d="M7.67752878,0.412372863 L13.1975288,3.58478666 C13.6444584,3.84164276 13.92,4.31780527 13.92,4.83328674 L13.92,11.1667133 C13.92,11.6821947 13.6444584,12.1583572 13.1975288,12.4152133 L7.67752878,15.5876271 C7.23324897,15.8429604 6.68675103,15.8429604 6.24247122,15.5876271 L0.722471219,12.4152133 C0.275541599,12.1583572 5.66289914e-14,11.6821947 5.65658631e-14,11.1667133 L5.56776847e-14,4.83328674 C5.53856367e-14,4.31780527 0.275541599,3.84164276 0.722471219,3.58478666 L6.24247122,0.412372863 C6.68675103,0.157039635 7.23324897,0.157039635 7.67752878,0.412372863 Z" id="path-16"></path>
        <path d="M27.0165306,73.1670796 C36.9893879,73.1670796 46.2778165,61.8056327 45.0739861,39.4373498 C43.8701557,17.069067 29.7664057,0.889087297 27.0165306,0.889087297 C24.2666555,0.889087297 10.1629054,17.069067 8.95907503,39.4373498 C7.75524466,61.8056327 17.0436733,73.1670796 27.0165306,73.1670796 Z" id="path-18"></path>
        <filter x="-27.5%" y="-13.8%" width="155.1%" height="127.7%" filterUnits="objectBoundingBox" id="filter-20">
            <feGaussianBlur stdDeviation="7" in="SourceAlpha" result="shadowBlurInner1"></feGaussianBlur>
            <feOffset dx="-2" dy="-6" in="shadowBlurInner1" result="shadowOffsetInner1"></feOffset>
            <feComposite in="shadowOffsetInner1" in2="SourceAlpha" operator="arithmetic" k2="-1" k3="1" result="shadowInnerInner1"></feComposite>
            <feColorMatrix values="0 0 0 0 0.635294118   0 0 0 0 0.690196078   0 0 0 0 0.741176471  0 0 0 1 0" type="matrix" in="shadowInnerInner1" result="shadowMatrixInner1"></feColorMatrix>
            <feGaussianBlur stdDeviation="5" in="SourceAlpha" result="shadowBlurInner2"></feGaussianBlur>
            <feOffset dx="-2" dy="-8" in="shadowBlurInner2" result="shadowOffsetInner2"></feOffset>
            <feComposite in="shadowOffsetInner2" in2="SourceAlpha" operator="arithmetic" k2="-1" k3="1" result="shadowInnerInner2"></feComposite>
            <feColorMatrix values="0 0 0 0 0.764705882   0 0 0 0 0.819607843   0 0 0 0 0.866666667  0 0 0 1 0" type="matrix" in="shadowInnerInner2" result="shadowMatrixInner2"></feColorMatrix>
            <feGaussianBlur stdDeviation="3" in="SourceAlpha" result="shadowBlurInner3"></feGaussianBlur>
            <feOffset dx="2" dy="2" in="shadowBlurInner3" result="shadowOffsetInner3"></feOffset>
            <feComposite in="shadowOffsetInner3" in2="SourceAlpha" operator="arithmetic" k2="-1" k3="1" result="shadowInnerInner3"></feComposite>
            <feColorMatrix values="0 0 0 0 0.82745098   0 0 0 0 0.878431373   0 0 0 0 0.921568627  0 0 0 1 0" type="matrix" in="shadowInnerInner3" result="shadowMatrixInner3"></feColorMatrix>
            <feMerge>
                <feMergeNode in="shadowMatrixInner1"></feMergeNode>
                <feMergeNode in="shadowMatrixInner2"></feMergeNode>
                <feMergeNode in="shadowMatrixInner3"></feMergeNode>
            </feMerge>
        </filter>
        <path d="M2.93026008,0.108299944 L5.29389645,1.46671165 C5.4112719,1.53416881 5.48363636,1.65922159 5.48363636,1.79460056 L5.48363636,4.50842975 C5.48363636,4.64380872 5.4112719,4.7688615 5.29389645,4.83631866 L2.93026008,6.19473036 C2.81358054,6.26178757 2.67005583,6.26178757 2.55337628,6.19473036 L0.189739916,4.83631866 C0.0723644604,4.7688615 5.65269311e-14,4.64380872 5.6510352e-14,4.50842975 L5.67879077e-14,1.79460056 C5.67713286e-14,1.65922159 0.0723644604,1.53416881 0.189739916,1.46671165 L2.55337628,0.108299944 C2.67005583,0.0412427325 2.81358054,0.0412427325 2.93026008,0.108299944 Z" id="path-21"></path>
        <path d="M3.02448104,0.162449916 L5.19902649,1.41218868 C5.37508967,1.51337442 5.48363636,1.70095359 5.48363636,1.90402205 L5.48363636,4.39900826 C5.48363636,4.60207671 5.37508967,4.78965588 5.19902649,4.89084162 L3.02448104,6.14058039 C2.84946171,6.2411662 2.63417465,6.2411662 2.45915533,6.14058039 L0.284609874,4.89084162 C0.108546691,4.78965588 5.67017541e-14,4.60207671 5.66768854e-14,4.39900826 L5.67879077e-14,1.90402205 C5.68532195e-14,1.70095359 0.108546691,1.51337442 0.284609874,1.41218868 L2.45915533,0.162449916 C2.63417465,0.0618640987 2.84946171,0.0618640987 3.02448104,0.162449916 Z" id="path-23"></path>
        <path d="M27.0103371,73.1672649 C36.9831944,73.1672649 46.271623,61.805818 45.0677926,39.4375351 C43.8639623,17.0692523 29.7602122,0.889272595 27.0103371,0.889272595 C24.260462,0.889272595 10.1567119,17.0692523 8.95288156,39.4375351 C7.74905119,61.805818 17.0374798,73.1672649 27.0103371,73.1672649 Z" id="path-25"></path>
        <filter x="-24.8%" y="-12.5%" width="149.6%" height="124.9%" filterUnits="objectBoundingBox" id="filter-26">
            <feGaussianBlur stdDeviation="5" in="SourceAlpha" result="shadowBlurInner1"></feGaussianBlur>
            <feOffset dx="-2" dy="-8" in="shadowBlurInner1" result="shadowOffsetInner1"></feOffset>
            <feComposite in="shadowOffsetInner1" in2="SourceAlpha" operator="arithmetic" k2="-1" k3="1" result="shadowInnerInner1"></feComposite>
            <feColorMatrix values="0 0 0 0 0.764705882   0 0 0 0 0.819607843   0 0 0 0 0.866666667  0 0 0 1 0" type="matrix" in="shadowInnerInner1" result="shadowMatrixInner1"></feColorMatrix>
            <feGaussianBlur stdDeviation="3" in="SourceAlpha" result="shadowBlurInner2"></feGaussianBlur>
            <feOffset dx="2" dy="2" in="shadowBlurInner2" result="shadowOffsetInner2"></feOffset>
            <feComposite in="shadowOffsetInner2" in2="SourceAlpha" operator="arithmetic" k2="-1" k3="1" result="shadowInnerInner2"></feComposite>
            <feColorMatrix values="0 0 0 0 0.82745098   0 0 0 0 0.878431373   0 0 0 0 0.921568627  0 0 0 1 0" type="matrix" in="shadowInnerInner2" result="shadowMatrixInner2"></feColorMatrix>
            <feMerge>
                <feMergeNode in="shadowMatrixInner1"></feMergeNode>
                <feMergeNode in="shadowMatrixInner2"></feMergeNode>
            </feMerge>
        </filter>
        <linearGradient x1="-22.9809216%" y1="-49.236189%" x2="100%" y2="100%" id="linearGradient-27">
            <stop stop-color="#96CDFF" offset="0%"></stop>
            <stop stop-color="#7FB1EC" offset="48.4239523%"></stop>
            <stop stop-color="#71A0E6" offset="100%"></stop>
        </linearGradient>
        <linearGradient x1="176.764773%" y1="90.0829948%" x2="100%" y2="-7.67259622%" id="linearGradient-28">
            <stop stop-color="#AD9BF9" offset="0%"></stop>
            <stop stop-color="#7A68E8" offset="100%"></stop>
        </linearGradient>
        <linearGradient x1="50%" y1="0%" x2="50%" y2="65.8507247%" id="linearGradient-29">
            <stop stop-color="#DDEDF7" offset="0%"></stop>
            <stop stop-color="#B9D5EC" stop-opacity="0.799903759" offset="78.1330063%"></stop>
            <stop stop-color="#B9D5EC" stop-opacity="0" offset="100%"></stop>
        </linearGradient>
        <linearGradient x1="50%" y1="0%" x2="50%" y2="81.270156%" id="linearGradient-30">
            <stop stop-color="#DDEDF7" offset="0%"></stop>
            <stop stop-color="#B9D5EC" stop-opacity="0.799903759" offset="78.1330063%"></stop>
            <stop stop-color="#B9D5EC" stop-opacity="0" offset="100%"></stop>
        </linearGradient>
        <linearGradient x1="50%" y1="0%" x2="50%" y2="100%" id="linearGradient-31">
            <stop stop-color="#63DFFF" offset="0%"></stop>
            <stop stop-color="#4DB7E5" offset="100%"></stop>
        </linearGradient>
        <linearGradient x1="-158.543941%" y1="-21.078597%" x2="100%" y2="43.3460404%" id="linearGradient-32">
            <stop stop-color="#9DC3FD" offset="0%"></stop>
            <stop stop-color="#6A96F4" offset="100%"></stop>
        </linearGradient>
    </defs>
    <g id="Overview" stroke="none" stroke-width="1" fill="none" fill-rule="evenodd">
        <g id="2---dashboard---overview---onboarding-2" transform="translate(-350.000000, -340.000000)">
            <g id="modal" transform="translate(350.000000, 190.000000)">
                <g id="Group" transform="translate(0.000000, 150.000000)">
                    <path d="M188,110 L194.876067,110 C196.833949,110 198.668686,110.955266 199.791458,112.559226 L211.197153,128.853075 C211.679201,129.541716 211.679201,130.458284 211.197153,131.146925 L199.791458,147.440774 C198.668686,149.044734 196.833949,150 194.876067,150 L188,150 L201.598576,130.573462 C201.8396,130.229142 201.8396,129.770858 201.598576,129.426538 L188,110 Z" id="Combined-Shape" fill="#98B4CD" opacity="0.800000012"></path>
                    <path d="M368,110 L374.876067,110 C376.833949,110 378.668686,110.955266 379.791458,112.559226 L391.197153,128.853075 C391.679201,129.541716 391.679201,130.458284 391.197153,131.146925 L379.791458,147.440774 C378.668686,149.044734 376.833949,150 374.876067,150 L368,150 L381.598576,130.573462 C381.8396,130.229142 381.8396,129.770858 381.598576,129.426538 L368,110 Z" id="Combined-Shape-Copy" fill="#98B4CD" opacity="0.800000012"></path>
                    <path d="M548,110 L554.876067,110 C556.833949,110 558.668686,110.955266 559.791458,112.559226 L571.197153,128.853075 C571.679201,129.541716 571.679201,130.458284 571.197153,131.146925 L559.791458,147.440774 C558.668686,149.044734 556.833949,150 554.876067,150 L548,150 L561.598576,130.573462 C561.8396,130.229142 561.8396,129.770858 561.598576,129.426538 L548,110 Z" id="Combined-Shape-Copy-2" fill="#98B4CD" opacity="0.800000012"></path>
                    <path d="M168,110 L174.876067,110 C176.833949,110 178.668686,110.955266 179.791458,112.559226 L191.197153,128.853075 C191.679201,129.541716 191.679201,130.458284 191.197153,131.146925 L179.791458,147.440774 C178.668686,149.044734 176.833949,150 174.876067,150 L168,150 L181.598576,130.573462 C181.8396,130.229142 181.8396,129.770858 181.598576,129.426538 L168,110 Z" id="Combined-Shape" fill="#98B4CD" opacity="0.401834239"></path>
                    <path d="M348,110 L354.876067,110 C356.833949,110 358.668686,110.955266 359.791458,112.559226 L371.197153,128.853075 C371.679201,129.541716 371.679201,130.458284 371.197153,131.146925 L359.791458,147.440774 C358.668686,149.044734 356.833949,150 354.876067,150 L348,150 L361.598576,130.573462 C361.8396,130.229142 361.8396,129.770858 361.598576,129.426538 L348,110 Z" id="Combined-Shape" fill="#98B4CD" opacity="0.401834239"></path>
                    <path d="M528,110 L534.876067,110 C536.833949,110 538.668686,110.955266 539.791458,112.559226 L551.197153,128.853075 C551.679201,129.541716 551.679201,130.458284 551.197153,131.146925 L539.791458,147.440774 C538.668686,149.044734 536.833949,150 534.876067,150 L528,150 L541.598576,130.573462 C541.8396,130.229142 541.8396,129.770858 541.598576,129.426538 L528,110 Z" id="Combined-Shape" fill="#98B4CD" opacity="0.401834239"></path>
                    <g id="icon/generic/kintoblock/green" transform="translate(60.000000, 90.000000)">
                        <g id="cube" transform="translate(5.600000, 0.000000)">
                            <mask id="mask-2" fill="white">
                                <use xlink:href="#path-1"></use>
                            </mask>
                            <use id="base" fill="#28D1B1" xlink:href="#path-1"></use>
                            <path d="M34.8,42.7776225 L34.8,77.2350454 C34.8,78.118701 34.0836556,78.8350454 33.2,78.8350454 C32.9202158,78.8350454 32.6453226,78.7616796 32.4027458,78.6222677 L-2.84217094e-14,60 L-1.55431223e-15,22.7649546 C-8.77685001e-16,21.881299 0.7163444,21.1649546 1.6,21.1649546 C1.87978417,21.1649546 2.15467743,21.2383204 2.3972542,21.3777323 L32.3917626,38.6159555 C33.881528,39.4721425 34.8,41.0593509 34.8,42.7776225 Z" id="left" fill="#00BC98" opacity="0.797871413" mask="url(#mask-2)"></path>
                            <path d="M69.6,22.7649546 L69.6,60 L37.1972542,78.6222677 C36.4311125,79.062579 35.453089,78.7984413 35.0127777,78.0322996 C34.8733657,77.7897228 34.8,77.5148296 34.8,77.2350454 L34.8,42.7776225 C34.8,41.0593509 35.718472,39.4721425 37.2082374,38.6159555 L67.2027458,21.3777323 C67.9688875,20.937421 68.946911,21.2015587 69.3872223,21.9677004 C69.5266343,22.2102772 69.6,22.4851704 69.6,22.7649546 Z" id="right" fill="#1EE6A1" opacity="0.900000036" mask="url(#mask-2)"></path>
                            <path d="M34.8,2.76495461 L34.8,37.2223775 C34.8,38.9406491 33.881528,40.5278575 32.3917626,41.3840445 L2.3972542,58.6222677 C1.63111247,59.062579 0.653089027,58.7984413 0.21277769,58.0322996 C0.0733657496,57.7897228 5.32694577e-14,57.5148296 5.3235194e-14,57.2350454 L3.44946294e-14,20 L32.4027458,1.3777323 C33.1688875,0.937420962 34.146911,1.20155868 34.5872223,1.96770041 C34.7266343,2.21027718 34.8,2.48517044 34.8,2.76495461 Z" id="back" fill="url(#linearGradient-3)" opacity="0.0977694746" mask="url(#mask-2)"></path>
                            <path d="M37.1917626,41.3745762 L67.1862332,58.6127777 C67.9523749,59.053089 68.2165126,60.0311125 67.7762013,60.7972542 C67.6351829,61.0426261 67.4316051,61.246204 67.1862332,61.3872223 L34.8,80 L2.41376682,61.3872223 C1.64762509,60.946911 1.38348737,59.9688875 1.82379871,59.2027458 C1.96481707,58.9573739 2.16839488,58.753796 2.41376682,58.6127777 L32.4082374,41.3745762 C33.8891701,40.5234655 35.7108299,40.5234655 37.1917626,41.3745762 Z" id="bottom" fill="url(#linearGradient-4)" opacity="0.0600000024" mask="url(#mask-2)"></path>
                            <path d="M34.8,0 L67.1862332,18.6127777 C67.9523749,19.053089 68.2165126,20.0311125 67.7762013,20.7972542 C67.6351829,21.0426261 67.4316051,21.246204 67.1862332,21.3872223 L37.1917626,38.6254238 C35.7108299,39.4765345 33.8891701,39.4765345 32.4082374,38.6254238 L2.41376682,21.3872223 C1.64762509,20.946911 1.38348737,19.9688875 1.82379871,19.2027458 C1.96481707,18.9573739 2.16839488,18.753796 2.41376682,18.6127777 L34.8,0 Z" id="top" fill="url(#linearGradient-5)" mask="url(#mask-2)"></path>
                            <path d="M2.41376682,18.6127777 C2.16839488,18.753796 1.96481707,18.9573739 1.82379871,19.2027458 C1.38647486,19.9636893 1.64407321,20.9336491 2.39824154,21.3781858 C2.15467743,21.2383204 1.87978417,21.1649546 1.6,21.1649546 C0.722234252,21.1649546 0.00955677027,21.8717815 9.5311583e-05,22.7473075 C0.0108275488,21.0406993 0.927237124,19.4671051 2.4082374,18.6159555 L2.41376682,18.6127777 Z" id="left-corner" fill-opacity="0.200266078" fill="#FFFFFF" mask="url(#mask-2)"></path>
                            <path d="M67.1862332,18.6127777 L67.1917626,18.6159555 C68.6728864,19.4671761 69.5893253,21.0409618 69.5999074,22.7477346 C69.5969607,22.4739005 69.523773,22.2052987 69.3872223,21.9677004 C68.946911,21.2015587 67.9688875,20.937421 67.2027458,21.3777323 C67.4402606,21.237501 67.6381906,21.0373928 67.7762013,20.7972542 C68.2165126,20.0311125 67.9523749,19.053089 67.1862332,18.6127777 Z" id="right-corner" fill="#65EED4" mask="url(#mask-2)"></path>
                            <path d="M32.3917626,38.6159555 L32.4082374,38.6254238 C33.8891701,39.4765345 35.7108299,39.4765345 37.1917626,38.6254238 L37.2082374,38.6159555 C35.718472,39.4721425 34.8,41.0593509 34.8,42.7776225 C34.8,41.0593509 33.881528,39.4721425 32.3917626,38.6159555 Z" id="center-corner" fill="#2AED9D" mask="url(#mask-2)"></path>
                        </g>
                    </g>
                    <g id="icon/generic/kintoblock/yellow" transform="translate(80.000000, 110.000000)">
                        <g id="cube" transform="translate(2.800000, 0.000000)">
                            <mask id="mask-7" fill="white">
                                <use xlink:href="#path-6"></use>
                            </mask>
                            <use id="base" fill="#F5D739" xlink:href="#path-6"></use>
                            <path d="M17.4,21.0416084 L17.4,38.963142 C17.4,39.2945129 17.1313708,39.563142 16.8,39.563142 C16.6950809,39.563142 16.591996,39.5356299 16.5010297,39.4833504 L-1.42108547e-14,30 L-4.4408921e-16,11.036858 C-1.90353997e-16,10.7054871 0.26862915,10.436858 0.6,10.436858 C0.704919063,10.436858 0.808004035,10.4643701 0.898970326,10.5166496 L16.496911,19.4809833 C17.055573,19.8020534 17.4,20.3972566 17.4,21.0416084 Z" id="left" fill="#F1C245" opacity="0.801970109" mask="url(#mask-7)"></path>
                            <path d="M34.8,11.036858 L34.8,30 L18.2989703,39.4833504 C18.0116672,39.6484671 17.6449084,39.5494155 17.4797916,39.2621123 C17.4275122,39.1711461 17.4,39.0680611 17.4,38.963142 L17.4,21.0416084 C17.4,20.3972566 17.744427,19.8020534 18.303089,19.4809833 L33.9010297,10.5166496 C34.1883328,10.3515329 34.5550916,10.4505845 34.7202084,10.7378877 C34.7724878,10.8288539 34.8,10.9319389 34.8,11.036858 Z" id="right" fill="#FFE349" opacity="0.900000036" mask="url(#mask-7)"></path>
                            <path d="M17.4,1.03685798 L17.4,18.9583916 C17.4,19.6027434 17.055573,20.1979466 16.496911,20.5190167 L0.898970326,29.4833504 C0.611667178,29.6484671 0.244908385,29.5494155 0.0797916336,29.2621123 C0.0275121561,29.1711461 5.71338235e-14,29.0680611 5.71209746e-14,28.963142 L4.58633131e-14,10 L16.5010297,0.516649612 C16.7883328,0.351532861 17.1550916,0.450584506 17.3202084,0.737887653 C17.3724878,0.828853944 17.4,0.931938915 17.4,1.03685798 Z" id="back" fill="url(#linearGradient-8)" opacity="0.0600000024" mask="url(#mask-7)"></path>
                            <path d="M18.296911,20.5154661 L33.8948374,29.4797916 C34.1821406,29.6449084 34.2811922,30.0116672 34.1160755,30.2989703 C34.0631936,30.3909848 33.9868519,30.4673265 33.8948374,30.5202084 L17.4,40 L0.905162558,30.5202084 C0.61785941,30.3550916 0.518807765,29.9883328 0.683924517,29.7010297 C0.7368064,29.6090152 0.81314808,29.5326735 0.905162558,29.4797916 L16.503089,20.5154661 C17.0584388,20.1962995 17.7415612,20.1962995 18.296911,20.5154661 Z" id="bottom" fill="url(#linearGradient-4)" opacity="0.0399999991" mask="url(#mask-7)"></path>
                            <path d="M17.4,0 L33.8948374,9.47979163 C34.1821406,9.64490839 34.2811922,10.0116672 34.1160755,10.2989703 C34.0631936,10.3909848 33.9868519,10.4673265 33.8948374,10.5202084 L18.296911,19.4845339 C17.7415612,19.8037005 17.0584388,19.8037005 16.503089,19.4845339 L0.905162558,10.5202084 C0.61785941,10.3550916 0.518807765,9.98833282 0.683924517,9.70102967 C0.7368064,9.6090152 0.81314808,9.53267352 0.905162558,9.47979163 L17.4,0 Z" id="top" fill="url(#linearGradient-9)" mask="url(#mask-7)"></path>
                            <path d="M1.20688341,9.30638884 C1.08419744,9.37689802 0.982408534,9.47868693 0.911899356,9.6013729 C0.69323743,9.98184465 0.822036603,10.4668245 1.19912077,10.6890929 C1.07733871,10.6191602 0.939892084,10.5824773 0.8,10.5824773 C0.361117126,10.5824773 0.00477838513,10.9358907 4.76557915e-05,11.3736538 C0.00541377441,10.5203497 0.463618562,9.73355255 1.2041187,9.30797776 L1.20688341,9.30638884 Z" id="left-corner" fill="#FFD700" mask="url(#mask-7)"></path>
                            <path d="M33.5931166,9.30638884 L33.5958813,9.30797776 C34.3364432,9.73358805 34.7946627,10.5204809 34.7999537,11.3738673 C34.7984804,11.2369502 34.7618865,11.1026493 34.6936112,10.9838502 C34.4734555,10.6007793 33.9844438,10.4687105 33.6013729,10.6888661 C33.7201303,10.6187505 33.8190953,10.5186964 33.8881006,10.3986271 C34.1082563,10.0155562 33.9761875,9.52654451 33.5931166,9.30638884 Z" id="right-corner" fill="#FCEC63" mask="url(#mask-7)"></path>
                            <path d="M16.1958813,19.3079778 L16.2041187,19.3127119 C16.9445851,19.7382673 17.8554149,19.7382673 18.5958813,19.3127119 L18.6041187,19.3079778 C17.859236,19.7360713 17.4,20.5296754 17.4,21.3888112 C17.4,20.5296754 16.940764,19.7360713 16.1958813,19.3079778 Z" id="center-corner" fill="#FFED3D" mask="url(#mask-7)"></path>
                        </g>
                    </g>
                    <g id="card" transform="translate(247.000000, 97.000000)">
                        <g id="Mask">
                            <use fill="black" fill-opacity="1" filter="url(#filter-11)" xlink:href="#path-10"></use>
                            <use fill="#1EC4E9" fill-rule="evenodd" xlink:href="#path-10"></use>
                        </g>
                        <path d="M0,4 L66,4 L66,63 C66,64.6568542 64.6568542,66 63,66 L3,66 C1.34314575,66 2.02906125e-16,64.6568542 0,63 L0,4 Z" id="Rectangle-12" fill="#FFFFFF"></path>
                        <path d="M0,42 L66,42 L66,63 C66,64.6568542 64.6568542,66 63,66 L3,66 C1.34314575,66 2.02906125e-16,64.6568542 0,63 L0,42 Z" id="Rectangle-12-Copy" fill="#F6F8FC"></path>
                        <path d="M27,9 C30.375,9 33,11.625 33,15 L33,31 C33,34.375 30.375,37 27,37 L11,37 C7.625,37 5,34.375 5,31 L5,15 C5,11.625 7.625,9 11,9 L27,9 Z" id="Mask" fill="url(#linearGradient-12)"></path>
                        <path d="M31.265625,10.734375 C32.34375,11.8125 33,13.3125 33,15 L33,31 C33,34.375 30.375,37 27,37 L11,37 C9.3125,37 7.8125,36.34375 6.734375,35.265625 L31.265625,10.734375 Z" id="Combined-Shape" fill="url(#linearGradient-13)"></path>
                        <path d="M31.265625,10.734375 C32.34375,11.8125 33,13.3125 33,15 L33,31 C33,32.6875 32.34375,34.1875 31.265625,35.265625 L19,23 L31.265625,10.734375 Z" id="Mask-Copy-2" fill="#59E9F4"></path>
                        <g id="icon/generic/kintoblock/green" transform="translate(5.000000, 46.000000)">
                            <g id="cube" transform="translate(1.120000, 0.000000)">
                                <mask id="mask-15" fill="white">
                                    <use xlink:href="#path-14"></use>
                                </mask>
                                <use id="base" fill="#28D1B1" xlink:href="#path-14"></use>
                                <path d="M6.96,8.55552449 L6.96,15.4470091 C6.96,15.6237402 6.81673112,15.7670091 6.64,15.7670091 C6.58404317,15.7670091 6.52906451,15.7523359 6.48054916,15.7244535 L-5.68434189e-15,12 L-7.77156117e-16,4.55299092 C-6.4183067e-16,4.3762598 0.14326888,4.23299092 0.32,4.23299092 C0.375956834,4.23299092 0.430935485,4.24766407 0.47945084,4.27554646 L6.47835252,7.7231911 C6.7763056,7.89442851 6.96,8.21187018 6.96,8.55552449 Z" id="left" fill="#00BC98" opacity="0.797871413" mask="url(#mask-15)"></path>
                                <path d="M13.92,4.55299092 L13.92,12 L7.43945084,15.7244535 C7.28622249,15.8125158 7.09061781,15.7596883 7.00255554,15.6064599 C6.97467315,15.5579446 6.96,15.5029659 6.96,15.4470091 L6.96,8.55552449 C6.96,8.21187018 7.1436944,7.89442851 7.44164748,7.7231911 L13.4405492,4.27554646 C13.5937775,4.18748419 13.7893822,4.24031174 13.8774445,4.39354008 C13.9053269,4.44205544 13.92,4.49703409 13.92,4.55299092 Z" id="right" fill="#1EE6A1" opacity="0.900000036" mask="url(#mask-15)"></path>
                                <path d="M6.96,0.552990922 L6.96,7.44447551 C6.96,7.78812982 6.7763056,8.10557149 6.47835252,8.2768089 L0.47945084,11.7244535 C0.326222495,11.8125158 0.130617805,11.7596883 0.0425555379,11.6064599 C0.0146731499,11.5579446 5.70929584e-14,11.5029659 5.67879077e-14,11.4470091 L5.26845234e-14,4 L6.48054916,0.27554646 C6.63377751,0.187484192 6.82938219,0.240311736 6.91744446,0.393540082 C6.94532685,0.442055437 6.96,0.497034088 6.96,0.552990922 Z" id="back" fill="url(#linearGradient-3)" opacity="0.0977694746" mask="url(#mask-15)"></path>
                                <path d="M7.43835252,8.27491524 L13.4372466,11.7225555 C13.590475,11.8106178 13.6433025,12.0062225 13.5552403,12.1594508 C13.5270366,12.2085252 13.486321,12.2492408 13.4372466,12.2774445 L6.96,16 L0.482753364,12.2774445 C0.329525019,12.1893822 0.276697475,11.9937775 0.364759742,11.8405492 C0.392963414,11.7914748 0.433678976,11.7507592 0.482753364,11.7225555 L6.48164748,8.27491524 C6.77783402,8.10469309 7.14216598,8.10469309 7.43835252,8.27491524 Z" id="bottom" fill="url(#linearGradient-4)" opacity="0.0600000024" mask="url(#mask-15)"></path>
                                <path d="M6.96,0 L13.4372466,3.72255554 C13.590475,3.81061781 13.6433025,4.00622249 13.5552403,4.15945084 C13.5270366,4.20852523 13.486321,4.24924079 13.4372466,4.27744446 L7.43835252,7.72508476 C7.14216598,7.89530691 6.77783402,7.89530691 6.48164748,7.72508476 L0.482753364,4.27744446 C0.329525019,4.18938219 0.276697475,3.99377751 0.364759742,3.84054916 C0.392963414,3.79147477 0.433678976,3.75075921 0.482753364,3.72255554 L6.96,0 Z" id="top" fill="url(#linearGradient-5)" mask="url(#mask-15)"></path>
                                <path d="M0.482753364,3.72255554 C0.433678976,3.75075921 0.392963414,3.79147477 0.364759742,3.84054916 C0.277294972,3.99273786 0.328814641,4.18672981 0.479648307,4.27563717 C0.430935485,4.24766407 0.375956834,4.23299092 0.32,4.23299092 C0.14444685,4.23299092 0.00191135405,4.3743563 1.90623166e-05,4.5494615 C0.00216550977,4.20813987 0.185447425,3.89342102 0.481647479,3.7231911 L0.482753364,3.72255554 Z" id="left-corner" fill-opacity="0.200266078" fill="#FFFFFF" mask="url(#mask-15)"></path>
                                <path d="M13.4372466,3.72255554 L13.4383525,3.7231911 C13.7345773,3.89343522 13.9178651,4.20819237 13.9199815,4.54954691 C13.9193921,4.4947801 13.9047546,4.44105973 13.8774445,4.39354008 C13.7893822,4.24031174 13.5937775,4.18748419 13.4405492,4.27554646 C13.4880521,4.2475002 13.5276381,4.20747856 13.5552403,4.15945084 C13.6433025,4.00622249 13.590475,3.81061781 13.4372466,3.72255554 Z" id="right-corner" fill="#65EED4" mask="url(#mask-15)"></path>
                                <path d="M6.47835252,7.7231911 L6.48164748,7.72508476 C6.77783402,7.89530691 7.14216598,7.89530691 7.43835252,7.72508476 L7.44164748,7.7231911 C7.1436944,7.89442851 6.96,8.21187018 6.96,8.55552449 C6.96,8.21187018 6.7763056,7.89442851 6.47835252,7.7231911 Z" id="center-corner" fill="#2AED9D" mask="url(#mask-15)"></path>
                            </g>
                        </g>
                        <g id="icon/generic/kintoblock/yellow" transform="translate(23.000000, 46.000000)">
                            <g id="cube" transform="translate(1.120000, 0.000000)">
                                <mask id="mask-17" fill="white">
                                    <use xlink:href="#path-16"></use>
                                </mask>
                                <use id="base" fill="#F5D739" xlink:href="#path-16"></use>
                                <path d="M6.96,8.83328674 L6.96,15.1705136 C6.96,15.4356103 6.74509668,15.6505136 6.48,15.6505136 C6.39606475,15.6505136 6.31359677,15.6285039 6.24082374,15.5866803 L-5.68434189e-15,12 L-8.32667268e-16,4.82948638 C-6.29679098e-16,4.5643897 0.21490332,4.34948638 0.48,4.34948638 C0.563935251,4.34948638 0.646403228,4.37149611 0.71917626,4.41331969 L6.23752878,7.58478666 C6.6844584,7.84164276 6.96,8.31780527 6.96,8.83328674 Z" id="left" fill="#F1C245" opacity="0.801970109" mask="url(#mask-17)"></path>
                                <path d="M13.92,4.82948638 L13.92,12 L7.67917626,15.5866803 C7.44933374,15.7187737 7.15592671,15.6395324 7.02383331,15.4096899 C6.98200972,15.3369168 6.96,15.2544489 6.96,15.1705136 L6.96,8.83328674 C6.96,8.31780527 7.2355416,7.84164276 7.68247122,7.58478666 L13.2008237,4.41331969 C13.4306663,4.28122629 13.7240733,4.3604676 13.8561667,4.59031012 C13.8979903,4.66308316 13.92,4.74555113 13.92,4.82948638 Z" id="right" fill="#FFE349" opacity="0.900000036" mask="url(#mask-17)"></path>
                                <path d="M6.96,0.829486383 L6.96,7.16671326 C6.96,7.68219473 6.6844584,8.15835724 6.23752878,8.41521334 L0.71917626,11.5866803 C0.489333742,11.7187737 0.195926708,11.6395324 0.0638333069,11.4096899 C0.0220097249,11.3369168 5.73184293e-14,11.2544489 5.70099523e-14,11.1705136 L5.26845234e-14,4 L6.24082374,0.41331969 C6.47066626,0.281226289 6.76407329,0.360467605 6.89616669,0.590310123 C6.93799028,0.663083155 6.96,0.745551132 6.96,0.829486383 Z" id="back" fill="url(#linearGradient-8)" opacity="0.0600000024" mask="url(#mask-17)"></path>
                                <path d="M7.67752878,8.41237286 L13.19587,11.5838333 C13.4257125,11.7159267 13.5049538,12.0093337 13.3728604,12.2391763 C13.3305549,12.3127878 13.2694815,12.3738612 13.19587,12.4161667 L6.96,16 L0.724130046,12.4161667 C0.494287528,12.2840733 0.415046212,11.9906663 0.547139613,11.7608237 C0.58944512,11.6872122 0.650518464,11.6261388 0.724130046,11.5838333 L6.24247122,8.41237286 C6.68675103,8.15703964 7.23324897,8.15703964 7.67752878,8.41237286 Z" id="bottom" fill="url(#linearGradient-4)" opacity="0.0399999991" mask="url(#mask-17)"></path>
                                <path d="M6.96,0 L13.19587,3.58383331 C13.4257125,3.71592671 13.5049538,4.00933374 13.3728604,4.23917626 C13.3305549,4.31278784 13.2694815,4.37386119 13.19587,4.41616669 L7.67752878,7.58762714 C7.23324897,7.84296036 6.68675103,7.84296036 6.24247122,7.58762714 L0.724130046,4.41616669 C0.494287528,4.28407329 0.415046212,3.99066626 0.547139613,3.76082374 C0.58944512,3.68721216 0.650518464,3.62613881 0.724130046,3.58383331 L6.96,0 Z" id="top" fill="url(#linearGradient-9)" mask="url(#mask-17)"></path>
                                <path d="M0.482753364,3.72255554 C0.433678976,3.75075921 0.392963414,3.79147477 0.364759742,3.84054916 C0.277294972,3.99273786 0.328814641,4.18672981 0.479648307,4.27563717 C0.430935485,4.24766407 0.375956834,4.23299092 0.32,4.23299092 C0.14444685,4.23299092 0.00191135405,4.3743563 1.90623166e-05,4.5494615 C0.00216550977,4.20813987 0.185447425,3.89342102 0.481647479,3.7231911 L0.482753364,3.72255554 Z" id="left-corner" fill="#FFD700" mask="url(#mask-17)"></path>
                                <path d="M13.4372466,3.72255554 L13.4383525,3.7231911 C13.7345773,3.89343522 13.9178651,4.20819237 13.9199815,4.54954691 C13.9193921,4.4947801 13.9047546,4.44105973 13.8774445,4.39354008 C13.7893822,4.24031174 13.5937775,4.18748419 13.4405492,4.27554646 C13.4880521,4.2475002 13.5276381,4.20747856 13.5552403,4.15945084 C13.6433025,4.00622249 13.590475,3.81061781 13.4372466,3.72255554 Z" id="right-corner" fill="#FCEC63" mask="url(#mask-17)"></path>
                                <path d="M6.47835252,7.7231911 L6.48164748,7.72508476 C6.77783402,7.89530691 7.14216598,7.89530691 7.43835252,7.72508476 L7.44164748,7.7231911 C7.1436944,7.89442851 6.96,8.21187018 6.96,8.55552449 C6.96,8.21187018 6.7763056,7.89442851 6.47835252,7.7231911 Z" id="center-corner" fill="#FFED3D" mask="url(#mask-17)"></path>
                            </g>
                        </g>
                    </g>
                    <g id="rocket" transform="translate(421.000000, 77.000000)">
                        <g id="card" transform="translate(46.353553, 46.353553) rotate(45.000000) translate(-46.353553, -46.353553) translate(18.853553, 9.353553)">
                            <path d="M3.62806319,55.2890952 C5.78492594,52.4062123 9.02022006,48.4422484 13.3339455,43.3972033 L16.5692397,66.099906 C14.4123769,68.9827889 11.8960371,70.4242303 9.02022006,70.4242303 L1.48228205,70.4242303 L1.48228205,70.4241869 C0.885241459,70.4241869 0.401244427,69.9401899 0.401244427,69.3431493 C0.401244427,69.337408 0.401290163,69.3316669 0.401381632,69.3259263 C0.50692365,62.7021789 1.58248417,58.0232352 3.62806319,55.2890952 Z" id="Rectangle" fill="#F46464"></path>
                            <path d="M51.0790436,55.2890952 C53.1246226,58.0232352 54.2001831,62.7021789 54.3057251,69.3259263 C54.3058166,69.3316669 54.3058624,69.337408 54.3058624,69.3431493 C54.3058624,69.9401899 53.8218653,70.4241869 53.2248247,70.4241869 L53.2248247,70.4242303 L45.6868867,70.4242303 C42.8110697,70.4242303 40.2947299,68.9827889 38.1378671,66.099906 L41.3731612,43.3972033 C45.6868867,48.4422484 48.9221808,52.4062123 51.0790436,55.2890952 Z" id="Rectangle-Copy-3" fill="#F46464"></path>
                            <mask id="mask-19" fill="white">
                                <use xlink:href="#path-18"></use>
                            </mask>
                            <g id="Oval-4">
                                <use fill="#E0E6F0" fill-rule="evenodd" xlink:href="#path-18"></use>
                                <use fill="black" fill-opacity="1" filter="url(#filter-20)" xlink:href="#path-18"></use>
                            </g>
                            <path d="M11.1731289,24.9121941 C16.6833434,24.5737172 22.0748098,24.4044787 27.3475282,24.4044787 C32.4934417,24.4044787 37.6568037,24.5656749 42.8376143,24.8880674 C44.3167111,27.9015531 45.1408036,32.3350011 45.3098919,38.1884115 C45.3737686,40.3996632 45.3881726,44.3368594 45.3531039,50 L8.80250315,50 C8.74018221,44.7184517 8.72960605,41.024529 8.77077468,38.918232 C8.89130637,32.7515089 9.69209111,28.0828296 11.1731289,24.9121941 Z" id="Rectangle-12" fill="#FFFFFF" mask="url(#mask-19)"></path>
                            <path d="M2,40.5454545 C13.2277758,41.5855248 21.667136,42.10556 27.3180807,42.10556 C32.9690255,42.10556 41.1963319,41.5855248 52,40.5454545 L52,50 C43.803511,52.0629044 35.5972172,53.0943565 27.3811187,53.0943565 C19.1650203,53.0943565 10.7046474,52.0629044 2,50 L2,40.5454545 Z" id="Rectangle-12-Copy" fill="#F6F8FC" mask="url(#mask-19)"></path>
                            <path d="M22.1571454,27.3723068 C23.5536971,27.3723068 24.639904,28.4585137 24.639904,29.8550654 L24.639904,36.4757551 C24.639904,37.8723068 23.5536971,38.9585137 22.1571454,38.9585137 L15.5364557,38.9585137 C14.139904,38.9585137 13.0536971,37.8723068 13.0536971,36.4757551 L13.0536971,29.8550654 C13.0536971,28.4585137 14.139904,27.3723068 15.5364557,27.3723068 L22.1571454,27.3723068 Z" id="Mask" fill="url(#linearGradient-12)" mask="url(#mask-19)"></path>
                            <path d="M23.9222316,28.0899792 C24.3683523,28.5360999 24.639904,29.1567896 24.639904,29.8550654 L24.639904,36.4757551 C24.639904,37.8723068 23.5536971,38.9585137 22.1571454,38.9585137 L15.5364557,38.9585137 C14.8381799,38.9585137 14.2174902,38.686962 13.7713695,38.2408413 L23.9222316,28.0899792 Z" id="Combined-Shape" fill="url(#linearGradient-13)" mask="url(#mask-19)"></path>
                            <path d="M23.9222316,28.0899792 C24.3683523,28.5360999 24.639904,29.1567896 24.639904,29.8550654 L24.639904,36.4757551 C24.639904,37.174031 24.3683523,37.7947206 23.9222316,38.2408413 L18.8468005,33.1654103 L23.9222316,28.0899792 Z" id="Mask-Copy-2" fill="#59E9F4" mask="url(#mask-19)"></path>
                            <g id="icon/generic/kintoblock/green" mask="url(#mask-19)">
                                <g transform="translate(13.171573, 44.000000)" id="cube">
                                    <g transform="translate(0.441212, 0.000000)">
                                        <mask id="mask-22" fill="white">
                                            <use xlink:href="#path-21"></use>
                                        </mask>
                                        <use id="base" fill="#28D1B1" xlink:href="#path-21"></use>
                                        <path d="M2.74181818,3.37035813 L2.74181818,6.08518539 C2.74181818,6.15480674 2.68537893,6.211246 2.61575758,6.211246 C2.59371397,6.211246 2.57205572,6.20546567 2.55294361,6.1944817 L-2.2392862e-15,4.72727273 L-8.32667268e-17,1.79360248 C-2.99567024e-17,1.72398113 0.0564392558,1.66754188 0.126060606,1.66754188 C0.148104207,1.66754188 0.169762464,1.67332221 0.188874573,1.68430618 L2.55207827,3.04246922 C2.66945372,3.10992638 2.74181818,3.23497916 2.74181818,3.37035813 Z" id="left" fill="#00BC98" opacity="0.797871413" mask="url(#mask-22)"></path>
                                        <path d="M5.48363636,1.79360248 L5.48363636,4.72727273 L2.93069276,6.1944817 C2.87033007,6.22917289 2.79327368,6.20836204 2.75858248,6.14799936 C2.74759851,6.12888725 2.74181818,6.107229 2.74181818,6.08518539 L2.74181818,3.37035813 C2.74181818,3.23497916 2.81418264,3.10992638 2.9315581,3.04246922 L5.29476179,1.68430618 C5.35512447,1.64961498 5.43218086,1.67042584 5.46687206,1.73078852 C5.47785603,1.74990063 5.48363636,1.77155888 5.48363636,1.79360248 Z" id="right" fill="#1EE6A1" opacity="0.900000036" mask="url(#mask-22)"></path>
                                        <path d="M2.74181818,0.217844909 L2.74181818,2.93267217 C2.74181818,3.06805114 2.66945372,3.19310392 2.55207827,3.26056108 L0.188874573,4.61872412 C0.128511892,4.65341532 0.0514554991,4.63260447 0.0167643028,4.57224179 C0.00578033178,4.55312968 5.73358145e-14,4.53147142 5.71764858e-14,4.50942782 L5.5440568e-14,1.57575758 L2.55294361,0.108548605 C2.61330629,0.0738574092 2.69036268,0.0946682598 2.72505388,0.155030941 C2.73603785,0.174143051 2.74181818,0.195801307 2.74181818,0.217844909 Z" id="back" fill="url(#linearGradient-3)" opacity="0.0977694746" mask="url(#mask-22)"></path>
                                        <path d="M2.93026008,3.2598151 L5.2934608,4.61797642 C5.35382348,4.65266762 5.37463433,4.72972401 5.33994313,4.79008669 C5.32883259,4.80941903 5.31279313,4.82545849 5.2934608,4.83656903 L2.74181818,6.3030303 L0.190175568,4.83656903 C0.129812886,4.80187783 0.109002036,4.72482144 0.143693232,4.66445876 C0.154803769,4.64512643 0.170843233,4.62908696 0.190175568,4.61797642 L2.55337628,3.2598151 C2.67005583,3.19275788 2.81358054,3.19275788 2.93026008,3.2598151 Z" id="bottom" fill="url(#linearGradient-4)" opacity="0.0600000024" mask="url(#mask-22)"></path>
                                        <path d="M2.74181818,0 L5.2934608,1.46646127 C5.35382348,1.50115247 5.37463433,1.57820886 5.33994313,1.63857154 C5.32883259,1.65790388 5.31279313,1.67394334 5.2934608,1.68505388 L2.93026008,3.04321521 C2.81358054,3.11027242 2.67005583,3.11027242 2.55337628,3.04321521 L0.190175568,1.68505388 C0.129812886,1.65036268 0.109002036,1.57330629 0.143693232,1.51294361 C0.154803769,1.49361127 0.170843233,1.47757181 0.190175568,1.46646127 L2.74181818,0 Z" id="top" fill="url(#linearGradient-5)" mask="url(#mask-22)"></path>
                                        <path d="M0.190175568,1.46646127 C0.170843233,1.47757181 0.154803769,1.49361127 0.143693232,1.51294361 C0.109237413,1.57289673 0.12953304,1.64931781 0.188952363,1.68434191 C0.169762464,1.67332221 0.148104207,1.66754188 0.126060606,1.66754188 C0.0569033047,1.66754188 0.000752957658,1.72323127 7.50939745e-06,1.79221211 C0.000853079605,1.65775207 0.0730550461,1.53377192 0.189739916,1.46671165 L0.190175568,1.46646127 Z" id="left-corner" fill-opacity="0.200266078" fill="#FFFFFF" mask="url(#mask-22)"></path>
                                        <path d="M5.2934608,1.46646127 L5.29389645,1.46671165 C5.41059105,1.53377751 5.48279533,1.65777275 5.48362906,1.79224575 C5.48339691,1.77067095 5.4776306,1.74950838 5.46687206,1.73078852 C5.43218086,1.67042584 5.35512447,1.64961498 5.29476179,1.68430618 C5.31347508,1.67325766 5.32906956,1.65749155 5.33994313,1.63857154 C5.37463433,1.57820886 5.35382348,1.50115247 5.2934608,1.46646127 Z" id="right-corner" fill="#65EED4" mask="url(#mask-22)"></path>
                                        <path d="M2.55207827,3.04246922 L2.55337628,3.04321521 C2.67005583,3.11027242 2.81358054,3.11027242 2.93026008,3.04321521 L2.9315581,3.04246922 C2.81418264,3.10992638 2.74181818,3.23497916 2.74181818,3.37035813 C2.74181818,3.23497916 2.66945372,3.10992638 2.55207827,3.04246922 Z" id="center-corner" fill="#2AED9D" mask="url(#mask-22)"></path>
                                    </g>
                                </g>
                            </g>
                            <g id="icon/generic/kintoblock/yellow" mask="url(#mask-19)">
                                <g transform="translate(20.171573, 44.414214)" id="cube">
                                    <g transform="translate(0.441212, 0.000000)">
                                        <mask id="mask-24" fill="white">
                                            <use xlink:href="#path-23"></use>
                                        </mask>
                                        <use id="base" fill="#F5D739" xlink:href="#path-23"></use>
                                        <path d="M2.74181818,3.47977962 L2.74181818,5.97626294 C2.74181818,6.08069497 2.6571593,6.16535385 2.55272727,6.16535385 C2.51966187,6.16535385 2.48717449,6.15668335 2.45850632,6.14020739 L-2.2392862e-15,4.72727273 L-1.11022302e-16,1.90252494 C-3.10572657e-17,1.79809291 0.0846588837,1.71343403 0.189090909,1.71343403 C0.222156311,1.71343403 0.254643696,1.72210453 0.28331186,1.73858048 L2.45720831,2.98794626 C2.63327149,3.089132 2.74181818,3.27671117 2.74181818,3.47977962 Z" id="left" fill="#F1C245" opacity="0.801970109" mask="url(#mask-24)"></path>
                                        <path d="M5.48363636,1.90252494 L5.48363636,4.72727273 L3.02513004,6.14020739 C2.93458602,6.19224419 2.81900143,6.16102791 2.76696464,6.07048389 C2.75048868,6.04181573 2.74181818,6.00932834 2.74181818,5.97626294 L2.74181818,3.47977962 C2.74181818,3.27671117 2.85036487,3.089132 3.02642806,2.98794626 L5.2003245,1.73858048 C5.29086853,1.68654369 5.40645312,1.71775997 5.45848991,1.80830399 C5.47496587,1.83697215 5.48363636,1.86945954 5.48363636,1.90252494 Z" id="right" fill="#FFE349" opacity="0.900000036" mask="url(#mask-24)"></path>
                                        <path d="M2.74181818,0.326767363 L2.74181818,2.82325068 C2.74181818,3.02631914 2.63327149,3.21389831 2.45720831,3.31508404 L0.28331186,4.56444982 C0.192767838,4.61648661 0.0771832486,4.58527034 0.0251464542,4.49472632 C0.00867049768,4.46605815 5.69029794e-14,4.43357077 5.689893e-14,4.40050536 L5.5440568e-14,1.57575758 L2.45850632,0.162822908 C2.54905034,0.110786114 2.66463493,0.14200239 2.71667173,0.232546412 C2.73314768,0.261214576 2.74181818,0.293701961 2.74181818,0.326767363 Z" id="back" fill="url(#linearGradient-8)" opacity="0.0600000024" mask="url(#mask-24)"></path>
                                        <path d="M3.02448104,3.31396507 L5.19837301,4.56332827 C5.28891703,4.61536507 5.32013331,4.73094966 5.26809652,4.82149368 C5.25143071,4.85049218 5.22737151,4.87455138 5.19837301,4.89121718 L2.74181818,6.3030303 L0.285263351,4.89121718 C0.194719329,4.83918039 0.163503053,4.7235958 0.215539848,4.63305178 C0.232205653,4.60405327 0.256264849,4.57999408 0.285263351,4.56332827 L2.45915533,3.31396507 C2.63417465,3.21337925 2.84946171,3.21337925 3.02448104,3.31396507 Z" id="bottom" fill="url(#linearGradient-4)" opacity="0.0399999991" mask="url(#mask-24)"></path>
                                        <path d="M2.74181818,0 L5.19837301,1.41181312 C5.28891703,1.46384992 5.32013331,1.5794345 5.26809652,1.66997853 C5.25143071,1.69897703 5.22737151,1.72303622 5.19837301,1.73970203 L3.02448104,2.98906524 C2.84946171,3.08965105 2.63417465,3.08965105 2.45915533,2.98906524 L0.285263351,1.73970203 C0.194719329,1.68766524 0.163503053,1.57208065 0.215539848,1.48153662 C0.232205653,1.45253812 0.256264849,1.42847893 0.285263351,1.41181312 L2.74181818,0 Z" id="top" fill="url(#linearGradient-9)" mask="url(#mask-24)"></path>
                                        <path d="M0.190175568,1.46646127 C0.170843233,1.47757181 0.154803769,1.49361127 0.143693232,1.51294361 C0.109237413,1.57289673 0.12953304,1.64931781 0.188952363,1.68434191 C0.169762464,1.67332221 0.148104207,1.66754188 0.126060606,1.66754188 C0.0569033047,1.66754188 0.000752957658,1.72323127 7.50939745e-06,1.79221211 C0.000853079605,1.65775207 0.0730550461,1.53377192 0.189739916,1.46671165 L0.190175568,1.46646127 Z" id="left-corner" fill="#FFD700" mask="url(#mask-24)"></path>
                                        <path d="M5.2934608,1.46646127 L5.29389645,1.46671165 C5.41059105,1.53377751 5.48279533,1.65777275 5.48362906,1.79224575 C5.48339691,1.77067095 5.4776306,1.74950838 5.46687206,1.73078852 C5.43218086,1.67042584 5.35512447,1.64961498 5.29476179,1.68430618 C5.31347508,1.67325766 5.32906956,1.65749155 5.33994313,1.63857154 C5.37463433,1.57820886 5.35382348,1.50115247 5.2934608,1.46646127 Z" id="right-corner" fill="#FCEC63" mask="url(#mask-24)"></path>
                                        <path d="M2.55207827,3.04246922 L2.55337628,3.04321521 C2.67005583,3.11027242 2.81358054,3.11027242 2.93026008,3.04321521 L2.9315581,3.04246922 C2.81418264,3.10992638 2.74181818,3.23497916 2.74181818,3.37035813 C2.74181818,3.23497916 2.66945372,3.10992638 2.55207827,3.04246922 Z" id="center-corner" fill="#FFED3D" mask="url(#mask-24)"></path>
                                    </g>
                                </g>
                            </g>
                            <g id="Oval-4" mask="url(#mask-19)" fill="black" fill-opacity="1">
                                <use filter="url(#filter-26)" xlink:href="#path-25"></use>
                            </g>
                        </g>
                        <path d="M13.8370333,78.5767281 C12.6297432,77.3694379 15.0969813,72.2093605 19.7126961,67.4163047 C24.3284109,62.6232489 28.8157281,56.0760333 32.5767281,59.8370333 C36.3377281,63.5980334 29.7905125,68.0853506 24.9974568,72.7010654 C20.204401,77.3167802 15.0443235,79.7840183 13.8370333,78.5767281 Z" id="Oval-6" fill="#F46464"></path>
                    </g>
                    <g id="radio" transform="translate(609.000000, 95.000000)">
                        <path d="M42.804149,39.2119457 C43.5007929,39.0706486 44.2327595,39 45.0000486,39 C45.7671732,39 46.4989887,39.0706183 47.195495,39.2118549 L47.1954948,39.2118563 C50.4031596,39.8623021 52.8910989,42.4010437 53.4765817,45.6211995 L56.7124165,63.4183875 C56.8890496,64.3898699 56.3302644,65.3448724 55.3968198,65.666833 C52.8200288,66.555611 49.3544384,67 45.0000486,67 C40.6456375,67 37.1800129,66.5556066 34.6031748,65.6668199 L34.6031781,65.6668104 C33.6697275,65.3448505 33.1109377,64.3898429 33.2875718,63.4183551 L36.5234123,45.6212202 C37.1088719,42.4011923 39.5966408,39.8625102 42.804149,39.2119457 Z" id="Rectangle-3" fill="url(#linearGradient-27)"></path>
                        <ellipse id="Oval-2" fill="url(#linearGradient-28)" transform="translate(31.000000, 30.500000) rotate(45.000000) translate(-31.000000, -30.500000) " cx="31" cy="30.5" rx="8" ry="34.5"></ellipse>
                        <path d="M34.4778857,-7.16265877 L34.4778857,-7.16265877 C35.3063128,-7.16265877 35.9778857,-6.4910859 35.9778857,-5.66265877 L35.9778857,35.9879763 C35.9778857,36.8164034 35.3063128,37.4879763 34.4778857,37.4879763 L34.4778857,37.4879763 C33.6494586,37.4879763 32.9778857,36.8164034 32.9778857,35.9879763 L32.9778857,-5.66265877 C32.9778857,-6.4910859 33.6494586,-7.16265877 34.4778857,-7.16265877 Z" id="Rectangle-4" fill="url(#linearGradient-29)" opacity="0.600000024" transform="translate(34.477886, 15.162659) rotate(-80.000000) translate(-34.477886, -15.162659) "></path>
                        <path d="M16.25,11.1291651 L16.25,11.1291651 C17.0784271,11.1291651 17.75,11.800738 17.75,12.6291651 L17.75,54.6291651 C17.75,55.4575922 17.0784271,56.1291651 16.25,56.1291651 L16.25,56.1291651 C15.4215729,56.1291651 14.75,55.4575922 14.75,54.6291651 L14.75,12.6291651 C14.75,11.800738 15.4215729,11.1291651 16.25,11.1291651 Z" id="Rectangle-4-Copy-2" fill="url(#linearGradient-29)" opacity="0.600000024" transform="translate(16.250000, 33.629165) rotate(-10.000000) translate(-16.250000, -33.629165) "></path>
                        <rect id="Rectangle-4-Copy" fill="url(#linearGradient-30)" transform="translate(27.000000, 26.000000) rotate(-45.000000) translate(-27.000000, -26.000000) " x="25" y="4" width="4" height="44"></rect>
                        <circle id="Oval-3" fill="url(#linearGradient-31)" cx="12" cy="11" r="4"></circle>
                        <path d="M7.6406845,55.4661821 C12.0923379,56.4835505 24.345907,48.4302268 36.6146775,36.1614563 C49.0933284,23.6828054 57.2110725,11.2198805 55.8592035,6.96589019 L55.90077,6.92314792 C59.3868849,22.0968934 55.9722463,34.8414622 45.6568542,45.1568542 C35.3414622,55.4722463 22.6654397,58.9125908 7.62878681,55.4778878 L7.6406845,55.4661821 Z" id="Oval-2-Copy" fill="url(#linearGradient-32)"></path>
                    </g>
                    <path d="M71.615,204.132 C71.7456673,204.253334 71.811,204.388666 71.811,204.538 C71.811,204.668667 71.7573339,204.787666 71.65,204.895 C71.5426661,205.002334 71.4190007,205.056 71.279,205.056 C71.1576661,205.056 71.0316673,205.000001 70.901,204.888 L65.665,200.31 L65.665,204.482 C65.665,204.659334 65.6136672,204.801666 65.511,204.909 C65.4083328,205.016334 65.2683342,205.07 65.091,205.07 C64.9136658,205.07 64.7736672,205.016334 64.671,204.909 C64.5683328,204.801666 64.517,204.659334 64.517,204.482 L64.517,195.648 C64.517,195.470666 64.5683328,195.328334 64.671,195.221 C64.7736672,195.113666 64.9136658,195.06 65.091,195.06 C65.2683342,195.06 65.4083328,195.113666 65.511,195.221 C65.6136672,195.328334 65.665,195.470666 65.665,195.648 L65.665,199.666 L70.663,195.228 C70.7656672,195.125333 70.8869993,195.074 71.027,195.074 C71.1670007,195.074 71.2883328,195.127666 71.391,195.235 C71.4936672,195.342334 71.545,195.461333 71.545,195.592 C71.545,195.732001 71.4843339,195.862666 71.363,195.984 L66.841,199.96 L71.615,204.132 Z M73.715,205.07 C73.5469992,205.07 73.4093339,205.021 73.302,204.923 C73.1946661,204.825 73.141,204.687334 73.141,204.51 L73.141,198.602 C73.141,198.424666 73.1946661,198.287 73.302,198.189 C73.4093339,198.091 73.5469992,198.042 73.715,198.042 C73.8830008,198.042 74.0183328,198.091 74.121,198.189 C74.2236672,198.287 74.275,198.424666 74.275,198.602 L74.275,204.51 C74.275,204.696668 74.2236672,204.836666 74.121,204.93 C74.0183328,205.023334 73.8830008,205.07 73.715,205.07 Z M73.715,196.572 C73.4909989,196.572 73.3090007,196.506667 73.169,196.376 C73.0289993,196.245333 72.959,196.072668 72.959,195.858 C72.959,195.652666 73.0289993,195.484667 73.169,195.354 C73.3090007,195.223333 73.4909989,195.158 73.715,195.158 C73.9390011,195.158 74.1209993,195.223333 74.261,195.354 C74.4010007,195.484667 74.471,195.652666 74.471,195.858 C74.471,196.072668 74.4010007,196.245333 74.261,196.376 C74.1209993,196.506667 73.9390011,196.572 73.715,196.572 Z M79.819,198.014 C81.4523415,198.014 82.269,198.914658 82.269,200.716 L82.269,204.51 C82.269,204.687334 82.2200005,204.825 82.122,204.923 C82.0239995,205.021 81.8863342,205.07 81.709,205.07 C81.5316658,205.07 81.3916672,205.021 81.289,204.923 C81.1863328,204.825 81.135,204.687334 81.135,204.51 L81.135,200.786 C81.135,200.15133 81.0113346,199.689335 80.764,199.4 C80.5166654,199.110665 80.122336,198.966 79.581,198.966 C78.9556635,198.966 78.4563352,199.157331 78.083,199.54 C77.7096648,199.922669 77.523,200.440663 77.523,201.094 L77.523,204.51 C77.523,204.687334 77.4740005,204.825 77.376,204.923 C77.2779995,205.021 77.1403342,205.07 76.963,205.07 C76.7856658,205.07 76.6456672,205.021 76.543,204.923 C76.4403328,204.825 76.389,204.687334 76.389,204.51 L76.389,198.602 C76.389,198.433999 76.4403328,198.298667 76.543,198.196 C76.6456672,198.093333 76.7856658,198.042 76.963,198.042 C77.1310008,198.042 77.2639995,198.093333 77.362,198.196 C77.4600005,198.298667 77.509,198.429333 77.509,198.588 L77.509,199.302 C77.7330011,198.881998 78.0456647,198.562334 78.447,198.343 C78.8483353,198.123666 79.3056641,198.014 79.819,198.014 Z M87.491,204.174 C87.8176683,204.202 87.981,204.351332 87.981,204.622 C87.981,204.780667 87.9226672,204.899666 87.806,204.979 C87.6893327,205.058334 87.5143345,205.088667 87.281,205.07 L86.903,205.042 C86.1563296,204.986 85.6056684,204.762002 85.251,204.37 C84.8963316,203.977998 84.719,203.385337 84.719,202.592 L84.719,199.078 L83.781,199.078 C83.6223325,199.078 83.4986671,199.038334 83.41,198.959 C83.3213329,198.879666 83.277,198.774667 83.277,198.644 C83.277,198.503999 83.3213329,198.392 83.41,198.308 C83.4986671,198.224 83.6223325,198.182 83.781,198.182 L84.719,198.182 L84.719,196.6 C84.719,196.422666 84.7703328,196.285 84.873,196.187 C84.9756672,196.089 85.1156658,196.04 85.293,196.04 C85.4610008,196.04 85.5963328,196.089 85.699,196.187 C85.8016672,196.285 85.853,196.422666 85.853,196.6 L85.853,198.182 L87.407,198.182 C87.5563341,198.182 87.6753329,198.224 87.764,198.308 C87.8526671,198.392 87.897,198.503999 87.897,198.644 C87.897,198.774667 87.8526671,198.879666 87.764,198.959 C87.6753329,199.038334 87.5563341,199.078 87.407,199.078 L85.853,199.078 L85.853,202.648 C85.853,203.161336 85.9579989,203.532332 86.168,203.761 C86.378001,203.989668 86.6929979,204.118 87.113,204.146 L87.491,204.174 Z M91.929,205.098 C91.2849968,205.098 90.7180024,204.953335 90.228,204.664 C89.7379975,204.374665 89.3600013,203.961669 89.094,203.425 C88.8279987,202.888331 88.695,202.265337 88.695,201.556 C88.695,200.846663 88.8279987,200.223669 89.094,199.687 C89.3600013,199.150331 89.7379975,198.737335 90.228,198.448 C90.7180024,198.158665 91.2849968,198.014 91.929,198.014 C92.5730032,198.014 93.1423309,198.158665 93.637,198.448 C94.1316691,198.737335 94.5119987,199.150331 94.778,199.687 C95.0440013,200.223669 95.177,200.846663 95.177,201.556 C95.177,202.265337 95.0440013,202.888331 94.778,203.425 C94.5119987,203.961669 94.1316691,204.374665 93.637,204.664 C93.1423309,204.953335 92.5730032,205.098 91.929,205.098 Z M91.929,204.16 C92.6010034,204.16 93.1166649,203.938336 93.476,203.495 C93.8353351,203.051664 94.015,202.405338 94.015,201.556 C94.015,200.725329 93.8330018,200.083669 93.469,199.631 C93.1049982,199.178331 92.59167,198.952 91.929,198.952 C91.26633,198.952 90.7530018,199.178331 90.389,199.631 C90.0249982,200.083669 89.843,200.725329 89.843,201.556 C89.843,202.396004 90.0226649,203.039998 90.382,203.488 C90.7413351,203.936002 91.2569966,204.16 91.929,204.16 Z M102.639,199.932 C103.208336,200.081334 103.649332,200.361331 103.962,200.772 C104.274668,201.182669 104.431,201.695997 104.431,202.312 C104.431,203.180004 104.146336,203.844998 103.577,204.307 C103.007664,204.769002 102.200339,205 101.155,205 L97.627,205 C97.4496658,205 97.3073339,204.948667 97.2,204.846 C97.0926661,204.743333 97.039,204.608001 97.039,204.44 L97.039,195.69 C97.039,195.521999 97.0926661,195.386667 97.2,195.284 C97.3073339,195.181333 97.4496658,195.13 97.627,195.13 L101.001,195.13 C102.018338,195.13 102.806997,195.353998 103.367,195.802 C103.927003,196.250002 104.207,196.884663 104.207,197.706 C104.207,198.238003 104.069335,198.695331 103.794,199.078 C103.518665,199.460669 103.133669,199.745332 102.639,199.932 Z M98.173,199.512 L100.833,199.512 C101.570337,199.512 102.127998,199.362668 102.506,199.064 C102.884002,198.765332 103.073,198.331336 103.073,197.762 C103.073,196.641994 102.326341,196.082 100.833,196.082 L98.173,196.082 L98.173,199.512 Z M101.043,204.048 C101.817671,204.048 102.389331,203.905668 102.758,203.621 C103.126669,203.336332 103.311,202.89067 103.311,202.284 C103.311,201.070661 102.555008,200.464 101.043,200.464 L98.173,200.464 L98.173,204.048 L101.043,204.048 Z M106.881,205.07 C106.712999,205.07 106.575334,205.021 106.468,204.923 C106.360666,204.825 106.307,204.687334 106.307,204.51 L106.307,195.62 C106.307,195.442666 106.360666,195.305 106.468,195.207 C106.575334,195.109 106.712999,195.06 106.881,195.06 C107.039667,195.06 107.172666,195.109 107.28,195.207 C107.387334,195.305 107.441,195.442666 107.441,195.62 L107.441,204.51 C107.441,204.687334 107.387334,204.825 107.28,204.923 C107.172666,205.021 107.039667,205.07 106.881,205.07 Z M112.383,205.098 C111.738997,205.098 111.172002,204.953335 110.682,204.664 C110.191998,204.374665 109.814001,203.961669 109.548,203.425 C109.281999,202.888331 109.149,202.265337 109.149,201.556 C109.149,200.846663 109.281999,200.223669 109.548,199.687 C109.814001,199.150331 110.191998,198.737335 110.682,198.448 C111.172002,198.158665 111.738997,198.014 112.383,198.014 C113.027003,198.014 113.596331,198.158665 114.091,198.448 C114.585669,198.737335 114.965999,199.150331 115.232,199.687 C115.498001,200.223669 115.631,200.846663 115.631,201.556 C115.631,202.265337 115.498001,202.888331 115.232,203.425 C114.965999,203.961669 114.585669,204.374665 114.091,204.664 C113.596331,204.953335 113.027003,205.098 112.383,205.098 Z M112.383,204.16 C113.055003,204.16 113.570665,203.938336 113.93,203.495 C114.289335,203.051664 114.469,202.405338 114.469,201.556 C114.469,200.725329 114.287002,200.083669 113.923,199.631 C113.558998,199.178331 113.04567,198.952 112.383,198.952 C111.72033,198.952 111.207002,199.178331 110.843,199.631 C110.478998,200.083669 110.297,200.725329 110.297,201.556 C110.297,202.396004 110.476665,203.039998 110.836,203.488 C111.195335,203.936002 111.710997,204.16 112.383,204.16 Z M120.139,205.098 C119.50433,205.098 118.942002,204.953335 118.452,204.664 C117.961998,204.374665 117.584001,203.964003 117.318,203.432 C117.051999,202.899997 116.919,202.284003 116.919,201.584 C116.919,200.883996 117.056665,200.263336 117.332,199.722 C117.607335,199.180664 117.992331,198.760668 118.487,198.462 C118.981669,198.163332 119.550997,198.014 120.195,198.014 C120.549668,198.014 120.901998,198.063 121.252,198.161 C121.602002,198.259 121.907665,198.401332 122.169,198.588 C122.337001,198.700001 122.456,198.809666 122.526,198.917 C122.596,199.024334 122.631,199.143333 122.631,199.274 C122.631,199.404667 122.596,199.512 122.526,199.596 C122.456,199.68 122.365001,199.722 122.253,199.722 C122.187666,199.722 122.117667,199.703334 122.043,199.666 C121.968333,199.628666 121.905334,199.591334 121.854,199.554 C121.802666,199.516666 121.767667,199.493333 121.749,199.484 C121.506332,199.325333 121.275334,199.199334 121.056,199.106 C120.836666,199.012666 120.568335,198.966 120.251,198.966 C119.569663,198.966 119.040002,199.196998 118.662,199.659 C118.283998,200.121002 118.095,200.762663 118.095,201.584 C118.095,202.405337 118.283998,203.039998 118.662,203.488 C119.040002,203.936002 119.569663,204.16 120.251,204.16 C120.568335,204.16 120.841332,204.113334 121.07,204.02 C121.298668,203.926666 121.529665,203.800667 121.763,203.642 C121.865667,203.576666 121.963666,203.520667 122.057,203.474 C122.150334,203.427333 122.229666,203.404 122.295,203.404 C122.397667,203.404 122.484,203.446 122.554,203.53 C122.624,203.614 122.659,203.721333 122.659,203.852 C122.659,203.973334 122.626334,204.083 122.561,204.181 C122.495666,204.279 122.374334,204.388666 122.197,204.51 C121.935665,204.687334 121.620669,204.829666 121.252,204.937 C120.883331,205.044334 120.512335,205.098 120.139,205.098 Z M129.477,204.104 C129.626334,204.244001 129.701,204.393333 129.701,204.552 C129.701,204.692001 129.652,204.813333 129.554,204.916 C129.456,205.018667 129.337001,205.07 129.197,205.07 C129.075666,205.07 128.949667,205.014001 128.819,204.902 L125.165,201.752 L125.165,204.51 C125.165,204.687334 125.111334,204.825 125.004,204.923 C124.896666,205.021 124.763667,205.07 124.605,205.07 C124.436999,205.07 124.299334,205.021 124.192,204.923 C124.084666,204.825 124.031,204.687334 124.031,204.51 L124.031,195.62 C124.031,195.442666 124.084666,195.305 124.192,195.207 C124.299334,195.109 124.436999,195.06 124.605,195.06 C124.763667,195.06 124.896666,195.109 125.004,195.207 C125.111334,195.305 125.165,195.442666 125.165,195.62 L125.165,201.304 L128.511,198.238 C128.623001,198.125999 128.748999,198.07 128.889,198.07 C129.029001,198.07 129.150333,198.121333 129.253,198.224 C129.355667,198.326667 129.407,198.447999 129.407,198.588 C129.407,198.746667 129.341667,198.886666 129.211,199.008 L126.453,201.472 L129.477,204.104 Z M133.327,205.098 C132.897665,205.098 132.489335,205.046667 132.102,204.944 C131.714665,204.841333 131.371668,204.696668 131.073,204.51 C130.904999,204.397999 130.786,204.293 130.716,204.195 C130.646,204.097 130.611,203.978001 130.611,203.838 C130.611,203.716666 130.646,203.616334 130.716,203.537 C130.786,203.457666 130.876999,203.418 130.989,203.418 C131.101001,203.418 131.264332,203.487999 131.479,203.628 C131.759001,203.796001 132.036665,203.929 132.312,204.027 C132.587335,204.125 132.930331,204.174 133.341,204.174 C133.845003,204.174 134.236999,204.085334 134.517,203.908 C134.797001,203.730666 134.937,203.474002 134.937,203.138 C134.937,202.932666 134.885667,202.767001 134.783,202.641 C134.680333,202.514999 134.503001,202.403 134.251,202.305 C133.998999,202.207 133.630336,202.106667 133.145,202.004 C132.323663,201.826666 131.735668,201.588668 131.381,201.29 C131.026332,200.991332 130.849,200.585336 130.849,200.072 C130.849,199.670665 130.960999,199.316002 131.185,199.008 C131.409001,198.699998 131.719331,198.457334 132.116,198.28 C132.512669,198.102666 132.962997,198.014 133.467,198.014 C133.831002,198.014 134.183332,198.063 134.524,198.161 C134.864668,198.259 135.165665,198.396666 135.427,198.574 C135.744335,198.798001 135.903,199.031332 135.903,199.274 C135.903,199.395334 135.865667,199.498 135.791,199.582 C135.716333,199.666 135.627667,199.708 135.525,199.708 C135.412999,199.708 135.245001,199.628667 135.021,199.47 C134.759665,199.301999 134.512334,199.171334 134.279,199.078 C134.045665,198.984666 133.756335,198.938 133.411,198.938 C132.972331,198.938 132.620001,199.035999 132.354,199.232 C132.087999,199.428001 131.955,199.689332 131.955,200.016 C131.955,200.221334 132.004,200.386999 132.102,200.513 C132.2,200.639001 132.363332,200.751 132.592,200.849 C132.820668,200.947 133.149665,201.042666 133.579,201.136 C134.21367,201.276001 134.705998,201.429999 135.056,201.598 C135.406002,201.766001 135.655666,201.971332 135.805,202.214 C135.954334,202.456668 136.029,202.764665 136.029,203.138 C136.029,203.726003 135.781669,204.199665 135.287,204.559 C134.792331,204.918335 134.139004,205.098 133.327,205.098 Z" id="KintoBlocks-Copy" fill="#556F7D"></path>
                    <path d="M239.995,205 C239.817666,205 239.675334,204.948667 239.568,204.846 C239.460666,204.743333 239.407,204.608001 239.407,204.44 L239.407,195.69 C239.407,195.521999 239.460666,195.386667 239.568,195.284 C239.675334,195.181333 239.817666,195.13 239.995,195.13 L242.725,195.13 C244.302341,195.13 245.522662,195.556996 246.386,196.411 C247.249338,197.265004 247.681,198.480659 247.681,200.058 C247.681,201.635341 247.247004,202.853329 246.379,203.712 C245.510996,204.570671 244.293008,205 242.725,205 L239.995,205 Z M242.655,204.02 C245.212346,204.02 246.491,202.699347 246.491,200.058 C246.491,197.425987 245.212346,196.11 242.655,196.11 L240.555,196.11 L240.555,204.02 L242.655,204.02 Z M254.863,203.418 C254.965667,203.418 255.054333,203.46 255.129,203.544 C255.203667,203.628 255.241,203.735333 255.241,203.866 C255.241,204.099335 255.077668,204.313999 254.751,204.51 C254.414998,204.706001 254.060335,204.853 253.687,204.951 C253.313665,205.049 252.949668,205.098 252.595,205.098 C251.540328,205.098 250.707336,204.785336 250.096,204.16 C249.484664,203.534664 249.179,202.671339 249.179,201.57 C249.179,200.869997 249.314332,200.251669 249.585,199.715 C249.855668,199.178331 250.235998,198.760668 250.726,198.462 C251.216002,198.163332 251.773664,198.014 252.399,198.014 C253.285671,198.014 253.990331,198.30333 254.513,198.882 C255.035669,199.46067 255.297,200.244662 255.297,201.234 C255.297,201.420668 255.259667,201.556 255.185,201.64 C255.110333,201.724 254.989001,201.766 254.821,201.766 L250.313,201.766 C250.397,203.371341 251.157659,204.174 252.595,204.174 C252.959002,204.174 253.271665,204.125 253.533,204.027 C253.794335,203.929 254.074332,203.796001 254.373,203.628 C254.615668,203.487999 254.779,203.418 254.863,203.418 Z M252.413,198.896 C251.815664,198.896 251.337335,199.082665 250.978,199.456 C250.618665,199.829335 250.406334,200.356663 250.341,201.038 L254.303,201.038 C254.284333,200.34733 254.111668,199.817669 253.785,199.449 C253.458332,199.080331 253.001003,198.896 252.413,198.896 Z M260.393,198.014 C260.990336,198.014 261.517664,198.163332 261.975,198.462 C262.432336,198.760668 262.786999,199.178331 263.039,199.715 C263.291001,200.251669 263.417,200.874663 263.417,201.584 C263.417,202.293337 263.291001,202.911664 263.039,203.439 C262.786999,203.966336 262.434669,204.374665 261.982,204.664 C261.529331,204.953335 260.99967,205.098 260.393,205.098 C259.860997,205.098 259.396669,204.981335 259,204.748 C258.603331,204.514666 258.302334,204.183335 258.097,203.754 L258.097,207.044 C258.097,207.212001 258.048,207.345 257.95,207.443 C257.852,207.541 257.714334,207.59 257.537,207.59 C257.359666,207.59 257.219667,207.538667 257.117,207.436 C257.014333,207.333333 256.963,207.202667 256.963,207.044 L256.963,198.602 C256.963,198.433999 257.014333,198.298667 257.117,198.196 C257.219667,198.093333 257.359666,198.042 257.537,198.042 C257.714334,198.042 257.852,198.093333 257.95,198.196 C258.048,198.298667 258.097,198.433999 258.097,198.602 L258.097,199.358 C258.302334,198.928665 258.603331,198.597335 259,198.364 C259.396669,198.130666 259.860997,198.014 260.393,198.014 Z M260.169,204.16 C260.83167,204.16 261.344998,203.936002 261.709,203.488 C262.073002,203.039998 262.255,202.405337 262.255,201.584 C262.255,200.762663 262.073002,200.121002 261.709,199.659 C261.344998,199.196998 260.83167,198.966 260.169,198.966 C259.50633,198.966 258.995335,199.189998 258.636,199.638 C258.276665,200.086002 258.097,200.725329 258.097,201.556 C258.097,202.386671 258.276665,203.028331 258.636,203.481 C258.995335,203.933669 259.50633,204.16 260.169,204.16 Z M265.685,205.07 C265.516999,205.07 265.379334,205.021 265.272,204.923 C265.164666,204.825 265.111,204.687334 265.111,204.51 L265.111,195.62 C265.111,195.442666 265.164666,195.305 265.272,195.207 C265.379334,195.109 265.516999,195.06 265.685,195.06 C265.843667,195.06 265.976666,195.109 266.084,195.207 C266.191334,195.305 266.245,195.442666 266.245,195.62 L266.245,204.51 C266.245,204.687334 266.191334,204.825 266.084,204.923 C265.976666,205.021 265.843667,205.07 265.685,205.07 Z M271.187,205.098 C270.542997,205.098 269.976002,204.953335 269.486,204.664 C268.995998,204.374665 268.618001,203.961669 268.352,203.425 C268.085999,202.888331 267.953,202.265337 267.953,201.556 C267.953,200.846663 268.085999,200.223669 268.352,199.687 C268.618001,199.150331 268.995998,198.737335 269.486,198.448 C269.976002,198.158665 270.542997,198.014 271.187,198.014 C271.831003,198.014 272.400331,198.158665 272.895,198.448 C273.389669,198.737335 273.769999,199.150331 274.036,199.687 C274.302001,200.223669 274.435,200.846663 274.435,201.556 C274.435,202.265337 274.302001,202.888331 274.036,203.425 C273.769999,203.961669 273.389669,204.374665 272.895,204.664 C272.400331,204.953335 271.831003,205.098 271.187,205.098 Z M271.187,204.16 C271.859003,204.16 272.374665,203.938336 272.734,203.495 C273.093335,203.051664 273.273,202.405338 273.273,201.556 C273.273,200.725329 273.091002,200.083669 272.727,199.631 C272.362998,199.178331 271.84967,198.952 271.187,198.952 C270.52433,198.952 270.011002,199.178331 269.647,199.631 C269.282998,200.083669 269.101,200.725329 269.101,201.556 C269.101,202.396004 269.280665,203.039998 269.64,203.488 C269.999335,203.936002 270.514997,204.16 271.187,204.16 Z M281.043,198.392 C281.145667,198.167999 281.308999,198.056 281.533,198.056 C281.673001,198.056 281.798999,198.102666 281.911,198.196 C282.023001,198.289334 282.079,198.405999 282.079,198.546 C282.079,198.63 282.060334,198.704666 282.023,198.77 L278.089,207.254 C278.042333,207.356667 277.974667,207.436 277.886,207.492 C277.797333,207.548 277.706334,207.576 277.613,207.576 C277.472999,207.576 277.349334,207.531667 277.242,207.443 C277.134666,207.354333 277.081,207.240001 277.081,207.1 C277.081,207.025333 277.099666,206.950667 277.137,206.876 L278.117,204.762 L275.345,198.77 C275.307666,198.704666 275.289,198.634667 275.289,198.56 C275.289,198.419999 275.351999,198.298667 275.478,198.196 C275.604001,198.093333 275.741666,198.042 275.891,198.042 C275.984334,198.042 276.075333,198.07 276.164,198.126 C276.252667,198.182 276.320333,198.261333 276.367,198.364 L278.705,203.614 L281.043,198.392 Z M290.913,198.014 C292.425008,198.014 293.181,198.914658 293.181,200.716 L293.181,204.51 C293.181,204.687334 293.129667,204.825 293.027,204.923 C292.924333,205.021 292.789001,205.07 292.621,205.07 C292.452999,205.07 292.315334,205.021 292.208,204.923 C292.100666,204.825 292.047,204.687334 292.047,204.51 L292.047,200.744 C292.047,200.118664 291.935001,199.666001 291.711,199.386 C291.486999,199.105999 291.137002,198.966 290.661,198.966 C290.091664,198.966 289.643668,199.157331 289.317,199.54 C288.990332,199.922669 288.827,200.440663 288.827,201.094 L288.827,204.51 C288.827,204.687334 288.773334,204.825 288.666,204.923 C288.558666,205.021 288.421001,205.07 288.253,205.07 C288.084999,205.07 287.949667,205.021 287.847,204.923 C287.744333,204.825 287.693,204.687334 287.693,204.51 L287.693,200.744 C287.693,200.118664 287.581001,199.666001 287.357,199.386 C287.132999,199.105999 286.778336,198.966 286.293,198.966 C285.732997,198.966 285.287335,199.157331 284.956,199.54 C284.624665,199.922669 284.459,200.440663 284.459,201.094 L284.459,204.51 C284.459,204.687334 284.407667,204.825 284.305,204.923 C284.202333,205.021 284.067001,205.07 283.899,205.07 C283.730999,205.07 283.593334,205.021 283.486,204.923 C283.378666,204.825 283.325,204.687334 283.325,204.51 L283.325,198.602 C283.325,198.433999 283.378666,198.298667 283.486,198.196 C283.593334,198.093333 283.730999,198.042 283.899,198.042 C284.057667,198.042 284.188333,198.091 284.291,198.189 C284.393667,198.287 284.445,198.419999 284.445,198.588 L284.445,199.26 C284.650334,198.858665 284.934998,198.550668 285.299,198.336 C285.663002,198.121332 286.082998,198.014 286.559,198.014 C287.623005,198.014 288.318332,198.461996 288.645,199.358 C288.841001,198.947331 289.139665,198.620668 289.541,198.378 C289.942335,198.135332 290.399664,198.014 290.913,198.014 Z M300.531,203.418 C300.633667,203.418 300.722333,203.46 300.797,203.544 C300.871667,203.628 300.909,203.735333 300.909,203.866 C300.909,204.099335 300.745668,204.313999 300.419,204.51 C300.082998,204.706001 299.728335,204.853 299.355,204.951 C298.981665,205.049 298.617668,205.098 298.263,205.098 C297.208328,205.098 296.375336,204.785336 295.764,204.16 C295.152664,203.534664 294.847,202.671339 294.847,201.57 C294.847,200.869997 294.982332,200.251669 295.253,199.715 C295.523668,199.178331 295.903998,198.760668 296.394,198.462 C296.884002,198.163332 297.441664,198.014 298.067,198.014 C298.953671,198.014 299.658331,198.30333 300.181,198.882 C300.703669,199.46067 300.965,200.244662 300.965,201.234 C300.965,201.420668 300.927667,201.556 300.853,201.64 C300.778333,201.724 300.657001,201.766 300.489,201.766 L295.981,201.766 C296.065,203.371341 296.825659,204.174 298.263,204.174 C298.627002,204.174 298.939665,204.125 299.201,204.027 C299.462335,203.929 299.742332,203.796001 300.041,203.628 C300.283668,203.487999 300.447,203.418 300.531,203.418 Z M298.081,198.896 C297.483664,198.896 297.005335,199.082665 296.646,199.456 C296.286665,199.829335 296.074334,200.356663 296.009,201.038 L299.971,201.038 C299.952333,200.34733 299.779668,199.817669 299.453,199.449 C299.126332,199.080331 298.669003,198.896 298.081,198.896 Z M306.061,198.014 C307.694341,198.014 308.511,198.914658 308.511,200.716 L308.511,204.51 C308.511,204.687334 308.462,204.825 308.364,204.923 C308.266,205.021 308.128334,205.07 307.951,205.07 C307.773666,205.07 307.633667,205.021 307.531,204.923 C307.428333,204.825 307.377,204.687334 307.377,204.51 L307.377,200.786 C307.377,200.15133 307.253335,199.689335 307.006,199.4 C306.758665,199.110665 306.364336,198.966 305.823,198.966 C305.197664,198.966 304.698335,199.157331 304.325,199.54 C303.951665,199.922669 303.765,200.440663 303.765,201.094 L303.765,204.51 C303.765,204.687334 303.716,204.825 303.618,204.923 C303.52,205.021 303.382334,205.07 303.205,205.07 C303.027666,205.07 302.887667,205.021 302.785,204.923 C302.682333,204.825 302.631,204.687334 302.631,204.51 L302.631,198.602 C302.631,198.433999 302.682333,198.298667 302.785,198.196 C302.887667,198.093333 303.027666,198.042 303.205,198.042 C303.373001,198.042 303.506,198.093333 303.604,198.196 C303.702,198.298667 303.751,198.429333 303.751,198.588 L303.751,199.302 C303.975001,198.881998 304.287665,198.562334 304.689,198.343 C305.090335,198.123666 305.547664,198.014 306.061,198.014 Z M313.733,204.174 C314.059668,204.202 314.223,204.351332 314.223,204.622 C314.223,204.780667 314.164667,204.899666 314.048,204.979 C313.931333,205.058334 313.756334,205.088667 313.523,205.07 L313.145,205.042 C312.39833,204.986 311.847668,204.762002 311.493,204.37 C311.138332,203.977998 310.961,203.385337 310.961,202.592 L310.961,199.078 L310.023,199.078 C309.864333,199.078 309.740667,199.038334 309.652,198.959 C309.563333,198.879666 309.519,198.774667 309.519,198.644 C309.519,198.503999 309.563333,198.392 309.652,198.308 C309.740667,198.224 309.864333,198.182 310.023,198.182 L310.961,198.182 L310.961,196.6 C310.961,196.422666 311.012333,196.285 311.115,196.187 C311.217667,196.089 311.357666,196.04 311.535,196.04 C311.703001,196.04 311.838333,196.089 311.941,196.187 C312.043667,196.285 312.095,196.422666 312.095,196.6 L312.095,198.182 L313.649,198.182 C313.798334,198.182 313.917333,198.224 314.006,198.308 C314.094667,198.392 314.139,198.503999 314.139,198.644 C314.139,198.774667 314.094667,198.879666 314.006,198.959 C313.917333,199.038334 313.798334,199.078 313.649,199.078 L312.095,199.078 L312.095,202.648 C312.095,203.161336 312.199999,203.532332 312.41,203.761 C312.620001,203.989668 312.934998,204.118 313.355,204.146 L313.733,204.174 Z M317.639,205.098 C317.209665,205.098 316.801335,205.046667 316.414,204.944 C316.026665,204.841333 315.683668,204.696668 315.385,204.51 C315.216999,204.397999 315.098,204.293 315.028,204.195 C314.958,204.097 314.923,203.978001 314.923,203.838 C314.923,203.716666 314.958,203.616334 315.028,203.537 C315.098,203.457666 315.188999,203.418 315.301,203.418 C315.413001,203.418 315.576332,203.487999 315.791,203.628 C316.071001,203.796001 316.348665,203.929 316.624,204.027 C316.899335,204.125 317.242331,204.174 317.653,204.174 C318.157003,204.174 318.548999,204.085334 318.829,203.908 C319.109001,203.730666 319.249,203.474002 319.249,203.138 C319.249,202.932666 319.197667,202.767001 319.095,202.641 C318.992333,202.514999 318.815001,202.403 318.563,202.305 C318.310999,202.207 317.942336,202.106667 317.457,202.004 C316.635663,201.826666 316.047668,201.588668 315.693,201.29 C315.338332,200.991332 315.161,200.585336 315.161,200.072 C315.161,199.670665 315.272999,199.316002 315.497,199.008 C315.721001,198.699998 316.031331,198.457334 316.428,198.28 C316.824669,198.102666 317.274997,198.014 317.779,198.014 C318.143002,198.014 318.495332,198.063 318.836,198.161 C319.176668,198.259 319.477665,198.396666 319.739,198.574 C320.056335,198.798001 320.215,199.031332 320.215,199.274 C320.215,199.395334 320.177667,199.498 320.103,199.582 C320.028333,199.666 319.939667,199.708 319.837,199.708 C319.724999,199.708 319.557001,199.628667 319.333,199.47 C319.071665,199.301999 318.824334,199.171334 318.591,199.078 C318.357665,198.984666 318.068335,198.938 317.723,198.938 C317.284331,198.938 316.932001,199.035999 316.666,199.232 C316.399999,199.428001 316.267,199.689332 316.267,200.016 C316.267,200.221334 316.316,200.386999 316.414,200.513 C316.512,200.639001 316.675332,200.751 316.904,200.849 C317.132668,200.947 317.461665,201.042666 317.891,201.136 C318.52567,201.276001 319.017998,201.429999 319.368,201.598 C319.718002,201.766001 319.967666,201.971332 320.117,202.214 C320.266334,202.456668 320.341,202.764665 320.341,203.138 C320.341,203.726003 320.093669,204.199665 319.599,204.559 C319.104331,204.918335 318.451004,205.098 317.639,205.098 Z" id="Deployments" fill="#556F7D"></path>
                    <path d="M439.763,205 C439.585666,205 439.443334,204.948667 439.336,204.846 C439.228666,204.743333 439.175,204.608001 439.175,204.44 L439.175,195.69 C439.175,195.521999 439.228666,195.386667 439.336,195.284 C439.443334,195.181333 439.585666,195.13 439.763,195.13 L442.493,195.13 C444.070341,195.13 445.290662,195.556996 446.154,196.411 C447.017338,197.265004 447.449,198.480659 447.449,200.058 C447.449,201.635341 447.015004,202.853329 446.147,203.712 C445.278996,204.570671 444.061008,205 442.493,205 L439.763,205 Z M442.423,204.02 C444.980346,204.02 446.259,202.699347 446.259,200.058 C446.259,197.425987 444.980346,196.11 442.423,196.11 L440.323,196.11 L440.323,204.02 L442.423,204.02 Z M454.631,203.418 C454.733667,203.418 454.822333,203.46 454.897,203.544 C454.971667,203.628 455.009,203.735333 455.009,203.866 C455.009,204.099334 454.845668,204.313999 454.519,204.51 C454.182998,204.706001 453.828335,204.853 453.455,204.951 C453.081665,205.049 452.717668,205.098 452.363,205.098 C451.308328,205.098 450.475336,204.785336 449.864,204.16 C449.252664,203.534664 448.947,202.671339 448.947,201.57 C448.947,200.869996 449.082332,200.251669 449.353,199.715 C449.623668,199.178331 450.003998,198.760668 450.494,198.462 C450.984002,198.163332 451.541664,198.014 452.167,198.014 C453.053671,198.014 453.758331,198.30333 454.281,198.882 C454.803669,199.46067 455.065,200.244662 455.065,201.234 C455.065,201.420668 455.027667,201.556 454.953,201.64 C454.878333,201.724 454.757001,201.766 454.589,201.766 L450.081,201.766 C450.165,203.371341 450.925659,204.174 452.363,204.174 C452.727002,204.174 453.039665,204.125 453.301,204.027 C453.562335,203.929 453.842332,203.796001 454.141,203.628 C454.383668,203.487999 454.547,203.418 454.631,203.418 Z M452.181,198.896 C451.583664,198.896 451.105335,199.082665 450.746,199.456 C450.386665,199.829335 450.174334,200.356663 450.109,201.038 L454.071,201.038 C454.052333,200.34733 453.879668,199.817669 453.553,199.449 C453.226332,199.080331 452.769003,198.896 452.181,198.896 Z M460.161,198.014 C460.758336,198.014 461.285664,198.163332 461.743,198.462 C462.200336,198.760668 462.554999,199.178331 462.807,199.715 C463.059001,200.251669 463.185,200.874663 463.185,201.584 C463.185,202.293337 463.059001,202.911664 462.807,203.439 C462.554999,203.966336 462.202669,204.374665 461.75,204.664 C461.297331,204.953335 460.76767,205.098 460.161,205.098 C459.628997,205.098 459.164669,204.981334 458.768,204.748 C458.371331,204.514665 458.070334,204.183335 457.865,203.754 L457.865,207.044 C457.865,207.212001 457.816,207.345 457.718,207.443 C457.62,207.541 457.482334,207.59 457.305,207.59 C457.127666,207.59 456.987667,207.538667 456.885,207.436 C456.782333,207.333333 456.731,207.202667 456.731,207.044 L456.731,198.602 C456.731,198.433999 456.782333,198.298667 456.885,198.196 C456.987667,198.093333 457.127666,198.042 457.305,198.042 C457.482334,198.042 457.62,198.093333 457.718,198.196 C457.816,198.298667 457.865,198.433999 457.865,198.602 L457.865,199.358 C458.070334,198.928665 458.371331,198.597334 458.768,198.364 C459.164669,198.130665 459.628997,198.014 460.161,198.014 Z M459.937,204.16 C460.59967,204.16 461.112998,203.936002 461.477,203.488 C461.841002,203.039998 462.023,202.405337 462.023,201.584 C462.023,200.762663 461.841002,200.121002 461.477,199.659 C461.112998,199.196998 460.59967,198.966 459.937,198.966 C459.27433,198.966 458.763335,199.189998 458.404,199.638 C458.044665,200.086002 457.865,200.725329 457.865,201.556 C457.865,202.386671 458.044665,203.028331 458.404,203.481 C458.763335,203.933669 459.27433,204.16 459.937,204.16 Z M465.453,205.07 C465.284999,205.07 465.147334,205.021 465.04,204.923 C464.932666,204.825 464.879,204.687334 464.879,204.51 L464.879,195.62 C464.879,195.442666 464.932666,195.305 465.04,195.207 C465.147334,195.109 465.284999,195.06 465.453,195.06 C465.611667,195.06 465.744666,195.109 465.852,195.207 C465.959334,195.305 466.013,195.442666 466.013,195.62 L466.013,204.51 C466.013,204.687334 465.959334,204.825 465.852,204.923 C465.744666,205.021 465.611667,205.07 465.453,205.07 Z M470.955,205.098 C470.310997,205.098 469.744002,204.953335 469.254,204.664 C468.763998,204.374665 468.386001,203.961669 468.12,203.425 C467.853999,202.888331 467.721,202.265337 467.721,201.556 C467.721,200.846663 467.853999,200.223669 468.12,199.687 C468.386001,199.150331 468.763998,198.737335 469.254,198.448 C469.744002,198.158665 470.310997,198.014 470.955,198.014 C471.599003,198.014 472.168331,198.158665 472.663,198.448 C473.157669,198.737335 473.537999,199.150331 473.804,199.687 C474.070001,200.223669 474.203,200.846663 474.203,201.556 C474.203,202.265337 474.070001,202.888331 473.804,203.425 C473.537999,203.961669 473.157669,204.374665 472.663,204.664 C472.168331,204.953335 471.599003,205.098 470.955,205.098 Z M470.955,204.16 C471.627003,204.16 472.142665,203.938336 472.502,203.495 C472.861335,203.051664 473.041,202.405338 473.041,201.556 C473.041,200.725329 472.859002,200.083669 472.495,199.631 C472.130998,199.178331 471.61767,198.952 470.955,198.952 C470.29233,198.952 469.779002,199.178331 469.415,199.631 C469.050998,200.083669 468.869,200.725329 468.869,201.556 C468.869,202.396004 469.048665,203.039998 469.408,203.488 C469.767335,203.936002 470.282997,204.16 470.955,204.16 Z M480.811,198.392 C480.913667,198.167999 481.076999,198.056 481.301,198.056 C481.441001,198.056 481.566999,198.102666 481.679,198.196 C481.791001,198.289334 481.847,198.405999 481.847,198.546 C481.847,198.63 481.828334,198.704666 481.791,198.77 L477.857,207.254 C477.810333,207.356667 477.742667,207.436 477.654,207.492 C477.565333,207.548 477.474334,207.576 477.381,207.576 C477.240999,207.576 477.117334,207.531667 477.01,207.443 C476.902666,207.354333 476.849,207.240001 476.849,207.1 C476.849,207.025333 476.867666,206.950667 476.905,206.876 L477.885,204.762 L475.113,198.77 C475.075666,198.704666 475.057,198.634667 475.057,198.56 C475.057,198.419999 475.119999,198.298667 475.246,198.196 C475.372001,198.093333 475.509666,198.042 475.659,198.042 C475.752334,198.042 475.843333,198.07 475.932,198.126 C476.020667,198.182 476.088333,198.261333 476.135,198.364 L478.473,203.614 L480.811,198.392 Z" id="Deploy-Copy" fill="#556F7D"></path>
                    <path d="M617.145,205.112 C616.211662,205.112 615.404337,204.909002 614.723,204.503 C614.041663,204.096998 613.516669,203.51367 613.148,202.753 C612.779331,201.99233 612.595,201.094005 612.595,200.058 C612.595,199.031328 612.779331,198.13767 613.148,197.377 C613.516669,196.61633 614.041663,196.033002 614.723,195.627 C615.404337,195.220998 616.211662,195.018 617.145,195.018 C617.770336,195.018 618.360664,195.118332 618.916,195.319 C619.471336,195.519668 619.954331,195.806665 620.365,196.18 C620.514334,196.320001 620.589,196.483332 620.589,196.67 C620.589,196.800667 620.551667,196.915 620.477,197.013 C620.402333,197.111 620.313667,197.16 620.211,197.16 C620.098999,197.16 619.963667,197.108667 619.805,197.006 C619.328998,196.632665 618.897335,196.371334 618.51,196.222 C618.122665,196.072666 617.677003,195.998 617.173,195.998 C616.090328,195.998 615.257336,196.35033 614.674,197.055 C614.090664,197.75967 613.799,198.76066 613.799,200.058 C613.799,201.364673 614.090664,202.37033 614.674,203.075 C615.257336,203.77967 616.090328,204.132 617.173,204.132 C617.667669,204.132 618.110998,204.057334 618.503,203.908 C618.895002,203.758666 619.328998,203.497335 619.805,203.124 C619.963667,203.021333 620.098999,202.97 620.211,202.97 C620.313667,202.97 620.402333,203.016666 620.477,203.11 C620.551667,203.203334 620.589,203.319999 620.589,203.46 C620.589,203.646668 620.514334,203.809999 620.365,203.95 C619.954331,204.323335 619.471336,204.610332 618.916,204.811 C618.360664,205.011668 617.770336,205.112 617.145,205.112 Z M625.055,198.014 C626.763009,198.014 627.617,198.909991 627.617,200.702 L627.617,204.51 C627.617,204.678001 627.568,204.813333 627.47,204.916 C627.372,205.018667 627.239001,205.07 627.071,205.07 C626.902999,205.07 626.767667,205.018667 626.665,204.916 C626.562333,204.813333 626.511,204.678001 626.511,204.51 L626.511,203.838 C626.333666,204.239335 626.063002,204.549666 625.699,204.769 C625.334998,204.988334 624.915002,205.098 624.439,205.098 C624.000331,205.098 623.596669,205.009334 623.228,204.832 C622.859331,204.654666 622.567668,204.407335 622.353,204.09 C622.138332,203.772665 622.031,203.422669 622.031,203.04 C622.031,202.526664 622.161665,202.127668 622.423,201.843 C622.684335,201.558332 623.113664,201.353001 623.711,201.227 C624.308336,201.100999 625.138995,201.038 626.203,201.038 L626.511,201.038 L626.511,200.576 C626.511,200.015997 626.396668,199.605335 626.168,199.344 C625.939332,199.082665 625.568336,198.952 625.055,198.952 C624.42033,198.952 623.776337,199.124665 623.123,199.47 C622.870999,199.628667 622.693667,199.708 622.591,199.708 C622.478999,199.708 622.385667,199.666 622.311,199.582 C622.236333,199.498 622.199,199.390667 622.199,199.26 C622.199,199.129333 622.238666,199.015 622.318,198.917 C622.397334,198.819 622.525666,198.718667 622.703,198.616 C623.029668,198.429332 623.400665,198.282334 623.816,198.175 C624.231335,198.067666 624.644331,198.014 625.055,198.014 Z M624.593,204.202 C625.153003,204.202 625.612665,204.013002 625.972,203.635 C626.331335,203.256998 626.511,202.769336 626.511,202.172 L626.511,201.766 L626.259,201.766 C625.437663,201.766 624.812335,201.801 624.383,201.871 C623.953665,201.941 623.648001,202.057666 623.466,202.221 C623.283999,202.384334 623.193,202.624665 623.193,202.942 C623.193,203.306002 623.325999,203.606999 623.592,203.845 C623.858001,204.083001 624.191665,204.202 624.593,204.202 Z M630.263,205.07 C630.094999,205.07 629.957334,205.021 629.85,204.923 C629.742666,204.825 629.689,204.687334 629.689,204.51 L629.689,195.62 C629.689,195.442666 629.742666,195.305 629.85,195.207 C629.957334,195.109 630.094999,195.06 630.263,195.06 C630.421667,195.06 630.554666,195.109 630.662,195.207 C630.769334,195.305 630.823,195.442666 630.823,195.62 L630.823,204.51 C630.823,204.687334 630.769334,204.825 630.662,204.923 C630.554666,205.021 630.421667,205.07 630.263,205.07 Z M633.511,205.07 C633.342999,205.07 633.205334,205.021 633.098,204.923 C632.990666,204.825 632.937,204.687334 632.937,204.51 L632.937,195.62 C632.937,195.442666 632.990666,195.305 633.098,195.207 C633.205334,195.109 633.342999,195.06 633.511,195.06 C633.669667,195.06 633.802666,195.109 633.91,195.207 C634.017334,195.305 634.071,195.442666 634.071,195.62 L634.071,204.51 C634.071,204.687334 634.017334,204.825 633.91,204.923 C633.802666,205.021 633.669667,205.07 633.511,205.07 Z M648.463,204.342 C648.500334,204.416667 648.519,204.496 648.519,204.58 C648.519,204.720001 648.465334,204.836666 648.358,204.93 C648.250666,205.023334 648.122334,205.07 647.973,205.07 C647.739666,205.07 647.576334,204.958001 647.483,204.734 L646.489,202.466 L641.211,202.466 L640.203,204.734 C640.109666,204.958001 639.946335,205.07 639.713,205.07 C639.563666,205.07 639.433001,205.021 639.321,204.923 C639.208999,204.825 639.153,204.706001 639.153,204.566 C639.153,204.491333 639.171666,204.416667 639.209,204.342 L643.213,195.438 C643.269,195.307333 643.352999,195.209334 643.465,195.144 C643.577001,195.078666 643.698333,195.046 643.829,195.046 C643.969001,195.046 644.094999,195.081 644.207,195.151 C644.319001,195.221 644.403,195.316666 644.459,195.438 L648.463,204.342 Z M641.631,201.514 L646.069,201.514 L643.843,196.488 L641.631,201.514 Z M650.717,205.07 C650.539666,205.07 650.399667,205.016334 650.297,204.909 C650.194333,204.801666 650.143,204.659334 650.143,204.482 L650.143,195.69 C650.143,195.521999 650.196666,195.386667 650.304,195.284 C650.411334,195.181333 650.553666,195.13 650.731,195.13 L654.049,195.13 C655.085005,195.13 655.889997,195.381997 656.464,195.886 C657.038003,196.390003 657.325,197.103995 657.325,198.028 C657.325,198.952005 657.03567,199.670664 656.457,200.184 C655.87833,200.697336 655.075672,200.954 654.049,200.954 L651.291,200.954 L651.291,204.482 C651.291,204.659334 651.239667,204.801666 651.137,204.909 C651.034333,205.016334 650.894334,205.07 650.717,205.07 Z M653.937,200.002 C655.439674,200.002 656.191,199.344007 656.191,198.028 C656.191,196.73066 655.439674,196.082 653.937,196.082 L651.291,196.082 L651.291,200.002 L653.937,200.002 Z M659.747,205.07 C659.569666,205.07 659.429667,205.016334 659.327,204.909 C659.224333,204.801666 659.173,204.659334 659.173,204.482 L659.173,195.648 C659.173,195.470666 659.224333,195.328334 659.327,195.221 C659.429667,195.113666 659.569666,195.06 659.747,195.06 C659.924334,195.06 660.064333,195.113666 660.167,195.221 C660.269667,195.328334 660.321,195.470666 660.321,195.648 L660.321,204.482 C660.321,204.659334 660.269667,204.801666 660.167,204.909 C660.064333,205.016334 659.924334,205.07 659.747,205.07 Z M664.885,205.098 C664.455665,205.098 664.047335,205.046667 663.66,204.944 C663.272665,204.841333 662.929668,204.696668 662.631,204.51 C662.462999,204.397999 662.344,204.293 662.274,204.195 C662.204,204.097 662.169,203.978001 662.169,203.838 C662.169,203.716666 662.204,203.616334 662.274,203.537 C662.344,203.457666 662.434999,203.418 662.547,203.418 C662.659001,203.418 662.822332,203.487999 663.037,203.628 C663.317001,203.796001 663.594665,203.929 663.87,204.027 C664.145335,204.125 664.488331,204.174 664.899,204.174 C665.403003,204.174 665.794999,204.085334 666.075,203.908 C666.355001,203.730666 666.495,203.474002 666.495,203.138 C666.495,202.932666 666.443667,202.767001 666.341,202.641 C666.238333,202.514999 666.061001,202.403 665.809,202.305 C665.556999,202.207 665.188336,202.106667 664.703,202.004 C663.881663,201.826666 663.293668,201.588668 662.939,201.29 C662.584332,200.991332 662.407,200.585336 662.407,200.072 C662.407,199.670665 662.518999,199.316002 662.743,199.008 C662.967001,198.699998 663.277331,198.457334 663.674,198.28 C664.070669,198.102666 664.520997,198.014 665.025,198.014 C665.389002,198.014 665.741332,198.063 666.082,198.161 C666.422668,198.259 666.723665,198.396666 666.985,198.574 C667.302335,198.798001 667.461,199.031332 667.461,199.274 C667.461,199.395334 667.423667,199.498 667.349,199.582 C667.274333,199.666 667.185667,199.708 667.083,199.708 C666.970999,199.708 666.803001,199.628667 666.579,199.47 C666.317665,199.301999 666.070335,199.171334 665.837,199.078 C665.603666,198.984666 665.314335,198.938 664.969,198.938 C664.530331,198.938 664.178001,199.035999 663.912,199.232 C663.645999,199.428001 663.513,199.689332 663.513,200.016 C663.513,200.221334 663.562,200.386999 663.66,200.513 C663.758,200.639001 663.921332,200.751 664.15,200.849 C664.378668,200.947 664.707665,201.042666 665.137,201.136 C665.77167,201.276001 666.263998,201.429999 666.614,201.598 C666.964002,201.766001 667.213666,201.971332 667.363,202.214 C667.512334,202.456668 667.587,202.764665 667.587,203.138 C667.587,203.726003 667.339669,204.199665 666.845,204.559 C666.350331,204.918335 665.697004,205.098 664.885,205.098 Z" id="Call-APIs-Copy" fill="#556F7D"></path>
                </g>
            </g>
        </g>
    </g>
</svg>