<?xml version="1.0" encoding="UTF-8"?>
<svg width="480px" height="380px" viewBox="0 0 480 380" version="1.1" xmlns="http://www.w3.org/2000/svg" xmlns:xlink="http://www.w3.org/1999/xlink">
    <!-- Generator: Sketch 54.1 (76490) - https://sketchapp.com -->
    <title>workflow-sync</title>
    <desc>Created with Sketch.</desc>
    <defs>
        <linearGradient x1="50%" y1="0%" x2="50%" y2="100%" id="linearGradient-1">
            <stop stop-color="#4E82EE" offset="0%"></stop>
            <stop stop-color="#1EC4E9" stop-opacity="0" offset="100%"></stop>
        </linearGradient>
        <linearGradient x1="50%" y1="100%" x2="50%" y2="3.061617e-15%" id="linearGradient-2">
            <stop stop-color="#4E82EE" offset="0%"></stop>
            <stop stop-color="#1EC4E9" stop-opacity="0" offset="100%"></stop>
        </linearGradient>
        <rect id="path-3" x="0" y="0" width="202.057143" height="201.846154" rx="100.923077"></rect>
        <filter x="-27.2%" y="-20.3%" width="154.4%" height="154.5%" filterUnits="objectBoundingBox" id="filter-4">
            <feOffset dx="0" dy="14" in="SourceAlpha" result="shadowOffsetOuter1"></feOffset>
            <feGaussianBlur stdDeviation="16" in="shadowOffsetOuter1" result="shadowBlurOuter1"></feGaussianBlur>
            <feColorMatrix values="0 0 0 0 0.264605561   0 0 0 0 0.188443119   0 0 0 0 0.72339221  0 0 0 0.199000219 0" type="matrix" in="shadowBlurOuter1"></feColorMatrix>
        </filter>
        <rect id="path-5" x="0" y="0" width="75.7714286" height="75.6923077" rx="37.8461538"></rect>
        <filter x="-83.8%" y="-70.7%" width="267.6%" height="267.8%" filterUnits="objectBoundingBox" id="filter-6">
            <feOffset dx="0" dy="10" in="SourceAlpha" result="shadowOffsetOuter1"></feOffset>
            <feGaussianBlur stdDeviation="19.5" in="shadowOffsetOuter1" result="shadowBlurOuter1"></feGaussianBlur>
            <feColorMatrix values="0 0 0 0 0.258823529   0 0 0 0 0.462745098   0 0 0 0 0.57254902  0 0 0 0.0983937937 0" type="matrix" in="shadowBlurOuter1" result="shadowMatrixOuter1"></feColorMatrix>
            <feOffset dx="0" dy="3" in="SourceAlpha" result="shadowOffsetOuter2"></feOffset>
            <feGaussianBlur stdDeviation="2" in="shadowOffsetOuter2" result="shadowBlurOuter2"></feGaussianBlur>
            <feColorMatrix values="0 0 0 0 0.258823529   0 0 0 0 0.462745098   0 0 0 0 0.57254902  0 0 0 0.2 0" type="matrix" in="shadowBlurOuter2" result="shadowMatrixOuter2"></feColorMatrix>
            <feMerge>
                <feMergeNode in="shadowMatrixOuter1"></feMergeNode>
                <feMergeNode in="shadowMatrixOuter2"></feMergeNode>
            </feMerge>
        </filter>
        <rect id="path-7" x="0" y="0" width="75.7714286" height="75.6923077" rx="37.8461538"></rect>
        <filter x="-83.8%" y="-70.7%" width="267.6%" height="267.8%" filterUnits="objectBoundingBox" id="filter-8">
            <feOffset dx="0" dy="10" in="SourceAlpha" result="shadowOffsetOuter1"></feOffset>
            <feGaussianBlur stdDeviation="19.5" in="shadowOffsetOuter1" result="shadowBlurOuter1"></feGaussianBlur>
            <feColorMatrix values="0 0 0 0 0.258823529   0 0 0 0 0.462745098   0 0 0 0 0.57254902  0 0 0 0.0983937937 0" type="matrix" in="shadowBlurOuter1" result="shadowMatrixOuter1"></feColorMatrix>
            <feOffset dx="0" dy="3" in="SourceAlpha" result="shadowOffsetOuter2"></feOffset>
            <feGaussianBlur stdDeviation="2" in="shadowOffsetOuter2" result="shadowBlurOuter2"></feGaussianBlur>
            <feColorMatrix values="0 0 0 0 0.258823529   0 0 0 0 0.462745098   0 0 0 0 0.57254902  0 0 0 0.2 0" type="matrix" in="shadowBlurOuter2" result="shadowMatrixOuter2"></feColorMatrix>
            <feMerge>
                <feMergeNode in="shadowMatrixOuter1"></feMergeNode>
                <feMergeNode in="shadowMatrixOuter2"></feMergeNode>
            </feMerge>
        </filter>
        <linearGradient x1="108.63338%" y1="30.2367101%" x2="46.9265964%" y2="65.7180796%" id="linearGradient-9">
            <stop stop-color="#0052CC" offset="18%"></stop>
            <stop stop-color="#2684FF" offset="100%"></stop>
        </linearGradient>
        <rect id="path-10" x="0" y="25.2307692" width="75.7714286" height="75.6923077" rx="37.8461538"></rect>
        <filter x="-83.8%" y="-70.7%" width="267.6%" height="267.8%" filterUnits="objectBoundingBox" id="filter-11">
            <feOffset dx="0" dy="10" in="SourceAlpha" result="shadowOffsetOuter1"></feOffset>
            <feGaussianBlur stdDeviation="19.5" in="shadowOffsetOuter1" result="shadowBlurOuter1"></feGaussianBlur>
            <feColorMatrix values="0 0 0 0 0.258823529   0 0 0 0 0.462745098   0 0 0 0 0.57254902  0 0 0 0.0983937937 0" type="matrix" in="shadowBlurOuter1" result="shadowMatrixOuter1"></feColorMatrix>
            <feOffset dx="0" dy="3" in="SourceAlpha" result="shadowOffsetOuter2"></feOffset>
            <feGaussianBlur stdDeviation="2" in="shadowOffsetOuter2" result="shadowBlurOuter2"></feGaussianBlur>
            <feColorMatrix values="0 0 0 0 0.258823529   0 0 0 0 0.462745098   0 0 0 0 0.57254902  0 0 0 0.2 0" type="matrix" in="shadowBlurOuter2" result="shadowMatrixOuter2"></feColorMatrix>
            <feMerge>
                <feMergeNode in="shadowMatrixOuter1"></feMergeNode>
                <feMergeNode in="shadowMatrixOuter2"></feMergeNode>
            </feMerge>
        </filter>
    </defs>
    <g id="WIP---May" stroke="none" stroke-width="1" fill="none" fill-rule="evenodd">
        <g id="2---workflow---neutered" transform="translate(-1070.000000, -1930.000000)">
            <g id="main">
                <g id="3" transform="translate(470.000000, 1928.000000)">
                    <g id="workflow-flow" transform="translate(597.000000, 2.000000)">
                        <g id="Group-25" transform="translate(298.000000, 182.000000)">
                            <path d="M63,2.22187662 L63,12.7781234 C63,13.4757462 62.4344649,14.0412813 61.7368421,14.0412813 C61.5094069,14.0412813 61.2861907,13.9798754 61.0907572,13.863546 L52.22351,8.58542259 C51.6240476,8.22859977 51.4273494,7.45337747 51.7841722,6.85391512 C51.8917557,6.67317493 52.0427698,6.52216086 52.22351,6.41457741 L61.0907572,1.13645403 C61.6902196,0.779631206 62.4654419,0.976329401 62.8222647,1.57579175 C62.9385941,1.77122522 63,1.99444139 63,2.22187662 Z" id="commit" fill="#83A7F3"></path>
                            <path d="M37.8,2.22187662 L37.8,12.7781234 C37.8,13.4757462 37.2344649,14.0412813 36.5368421,14.0412813 C36.3094069,14.0412813 36.0861907,13.9798754 35.8907572,13.863546 L27.02351,8.58542259 C26.4240476,8.22859977 26.2273494,7.45337747 26.5841722,6.85391512 C26.6917557,6.67317493 26.8427698,6.52216086 27.02351,6.41457741 L35.8907572,1.13645403 C36.4902196,0.779631206 37.2654419,0.976329401 37.6222647,1.57579175 C37.7385941,1.77122522 37.8,1.99444139 37.8,2.22187662 Z" id="Rectangle-Copy-7" fill="#49BFFF" opacity="0.400000006"></path>
                            <path d="M12.6,2.22187662 L12.6,12.7781234 C12.6,13.4757462 12.0344649,14.0412813 11.3368421,14.0412813 C11.1094069,14.0412813 10.8861907,13.9798754 10.6907572,13.863546 L1.82350995,8.58542259 C1.22404761,8.22859977 1.02734941,7.45337747 1.38417224,6.85391512 C1.49175569,6.67317493 1.64276976,6.52216086 1.82350995,6.41457741 L10.6907572,1.13645403 C11.2902196,0.779631206 12.0654419,0.976329401 12.4222647,1.57579175 C12.5385941,1.77122522 12.6,1.99444139 12.6,2.22187662 Z" id="Rectangle-Copy-59" fill="#49BFFF" opacity="0.200000003"></path>
                        </g>
                        <g id="Group-24" transform="translate(323.500000, 124.500000) rotate(-36.000000) translate(-323.500000, -124.500000) translate(292.000000, 117.000000)">
                            <path d="M63,2.22187662 L63,12.7781234 C63,13.4757462 62.4344649,14.0412813 61.7368421,14.0412813 C61.5094069,14.0412813 61.2861907,13.9798754 61.0907572,13.863546 L52.22351,8.58542259 C51.6240476,8.22859977 51.4273494,7.45337747 51.7841722,6.85391512 C51.8917557,6.67317493 52.0427698,6.52216086 52.22351,6.41457741 L61.0907572,1.13645403 C61.6902196,0.779631206 62.4654419,0.976329401 62.8222647,1.57579175 C62.9385941,1.77122522 63,1.99444139 63,2.22187662 Z" id="Rectangle-Copy-11" fill="#83A7F3"></path>
                            <path d="M37.8,2.22187662 L37.8,12.7781234 C37.8,13.4757462 37.2344649,14.0412813 36.5368421,14.0412813 C36.3094069,14.0412813 36.0861907,13.9798754 35.8907572,13.863546 L27.02351,8.58542259 C26.4240476,8.22859977 26.2273494,7.45337747 26.5841722,6.85391512 C26.6917557,6.67317493 26.8427698,6.52216086 27.02351,6.41457741 L35.8907572,1.13645403 C36.4902196,0.779631206 37.2654419,0.976329401 37.6222647,1.57579175 C37.7385941,1.77122522 37.8,1.99444139 37.8,2.22187662 Z" id="Rectangle-Copy-10" fill="#49BFFF" opacity="0.400000006"></path>
                            <path d="M12.6,2.22187662 L12.6,12.7781234 C12.6,13.4757462 12.0344649,14.0412813 11.3368421,14.0412813 C11.1094069,14.0412813 10.8861907,13.9798754 10.6907572,13.863546 L1.82350995,8.58542259 C1.22404761,8.22859977 1.02734941,7.45337747 1.38417224,6.85391512 C1.49175569,6.67317493 1.64276976,6.52216086 1.82350995,6.41457741 L10.6907572,1.13645403 C11.2902196,0.779631206 12.0654419,0.976329401 12.4222647,1.57579175 C12.5385941,1.77122522 12.6,1.99444139 12.6,2.22187662 Z" id="Rectangle-Copy-9" fill="#49BFFF" opacity="0.200000003"></path>
                        </g>
                        <g id="Group-24-Copy" transform="translate(323.500000, 255.500000) rotate(36.000000) translate(-323.500000, -255.500000) translate(292.000000, 248.000000)">
                            <path d="M63,2.22187662 L63,12.7781234 C63,13.4757462 62.4344649,14.0412813 61.7368421,14.0412813 C61.5094069,14.0412813 61.2861907,13.9798754 61.0907572,13.863546 L52.22351,8.58542259 C51.6240476,8.22859977 51.4273494,7.45337747 51.7841722,6.85391512 C51.8917557,6.67317493 52.0427698,6.52216086 52.22351,6.41457741 L61.0907572,1.13645403 C61.6902196,0.779631206 62.4654419,0.976329401 62.8222647,1.57579175 C62.9385941,1.77122522 63,1.99444139 63,2.22187662 Z" id="Rectangle-Copy-11" fill="#83A7F3"></path>
                            <path d="M37.8,2.22187662 L37.8,12.7781234 C37.8,13.4757462 37.2344649,14.0412813 36.5368421,14.0412813 C36.3094069,14.0412813 36.0861907,13.9798754 35.8907572,13.863546 L27.02351,8.58542259 C26.4240476,8.22859977 26.2273494,7.45337747 26.5841722,6.85391512 C26.6917557,6.67317493 26.8427698,6.52216086 27.02351,6.41457741 L35.8907572,1.13645403 C36.4902196,0.779631206 37.2654419,0.976329401 37.6222647,1.57579175 C37.7385941,1.77122522 37.8,1.99444139 37.8,2.22187662 Z" id="Rectangle-Copy-10" fill="#49BFFF" opacity="0.400000006"></path>
                            <path d="M12.6,2.22187662 L12.6,12.7781234 C12.6,13.4757462 12.0344649,14.0412813 11.3368421,14.0412813 C11.1094069,14.0412813 10.8861907,13.9798754 10.6907572,13.863546 L1.82350995,8.58542259 C1.22404761,8.22859977 1.02734941,7.45337747 1.38417224,6.85391512 C1.49175569,6.67317493 1.64276976,6.52216086 1.82350995,6.41457741 L10.6907572,1.13645403 C11.2902196,0.779631206 12.0654419,0.976329401 12.4222647,1.57579175 C12.5385941,1.77122522 12.6,1.99444139 12.6,2.22187662 Z" id="Rectangle-Copy-9" fill="#49BFFF" opacity="0.200000003"></path>
                        </g>
                        <g id="build" transform="translate(0.000000, 51.000000)" fill-rule="nonzero">
                            <path d="M148.374694,19.4271515 L148.374694,24.1127755 C148.374694,24.9635351 147.685018,25.653212 146.834258,25.653212 C146.560725,25.653212 146.292125,25.5803778 146.056062,25.4421945 L132.173847,17.3160203 C131.439629,16.8862342 131.192838,15.9426227 131.622624,15.2084049 C131.756066,14.9804425 131.945885,14.7906237 132.173847,14.6571823 L146.056062,6.5310081 C146.790279,6.10122207 147.733891,6.34801279 148.163677,7.0822306 C148.30186,7.31829369 148.374694,7.58689388 148.374694,7.86042706 L148.374694,13.2311299 C213.774669,17.9771055 265.363636,72.7239042 265.363636,139.561935 C265.363636,192.169214 233.106721,238.726883 185.09509,257.568789 C183.511583,258.190228 181.725871,257.405845 181.10659,255.816821 C180.487309,254.227796 181.268968,252.435862 182.852475,251.814423 C228.522317,233.891539 259.206324,189.604112 259.206324,139.561935 C259.206324,76.1378551 210.370654,24.1596993 148.374694,19.4271515 Z" id="Combined-Shape" fill="url(#linearGradient-1)"></path>
                            <path d="M130.92046,259.95181 L130.92046,255.166855 C130.92046,254.893055 130.993436,254.624203 131.131874,254.387981 C131.562035,253.653982 132.505772,253.407672 133.239771,253.837833 L147.090304,261.954946 C147.317739,262.088235 147.507163,262.277659 147.640451,262.505094 C148.070612,263.239093 147.824302,264.18283 147.090304,264.61299 L133.239771,272.730104 C133.003548,272.868542 132.734696,272.941518 132.460896,272.941518 C131.610137,272.941518 130.92046,272.251841 130.92046,271.401082 L130.92046,266.138323 C64.9266708,262.137888 12.6363636,207.100936 12.6363636,139.794038 C12.6363636,88.2978743 43.5301234,42.5341116 90.0090915,22.9857329 C91.5745808,22.3273108 93.3749423,23.0685458 94.0303116,24.6413274 C94.6856808,26.2141091 93.9478827,28.0228571 92.3823933,28.6812792 C48.169226,47.2766951 18.7822314,90.8084457 18.7822314,139.794038 C18.7822314,203.689823 68.323338,255.960762 130.92046,259.95181 Z" id="Combined-Shape" fill="url(#linearGradient-2)"></path>
                        </g>
                        <g id="logos" transform="translate(41.000000, 30.000000)">
                            <g id="Group-21" transform="translate(0.000000, 59.076923)">
                                <g id="Rectangle">
                                    <use fill="black" fill-opacity="1" filter="url(#filter-4)" xlink:href="#path-3"></use>
                                    <use fill="#FFFFFF" fill-rule="evenodd" xlink:href="#path-3"></use>
                                </g>
                                <g id="Mark" transform="translate(34.097143, 63.076923)">
                                    <path d="M115.628212,22.4014229 C101.836888,16.6698088 90.234663,19.2949755 80.6901911,24.8515785 C85.0246073,33.5146287 86.2505027,43.5340151 91.0665207,50.096932 C97.5462539,58.8912406 109.542517,66.1104491 118.780515,65.9791908 C126.311015,65.8916852 130.426522,60.9913739 131.258379,59.6350378 C131.302161,59.591285 131.302161,59.5475322 131.345943,59.5037795 C131.345943,59.5037795 131.345943,59.5037795 131.345943,59.4600267 C132.134019,58.0599378 132.703185,56.5723433 133.009659,54.9097377 C135.24254,43.6215207 129.025498,27.9580258 115.628212,22.4014229 Z" id="Shape" fill="#1EC4E9"></path>
                                    <path d="M28.4582877,63.6602935 C40.1480767,62.3039573 48.8169089,58.3662072 63.6152185,42.0464206 C68.6501463,36.5335705 73.0721264,29.3143619 80.6901911,24.8515785 C75.8303912,15.1384615 69.0441842,6.12538906 55.1652962,2.45015562 C37.5649398,-2.18763895 25.0870752,0.350022232 13.0470304,11.1132059 C4.64089,18.6386839 1.6199333,27.3892397 0.831857641,30.8019564 C-1.35724141,40.3400622 2.27666302,49.1781236 5.5603116,54.8222321 C6.08569537,55.6972877 12.7843385,65.4979102 28.4582877,63.6602935 Z" id="Shape" fill="#A295EE"></path>
                                    <path d="M94.0436954,74.5984882 C94.2188233,74.5984882 94.3939512,74.5547354 94.6128611,74.5547354 C94.919335,74.5109827 95.1820269,74.5109827 95.4447188,74.4672299 C100.78612,73.9859493 105.908612,73.2859048 110.461938,72.2358382 C110.680848,72.1920854 110.899758,72.1483326 111.118668,72.1045798 C111.250014,72.060827 111.337578,72.060827 111.468924,72.0170743 C116.67898,70.7482437 120.88205,68.9981325 124.253262,66.7667408 C124.297044,66.722988 124.384608,66.6792352 124.42839,66.6354824 C124.559736,66.5479769 124.6473,66.4604713 124.778646,66.3729658 C124.86621,66.329213 124.909992,66.2854602 124.997556,66.2417074 C125.172684,66.1104491 125.30403,66.0229435 125.479158,65.8916852 C125.479158,65.8916852 125.479158,65.8916852 125.479158,65.8916852 C127.361783,64.4915963 128.937934,62.9164962 130.120048,61.3413962 C130.16383,61.2976434 130.207612,61.2538906 130.251394,61.1663851 C130.295176,61.1226323 130.295176,61.0788795 130.338958,61.0351267 C130.689214,60.5538462 130.995687,60.0725656 131.302161,59.5475322 C130.470304,60.9038684 127.055309,64.7541129 119.524808,64.8416185 C110.28681,64.9728768 99.1224052,58.0599378 92.642672,49.2218764 C87.8266541,42.6589595 85.0683892,33.4271232 80.7339731,24.7640729 C73.1596904,29.2268564 66.8550851,35.5272566 61.8201573,41.0838595 C47.0218477,57.3598933 39.360001,61.0788795 27.670212,62.4352157 C11.9962628,64.2728324 6.08569537,55.6097821 5.5603116,54.7784793 C5.5603116,54.8222321 5.60409358,54.8222321 5.60409358,54.8659849 C6.04191339,55.6097821 8.36235839,59.2412628 11.9962628,62.6977323 C13.7037601,64.2728324 15.4550393,65.5854157 17.0311906,66.6354824 C24.0800896,70.9232548 33.8434714,75.1235216 69.0441842,75.2985327 C78.588656,75.3860382 86.8634505,75.1672743 94.0436954,74.5984882 Z" id="Shape" fill="#7A68E8"></path>
                                </g>
                            </g>
                            <g id="Group-17" transform="translate(330.971429, 0.000000)">
                                <g id="Rectangle">
                                    <use fill="black" fill-opacity="1" filter="url(#filter-6)" xlink:href="#path-5"></use>
                                    <use fill="#FFFFFF" fill-rule="evenodd" xlink:href="#path-5"></use>
                                </g>
                                <path d="M37.8843189,15.1384615 C25.3324957,15.1384615 15.1542857,25.5622472 15.1542857,38.4229661 C15.1542857,48.7081109 21.6667214,57.4339043 30.7006851,60.5140165 C31.8379542,60.7269802 32.2523946,60.0080491 32.2523946,59.3905974 C32.2523946,58.8388929 32.2328587,57.3738743 32.2216953,55.4314741 C25.8990371,56.8378919 24.5650134,52.3099126 24.5650134,52.3099126 C23.5310055,49.6199957 22.0406946,48.9053525 22.0406946,48.9053525 C19.976865,47.4603439 22.1969818,47.4889296 22.1969818,47.4889296 C24.4784972,47.6547269 25.6785604,49.8887015 25.6785604,49.8887015 C27.7061089,53.4461953 30.99791,52.4185384 32.2942573,51.8239553 C32.5007798,50.3189167 33.0868571,49.2926891 33.7371239,48.7109695 C28.6898816,48.1235328 23.3830908,46.1253904 23.3830908,37.2037848 C23.3830908,34.6625136 24.2691839,32.5843312 25.7232139,30.956374 C25.488783,30.367508 24.7087419,28.0006097 25.945086,24.7947204 C25.945086,24.7947204 27.8540237,24.1686929 32.1965777,27.1816286 C34.0092313,26.664227 35.9544499,26.4069554 37.8871097,26.3969504 C39.8169787,26.4069554 41.7621973,26.664227 43.5776417,27.1816286 C47.9174049,24.1686929 49.8221563,24.7947204 49.8221563,24.7947204 C51.0626867,28.0006097 50.2826456,30.367508 50.0482147,30.956374 C51.5050355,32.5843312 52.385547,34.6625136 52.385547,37.2037848 C52.385547,46.148259 47.0703836,48.1163864 42.0063962,48.6923888 C42.8227182,49.4113198 43.5497332,50.8320305 43.5497332,53.0045458 C43.5497332,56.1161023 43.5218248,58.6273585 43.5218248,59.3905974 C43.5218248,60.0137663 43.9306835,60.7384145 45.0846977,60.5111579 C54.1088934,57.4253286 60.6171429,48.7052524 60.6171429,38.4229661 C60.6171429,25.5622472 50.4389329,15.1384615 37.8843189,15.1384615" id="github" fill="#22424B"></path>
                            </g>
                            <g id="Group-16" transform="translate(356.228571, 122.153846)">
                                <g id="Rectangle">
                                    <use fill="black" fill-opacity="1" filter="url(#filter-8)" xlink:href="#path-7"></use>
                                    <use fill="#FFFFFF" fill-rule="evenodd" xlink:href="#path-7"></use>
                                </g>
                                <g id="bitbucket" transform="translate(18.942857, 21.950769)">
                                    <polygon id="Shape" points="14.9264919 22.4148826 22.7494123 22.4148826 24.6377034 11.4255547 12.8463743 11.4255547"></polygon>
                                    <path d="M1.31880651,0.155368421 C0.964625759,0.150814737 0.626552448,0.302617377 0.395274569,0.57005536 C0.16399669,0.837493343 0.0631884105,1.19319106 0.119891501,1.54173279 L5.20928571,32.3405344 C5.34017732,33.1185091 6.01253865,33.6904853 6.80384268,33.6970202 L31.2197468,33.6970202 C31.8136807,33.7046405 32.3236737,33.2775946 32.4186618,32.6931012 L37.5080561,1.5477085 C37.5647591,1.19916677 37.4639509,0.843469051 37.232673,0.576031068 C37.0013951,0.308593085 36.6633218,0.156790446 36.309141,0.16134413 L1.31880651,0.155368421 Z M22.7494123,22.4148826 L14.9564647,22.4148826 L12.8463743,11.4255547 L24.6377034,11.4255547 L22.7494123,22.4148826 Z" id="Shape" fill="#2684FF" fill-rule="nonzero"></path>
                                    <path d="M35.8895208,11.4255547 L24.6377034,11.4255547 L22.7494123,22.4148826 L14.9564647,22.4148826 L5.75479204,33.3026235 C6.04644441,33.5540231 6.41828817,33.69382 6.80384268,33.6970202 L31.2257414,33.6970202 C31.8196753,33.7046405 32.3296683,33.2775946 32.4246564,32.6931012 L35.8895208,11.4255547 Z" id="Shape" fill="url(#linearGradient-9)" fill-rule="nonzero"></path>
                                </g>
                            </g>
                            <g id="Group-15" transform="translate(330.971429, 219.076923)">
                                <g id="Rectangle">
                                    <use fill="black" fill-opacity="1" filter="url(#filter-11)" xlink:href="#path-10"></use>
                                    <use fill="#FFFFFF" fill-rule="evenodd" xlink:href="#path-10"></use>
                                </g>
                                <g id="gitlab" transform="translate(37.885714, 64.212308) scale(1, -1) translate(-37.885714, -64.212308) translate(15.154286, 42.640000)" fill-rule="nonzero">
                                    <g id="g44" transform="translate(-0.000000, 0.086028)" fill="#FC6D26">
                                        <path d="M45.3779204,18.1480769 L42.8340154,25.8582213 L37.7923596,41.1392425 C37.5330336,41.9253958 36.4035442,41.9253958 36.1440951,41.1392425 L31.1023163,25.8582213 L14.3605926,25.8582213 L9.31869059,41.1392425 C9.05936466,41.9253958 7.92987524,41.9253958 7.67042621,41.1392425 L2.62877042,25.8582213 L0.0849884207,18.1480769 C-0.147137226,17.4448297 0.107142512,16.6744335 0.714533849,16.2397825 L22.7313929,0.486778455 L44.748375,16.2397825 C45.3557664,16.6744335 45.609923,17.4448297 45.3779204,18.1480769" id="path46"></path>
                                    </g>
                                    <g id="g48" transform="translate(13.638857, 0.572807)" fill="#E24329">
                                        <polygon id="path50" points="7.95600002 -1.38777878e-17 7.95600002 -1.38777878e-17 15.912 25.2034927 -1.5156626e-13 25.2034927"></polygon>
                                    </g>
                                    <g id="g56" transform="translate(2.273143, 0.562801)" fill="#FC6D26">
                                        <polygon id="path58" points="20.4582857 0.0100053564 11.9392607 25.2134981 9.30436284e-13 25.2134981"></polygon>
                                    </g>
                                    <g id="g64" transform="translate(-0.000000, 0.562801)" fill="#FCA326">
                                        <path d="M2.62883602,25.2134981 L2.62883602,25.2134981 L0.0849347318,17.5543555 C-0.14706749,16.8557603 0.107088791,16.09046 0.714602302,15.6588047 L22.7314286,0.0100053564 L2.62883602,25.2134981 L2.62883602,25.2134981 Z" id="path66"></path>
                                    </g>
                                    <g id="g72" transform="translate(2.273143, 25.299526)" fill="#E24329">
                                        <path d="M0,0.476773098 L11.3657143,0.476773098 L6.48121989,15.9194164 C6.2298647,16.714007 5.13561109,16.714007 4.88437514,15.9194164 L0,0.476773098 L0,0.476773098 Z" id="path74"></path>
                                    </g>
                                    <g id="g76" transform="translate(22.731429, 0.562801)" fill="#FC6D26">
                                        <polygon id="path78" points="0 0.0100053564 8.51902495 25.2134981 20.4582857 25.2134981"></polygon>
                                    </g>
                                    <g id="g80" transform="translate(22.731429, 0.562801)" fill="#FCA326">
                                        <path d="M20.1025926,25.2134981 L20.1025926,25.2134981 L22.6464938,17.5543555 C22.878496,16.8557603 22.6243398,16.09046 22.0168263,15.6588047 L5.51086954e-13,0.0100053564 L20.1025926,25.2134981 L20.1025926,25.2134981 Z" id="path82"></path>
                                    </g>
                                    <g id="g84" transform="translate(31.824000, 25.299526)" fill="#E24329">
                                        <path d="M11.3657143,0.476773098 L-1.47770685e-13,0.476773098 L4.88449438,15.9194164 C5.13584957,16.714007 6.23010318,16.714007 6.48133913,15.9194164 L11.3657143,0.476773098 L11.3657143,0.476773098 Z" id="path86"></path>
                                    </g>
                                </g>
                            </g>
                        </g>
                    </g>
                </g>
            </g>
        </g>
    </g>
</svg>