<svg width="30" height="30" viewBox="0 0 30 30" xmlns="http://www.w3.org/2000/svg"><path d="M14.999 3C8.373 3 3 8.509 3 15.304c0 5.436 3.438 10.047 8.207 11.674.6.113.819-.266.819-.593 0-.291-.01-1.065-.017-2.092-3.337.743-4.042-1.65-4.042-1.65-.546-1.421-1.332-1.8-1.332-1.8-1.09-.762.082-.747.082-.747 1.205.087 1.838 1.268 1.838 1.268 1.07 1.88 2.81 1.337 3.493 1.022.109-.795.419-1.337.762-1.644-2.665-.31-5.467-1.367-5.467-6.081 0-1.343.468-2.442 1.236-3.302-.124-.311-.536-1.563.118-3.256 0 0 1.007-.33 3.3 1.261A11.18 11.18 0 0115 8.95a11.24 11.24 0 013.005.414c2.29-1.592 3.296-1.261 3.296-1.261.655 1.693.243 2.945.12 3.256.77.86 1.233 1.959 1.233 3.302 0 4.726-2.806 5.766-5.478 6.07.43.38.814 1.131.814 2.28 0 1.644-.015 2.97-.015 3.374 0 .33.217.713.825.592 4.765-1.63 8.2-6.238 8.2-11.673C27 8.51 21.627 3 14.999 3" fill="#E0E6F0" fill-rule="evenodd"/></svg>