<svg width="100" height="100" viewBox="0 0 100 100" xmlns="http://www.w3.org/2000/svg" xmlns:xlink="http://www.w3.org/1999/xlink"><defs><path d="M50 100C22.386 100 0 77.614 0 50S22.386 0 50 0s50 22.386 50 50-22.386 50-50 50z" id="a"/></defs><g fill="none" fill-rule="evenodd"><g opacity=".197"><use fill="#000" xlink:href="#a"/><path stroke="#000" stroke-width="4" d="M50 98c26.51 0 48-21.49 48-48S76.51 2 50 2 2 23.49 2 50s21.49 48 48 48z"/></g><path fill="#D3E0EB" d="M23.2 22.4h32v51.2h-32z"/><path d="M29.6 28.8H36v6.4h-6.4v-6.4zm12.8 0h6.4v6.4h-6.4v-6.4zM29.6 41.6H36V48h-6.4v-6.4zm12.8 0h6.4V48h-6.4v-6.4zm17.2-6.4h19.2v38.4H59.6z" fill="#F5F9FF"/><path fill="#DBE8FB" d="M62.8 38.4h12.8L62.8 51.2z"/></g></svg>