<svg width="100" height="100" viewBox="0 0 100 100" xmlns="http://www.w3.org/2000/svg" xmlns:xlink="http://www.w3.org/1999/xlink"><defs><path d="M50 100C22.386 100 0 77.614 0 50S22.386 0 50 0s50 22.386 50 50-22.386 50-50 50z" id="a"/></defs><g fill="none" fill-rule="evenodd"><g opacity=".197"><use fill="#000" xlink:href="#a"/><path stroke="#000" stroke-width="4" d="M50 98c26.51 0 48-21.49 48-48S76.51 2 50 2 2 23.49 2 50s21.49 48 48 48z"/></g><g transform="rotate(40 21.889 80.217)"><path d="M23.442 66.857c9.247 0 17.86-10.51 16.744-31.2C39.07 14.967 25.992 0 23.442 0 20.892 0 7.814 14.966 6.698 35.657c-1.117 20.69 7.496 31.2 16.744 31.2z" fill="#F5F9FF"/><ellipse fill="#D3E0EB" cx="23.442" cy="35.657" rx="11.163" ry="11.143"/><path d="M17.592 39.097a6.65 6.65 0 01-1.49-4.206c0-3.692 2.998-6.686 6.697-6.686a6.69 6.69 0 015.06 2.306 9.172 9.172 0 00-1.203-.08c-4.88 0-8.859 3.846-9.064 8.666z" fill="#EDF3FD"/><path d="M23.442 78c1.583 0 3.349-4.989 4.465-11.143 1.116-6.154.467-13.371-4.465-13.371-4.932 0-5.582 7.217-4.465 13.371C20.093 73.011 21.859 78 23.442 78zM6.698 70.2c1.466 0 0-2.76 4.465-8.914s1.466-14.486-2.233-15.6C5.231 44.57 0 50.675 0 56.829 0 62.983 5.231 70.2 6.698 70.2zm33.492 0c-1.467 0 0-2.76-4.466-8.914-4.465-6.154-1.466-14.486 2.233-15.6 3.7-1.115 8.93 4.989 8.93 11.143 0 6.154-5.23 13.371-6.697 13.371z" fill="#DBE8FB"/></g></g></svg>