<svg width="100" height="100" viewBox="0 0 100 100" xmlns="http://www.w3.org/2000/svg" xmlns:xlink="http://www.w3.org/1999/xlink"><defs><path d="M50 100C22.386 100 0 77.614 0 50S22.386 0 50 0s50 22.386 50 50-22.386 50-50 50z" id="a"/><path d="M39 1.31l26.641 15.38a8 8 0 014 6.929V54.38a8 8 0 01-4 6.928L39 76.691a8 8 0 01-8 0L4.359 61.309a8 8 0 01-4-6.928V23.62a8 8 0 014-6.928L31 1.309a8 8 0 018 0z" id="b"/><path d="M68.67 19.798a7.994 7.994 0 01.971 3.82v30.763a8 8 0 01-4 6.928L39 76.691a7.995 7.995 0 01-4 1.071V42.265a4 4 0 011.942-3.43L68.67 19.798z" id="c"/><path d="M68.603 58.322a7.995 7.995 0 01-2.962 2.987L39 76.691a7.995 7.995 0 01-4 1.071V42.265a4 4 0 011.026-2.675l32.577 18.732z" id="d"/></defs><g fill="none" fill-rule="evenodd"><g opacity=".197"><use fill="#000" xlink:href="#a"/><path stroke="#000" stroke-width="4" d="M50 98c26.51 0 48-21.49 48-48S76.51 2 50 2 2 23.49 2 50s21.49 48 48 48z"/></g><g transform="translate(15 11)"><use fill="#DBE8FB" xlink:href="#b"/><use fill="#F5F9FF" xlink:href="#c"/><use fill="#EDF3FD" xlink:href="#d"/></g></g></svg>