<svg width="100" height="100" viewBox="0 0 100 100" xmlns="http://www.w3.org/2000/svg" xmlns:xlink="http://www.w3.org/1999/xlink"><defs><path d="M50 100C22.386 100 0 77.614 0 50S22.386 0 50 0s50 22.386 50 50-22.386 50-50 50z" id="a"/></defs><g fill="none" fill-rule="evenodd"><g opacity=".197"><use fill="#000" xlink:href="#a"/><path stroke="#000" stroke-width="4" d="M50 98c26.51 0 48-21.49 48-48S76.51 2 50 2 2 23.49 2 50s21.49 48 48 48z"/></g><path d="M38.243 54.565c.21-.062.462-.117.757-.165 6-.97.03-13 11-13s5 12.03 11 13c.295.048.547.103.757.165C73.095 55.855 81.51 59.74 80 70c-2 13.598-13.431 15-30 15-16.569 0-28-1.402-30-15-1.509-10.26 6.905-14.145 18.243-15.435z" fill="#D3E0EC"/><path d="M50 50c-8.215 0-13.458-6.903-14.167-17C35.125 22.903 41.785 16 50 16s14.875 6.903 14.167 17C63.458 43.097 58.215 50 50 50z" fill="#F5F9FF"/></g></svg>