<svg width="100" height="100" viewBox="0 0 100 100" xmlns="http://www.w3.org/2000/svg" xmlns:xlink="http://www.w3.org/1999/xlink"><defs><path d="M50 100C22.386 100 0 77.614 0 50S22.386 0 50 0s50 22.386 50 50-22.386 50-50 50z" id="a"/></defs><g fill="none" fill-rule="evenodd"><g opacity=".197"><use fill="#000" xlink:href="#a"/><path stroke="#000" stroke-width="4" d="M50 98c26.51 0 48-21.49 48-48S76.51 2 50 2 2 23.49 2 50s21.49 48 48 48z"/></g><path d="M50 84c-18.778 0-34-15.222-34-34s15.222-34 34-34 34 15.222 34 34-15.222 34-34 34z" fill="#F5F9FF"/><path d="M50 72.1a5.1 5.1 0 110-10.2 5.1 5.1 0 010 10.2zm-3.4-17v-1.74c0-1.88 0-2.998.374-3.86.606-1.395 1.641-2.61 3.454-3.662 1.431-.843 7.501-2.957 7.501-6.547s-3.027-6.158-7.5-5.99c-2.983.112-5.433 1.796-7.35 5.05l-4.81-2.378c.472-1.124 2.882-8.073 12.16-8.073 9.277 0 13.454 4.86 13.454 11.39 0 5.884-5.574 9.144-7.199 9.89-1.624.748-2.708 1.617-3.028 2.306-.256.549-.256 1.4-.256 3.451v.163a3.4 3.4 0 01-6.8 0z" fill="#D3E0EB"/></g></svg>