<svg height="30" viewBox="0 0 54 30" width="54" xmlns="http://www.w3.org/2000/svg"><g fill="none" fill-rule="evenodd"><path d="M45.78 8.879c-5.46-2.272-10.054-1.232-13.833.97 1.717 3.434 2.202 7.405 4.109 10.006 2.565 3.486 7.315 6.347 10.972 6.295 2.982-.034 4.611-1.977 4.94-2.514.018-.018.018-.035.035-.052v-.018a5.76 5.76 0 00.66-1.803c.883-4.474-1.578-10.682-6.883-12.884z" fill="#1ec4e9"/><path d="M11.267 25.231c4.629-.537 8.061-2.098 13.92-8.566 1.993-2.185 3.744-5.047 6.76-6.815C30.023 6 27.337 2.428 21.841.97 14.873-.867 9.933.14 5.166 4.405 1.837 7.387.64 10.855.329 12.208c-.866 3.78.572 7.283 1.872 9.52.208.347 2.86 4.232 9.066 3.503z" fill="#a295ee"/><path d="M37.234 29.566c.07 0 .14-.017.226-.017.121-.017.225-.017.33-.035 2.114-.19 4.142-.468 5.945-.884l.26-.052c.052-.017.087-.017.139-.035 2.062-.503 3.727-1.196 5.061-2.08.018-.018.052-.035.07-.053.052-.034.086-.069.138-.104.035-.017.052-.034.087-.052.07-.052.121-.086.19-.138a9.092 9.092 0 001.838-1.804.24.24 0 00.052-.07c.017-.017.017-.034.035-.051a7 7 0 00.381-.59c-.33.538-1.681 2.064-4.663 2.098-3.657.052-8.078-2.687-10.643-6.19-1.907-2.601-3-6.26-4.715-9.694-3 1.769-5.495 4.266-7.489 6.468-5.859 6.451-8.892 7.925-13.52 8.463-6.206.728-8.547-2.706-8.755-3.035 0 .017.018.017.018.035.173.294 1.092 1.734 2.53 3.104.677.624 1.37 1.144 1.994 1.56 2.791 1.7 6.657 3.365 20.593 3.434 3.78.035 7.056-.052 9.898-.278z" fill="#7a68e8"/></g></svg>