<svg width="54" height="30" viewBox="0 0 54 30" xmlns="http://www.w3.org/2000/svg"><g fill="#D3E0EB" fill-rule="evenodd"><path d="M37.33 29.57c.072-.005.145-.01.217-.017l.337-.028c2.125-.187 4.147-.467 5.952-.88.087-.02.175-.039.26-.06l.14-.034c2.06-.51 3.736-1.188 5.078-2.074a7.995 7.995 0 00.211-.144l.082-.058a9.51 9.51 0 00.189-.136v-.001c.241-.18.47-.367.685-.56.45-.402.559-.696-.282-.358-.299.12-.672.215-1.023.303a7.62 7.62 0 01-1.759.22c-3.67.05-8.098-2.691-10.667-6.184-1.785-2.427-2.86-5.775-4.386-9a.7.7 0 00-1.006-.292c-2.716 1.728-4.989 4.029-6.833 6.055-5.875 6.455-8.912 7.93-13.55 8.469-3.487.404-5.847-.607-7.251-1.529-.298-.195-.417.032-.273.208.364.446.806.93 1.31 1.41a17.059 17.059 0 002 1.558c2.79 1.705 6.672 3.369 20.644 3.431 3.785.012 7.074-.075 9.925-.298"/><path d="M30.373 7.086c-.31-.565-.916-1.318-1.249-1.698-1.525-1.74-3.497-3.192-6.206-4.095a13.69 13.69 0 00-.294-.095l-.18-.057a16.86 16.86 0 00-.557-.157C14.905-.856 9.95.15 5.17 4.424 1.825 7.413.636 10.876.326 12.232c-.517 2.27-.203 4.442.412 6.3.189.57.623 1.482 1.869 2.684 1.008.973 2.084 1.674 3.692 2.05l.017.003c1.183.301 2.64.36 4.498.144 5.18-.601 7.33-3.23 12.03-8.395 1.41-1.549 3.625-4 5.966-5.952.331-.276.957-.73 1.417-1.058.314-.224.365-.522.146-.922m5.562 5.996c.798 2.172 1.681 4.044 2.81 5.578 1.484 2.018 4.024 4.68 7.385 5.49 1.801.436 3.007.444 3.914.171.428-.145.719-.273 1.015-.489.116-.084.31-.249.42-.372a3.738 3.738 0 00.318-.41 7.78 7.78 0 00.762-1.457c.022-.055.043-.112.062-.17l.018-.056.037-.118.019-.067c.004-.016.052-.164.088-.323.05-.21.09-.45.107-.557.032-.202.054-.452.056-.495.015-.162.015-.366.015-.375-.18-4.082-2.63-8.71-7.067-10.55-4.086-1.695-7.667-1.503-10.808-.398-.359.127-.566.477-.44.835.436 1.25.881 2.652 1.29 3.763"/></g></svg>